SplineFontDB: 3.0
FontName: Cantarell-Bold
FullName: Cantarell Bold
FamilyName: Cantarell
Weight: Bold
Copyright: Copyright (c) 2009-2011 Dave Crossland <dave@lab6.com>
UComments: "Cantarell is designed by Dave Crossland+AA0ACgAA-dave@lab6.com+AA0ACgAA-http://abattis.org/cantarell/" 
Version: 001.001
ItalicAngle: 0
UnderlinePosition: -113.77
UnderlineWidth: 56.6406
Ascent: 739
Descent: 261
LayerCount: 3
Layer: 0 0 "Back"  1
Layer: 1 0 "Fore"  0
Layer: 2 0 "temp"  0
XUID: [1021 472 1916768597 5236576]
FSType: 0
OS2Version: 0
OS2_WeightWidthSlopeOnly: 0
OS2_UseTypoMetrics: 1
CreationTime: 1236980653
ModificationTime: 1297337067
PfmFamily: 33
TTFWeight: 700
TTFWidth: 5
LineGap: 103
VLineGap: 0
OS2TypoAscent: 0
OS2TypoAOffset: 1
OS2TypoDescent: 0
OS2TypoDOffset: 1
OS2TypoLinegap: 103
OS2WinAscent: 0
OS2WinAOffset: 1
OS2WinDescent: 0
OS2WinDOffset: 1
HheadAscent: 0
HheadAOffset: 1
HheadDescent: 0
HheadDOffset: 1
OS2FamilyClass: 2050
OS2Vendor: 'ABAT'
MarkAttachClasses: 1
DEI: 91125

StartChar: a
Encoding: 97 97 0
Width: 602
VWidth: 1023
Flags: HMWO
HStem: -10 73<202 373> 195 73<205 394> 396 88<135 368>
VStem: 60 127<109 182> 394 121<112 203 293 359>
LayerCount: 3
Back
SplineSet
247.761 491.465 m 4
 283.611 491.465 413.789 486.83 431.639 369.76 c 4
 433.781 355.709 434.104 341.463 434.104 327.237 c 4
 434.104 324.928 434.095 322.619 434.084 320.312 c 6
 432.619 0 l 5
 377.443 0 l 5x7c
 358.725 43.9316 l 5
 326.611 14.6221 278.661 -9.75 222.992 -9.75 c 4
 130.12 -9.75 59.9785 56.043 59.9785 127.73 c 4
 59.9785 173.166 88.3984 237.223 188.459 260.229 c 4
 220.403 267.573 262.57 272.259 353.518 273.73 c 5
 353.518 299.316 l 6
 353.518 304.131 353.568 308.966 353.568 313.802 c 4
 353.568 340.277 355.396 425.425 234.946 425.425 c 4xbc
 188.943 425.425 132.189 410.787 105.959 403.32 c 5
 90.8223 461.914 l 5
 149.717 484.057 204.564 491.382 247.761 491.465 c 4
353.518 213.613 m 5
 257.662 212.174 194.621 214.439 158.693 176.758 c 4
 147.237 164.742 139.864 148.457 139.864 131.942 c 4
 139.864 91.2646 186.574 53.1816 244.812 53.1816 c 4
 255.556 53.1816 308.687 53.9922 353.518 102.412 c 5
 353.518 213.613 l 5
EndSplineSet
Fore
SplineSet
292 492 m 0
 473 492 514 409 514 316 c 2
 514 0 l 1
 424 0 l 1
 411 32 l 1
 373 8 321 -10 263 -10 c 0
 138 -10 60 59 60 133 c 0
 60 274 197 286 394 286 c 1
 394 293 l 2
 394 333 385 385 276 385 c 0
 247 385 201 381 131 364 c 1
 112 358 l 1
 87 455 l 1
 104 460 l 2
 166 481 233 492 292 492 c 0
394 125 m 1
 394 195 l 1
 382 195 l 2
 255 195 187 193 187 142 c 0
 187 110 228 93 288 93 c 0
 299 93 349 94 394 125 c 1
EndSplineSet
EndChar

StartChar: d
Encoding: 100 100 1
Width: 660
VWidth: 1023
Flags: HW
HStem: -10 106<253 443> 0 10G<474 567> 389 103<249 446> 728 10G<447 567>
VStem: 63 118<163 326> 447 120<107 380 476 738>
LayerCount: 3
Fore
SplineSet
63 233 m 4xbc
 63 402 173 492 333 492 c 4
 376 492 414 486 447 476 c 5
 447 738 l 5
 567 738 l 5
 567 0 l 5
 479 0 l 5x7c
 469 22 l 5
 419 -1 364 -10 317 -10 c 4
 195 -10 63 50 63 233 c 4xbc
348 96 m 4xbc
 386 96 421 104 447 113 c 5
 447 375 l 5
 421 382 385 389 347 389 c 4
 282 389 182 367 182 245 c 4
 182 122 281 96 348 96 c 4xbc
EndSplineSet
EndChar

StartChar: e
Encoding: 101 101 2
Width: 618
VWidth: 1023
Flags: HMW
HStem: 0 104<263 496> 184 73<193 437> 382 109<244 402>
LayerCount: 3
Back
SplineSet
295.639 491.729 m 4
 335.815 491.729 444.803 481.807 468.949 342.727 c 4
 474.198 312.496 474.609 281.659 474.609 250.977 c 6
 474.609 203.613 l 5
 143.066 203.613 l 5
 148.102 134.537 205.297 54.1953 324.332 54.1953 c 4
 365.6 54.1953 406.471 63.457 434.082 71.7773 c 5
 448.242 17.0898 l 5
 406.529 2.73438 352.84 -9.75195 293.75 -9.76562 c 4
 109.512 -9.76562 63.4521 116.621 63.4521 225.768 c 4
 63.4521 412.687 182.298 491.729 295.639 491.729 c 4
278.48 422.233 m 4
 188.4 422.233 146.184 341.938 145.02 264.16 c 5
 396.973 264.16 l 5
 397.061 267.328 397.105 270.5 397.105 273.672 c 4
 397.105 402.854 325.931 422.233 278.48 422.233 c 4
EndSplineSet
Fore
SplineSet
526 115 m 1
 526 12 l 1
 510 8 l 2
 458 -5 413 -9 341 -9 c 0
 118 -9 63 115 63 227 c 0
 63 412 191 492 333 492 c 0
 501 492 562 348 562 246 c 2
 562 184 l 1
 192 184 l 1
 204 141 249 98 376 98 c 0
 445 98 526 115 526 115 c 1
323 382 m 0
 244 382 193 333 193 273 c 5
 442 273 l 5
 442 356 387 382 323 382 c 0
EndSplineSet
Layer: 2
SplineSet
333.691 491.699 m 4
 502.344 491.699 562.012 347.168 562.012 245.605 c 6
 562.012 183.594 l 5
 191.895 183.594 l 5
 204.102 140.625 264.16 94.2383 375.977 94.2383 c 4
 420.41 94.2383 461.426 103.027 488.281 110.84 c 6
 508.301 116.699 l 5
 532.227 23.9258 l 5
 514.648 18.0664 l 6
 471.68 3.41797 412.598 -9.76562 340.82 -9.76562 c 4
 118.164 -9.76562 63.4766 114.746 63.4766 226.562 c 4
 63.4766 411.621 191.602 491.699 333.691 491.699 c 4
322.754 382.324 m 4
 243.652 382.324 200.684 335.938 192.871 284.18 c 5
 442.383 284.18 l 5
 437.012 358.398 386.719 382.324 322.754 382.324 c 4
EndSplineSet
EndChar

StartChar: h
Encoding: 104 104 3
Width: 654
VWidth: 1023
Flags: HW
HStem: 0 10G<93 213 448 567> 380 111<247 416> 728 10G<93 213>
VStem: 93 120<0 361 458 738> 448 119<0 348>
LayerCount: 3
Back
SplineSet
301.82 420.039 m 4
 276.027 420.039 231.5 412.926 172.852 382.266 c 5
 172.852 0 l 5
 92.7734 0 l 5
 92.7734 737.793 l 5
 172.852 737.793 l 5
 172.852 445.816 l 5
 205.15 462.916 268.846 491.406 332.842 491.406 c 4
 388.896 491.406 483.584 467.354 492.7 331.335 c 4
 493.633 317.381 493.872 303.4 493.872 289.412 c 4
 493.872 278.717 493.73 268.018 493.652 257.324 c 6
 491.699 0 l 5
 411.621 0 l 5
 411.133 290.527 l 6
 411.078 322.608 411.813 391.296 341.021 414.221 c 4
 328.378 418.314 315.131 420.039 301.82 420.039 c 4
EndSplineSet
Fore
SplineSet
340 380 m 4
 316 380 272 375 213 353 c 5
 213 0 l 5
 93 0 l 5
 93 738 l 5
 213 738 l 5
 213 458 l 5
 255 474 314 491 376 491 c 4
 560 491 567 348 567 274 c 6
 567 0 l 5
 448 0 l 5
 448 282 l 6
 448 308 444 380 340 380 c 4
EndSplineSet
EndChar

StartChar: i
Encoding: 105 105 4
Width: 295
VWidth: 1023
Flags: HW
HStem: 0 10G<88 208> 473 10G<88 208> 562 132<81 215>
VStem: 81 135<562 694> 88 120<0 482>
LayerCount: 3
Fore
SplineSet
81 694 m 5xf0
 215 694 l 5
 215 562 l 5
 81 562 l 5
 81 694 l 5xf0
88 482 m 5xe8
 208 482 l 5
 208 0 l 5
 88 0 l 5
 88 482 l 5xe8
EndSplineSet
EndChar

StartChar: n
Encoding: 110 110 5
Width: 647
VWidth: 1023
Flags: HW
HStem: 0 10G<88 208 439 560> 380 112<246 411> 473 10G<88 177>
VStem: 88 120<0 361> 439 120<0 349>
LayerCount: 3
Back
SplineSet
87.8906 482.422 m 1
 144.043 482.422 l 1
 161.621 441.406 l 1
 236.816 482.422 294.922 492.188 331.543 492.188 c 0
 469.238 492.188 486.816 384.766 486.816 287.598 c 2
 486.816 0 l 25
 406.25 0 l 1
 406.25 290.527 l 2
 406.25 320.801 407.715 419.922 296.875 419.922 c 0
 251.465 419.922 203.613 400.879 167.969 382.324 c 1
 167.969 0 l 1
 87.8906 0 l 1
 87.8906 482.422 l 1
EndSplineSet
Fore
SplineSet
88 482 m 5xb8
 172 482 l 5xb8
 188 449 l 5
 268 483 332 492 375 492 c 4
 537 492 560 383 560 285 c 6
 560 0 l 5
 439 0 l 5
 439 283 l 6
 439 317 435 380 335 380 c 4xd8
 287 380 237 364 208 353 c 5
 208 0 l 5
 88 0 l 5
 88 482 l 5xb8
EndSplineSet
EndChar

StartChar: o
Encoding: 111 111 6
Width: 671
VWidth: 1023
Flags: HW
HStem: -10 108<257 424> 383 108<248 415>
VStem: 63 118<173 319> 490 118<164 313>
LayerCount: 3
Fore
SplineSet
339 492 m 4
 496 492 608 406 608 250 c 4
 608 89 499 -10 330 -10 c 4
 170 -10 63 82 63 236 c 4
 63 393 169 492 339 492 c 4
331 383 m 4
 259 383 182 340 182 249 c 4
 182 166 245 99 340 99 c 4
 423 99 490 152 490 236 c 4
 490 335 406 383 331 383 c 4
EndSplineSet
EndChar

StartChar: s
Encoding: 115 115 7
Width: 576
VWidth: 1023
Flags: HW
HStem: -10 103<150 379> 372 100<346 471> 389 103<226 475>
VStem: 81 127<319 369> 394 129<111 164>
LayerCount: 3
Fore
SplineSet
394 144 m 1xb8
 389 205 81 183 81 341 c 0
 81 400 135 492 343 492 c 0xb8
 418 492 448 481 482 471 c 2
 502 465 l 1
 469 367 l 1
 450 372 l 2xd8
 418 381 384 389 327 389 c 0
 220 389 208 352 208 340 c 0
 208 285 523 292 523 143 c 0
 523 80 478 -10 269 -10 c 0
 221 -10 155 -2 82 28 c 2
 63 36 l 1
 100 133 l 1
 118 126 l 1
 182 102 226 93 273 93 c 0
 357 93 394 110 394 144 c 1xb8
EndSplineSet
EndChar

StartChar: bar
Encoding: 124 124 8
Width: 431
VWidth: 1023
Flags: HW
VStem: 156 120<-170 802>
LayerCount: 3
Fore
SplineSet
156 802 m 1
 276 802 l 1
 276 -170 l 1
 156 -170 l 1
 156 802 l 1
EndSplineSet
EndChar

StartChar: b
Encoding: 98 98 9
Width: 657
VWidth: 1023
Flags: HW
HStem: -10 103<214 407> 0 10G<93 186> 386 106<215 407> 728 10G<93 213>
VStem: 93 120<102 376 471 738> 477 118<157 319>
LayerCount: 3
Fore
SplineSet
93 738 m 1x7c
 213 738 l 1
 213 471 l 1
 250 484 293 492 341 492 c 0
 458 492 595 436 595 247 c 0
 595 86 490 -10 325 -10 c 0xbc
 271 -10 222 2 188 16 c 1
 182 0 l 1
 93 0 l 1
 93 738 l 1x7c
309 386 m 0
 280 386 248 382 213 370 c 1
 213 107 l 1
 238 100 273 93 311 93 c 0
 378 93 477 118 477 234 c 0
 477 362 376 386 309 386 c 0
EndSplineSet
EndChar

StartChar: l
Encoding: 108 108 10
Width: 315
VWidth: 1023
Flags: HW
HStem: 0 10G<98 218> 728 10G<98 218>
VStem: 98 120<0 738>
LayerCount: 3
Fore
SplineSet
98 738 m 1
 218 738 l 1
 218 0 l 1
 98 0 l 1
 98 738 l 1
EndSplineSet
EndChar

StartChar: w
Encoding: 119 119 11
Width: 942
VWidth: 1023
Flags: HW
HStem: 0 10G<211 329 587 704> 473 10G<29 161 419 534 798 931>
LayerCount: 3
Back
SplineSet
708.008 482.422 m 1
 793.457 482.422 l 1
 924.316 77.6367 l 1
 1048.34 482.422 l 1
 1126.95 482.422 l 1
 1255.86 78.125 l 1
 1386.72 482.422 l 1
 1472.17 482.422 l 1
 1295.9 0 l 1
 1215.33 0 l 1
 1086.91 391.113 l 1
 959.961 0 l 1
 879.395 0 l 1
 708.008 482.422 l 1
EndSplineSet
Fore
SplineSet
29 482 m 1
 158 482 l 1
 273 125 l 1
 423 482 l 1
 531 482 l 1
 646 124 l 1
 802 482 l 1
 931 482 l 1
 700 0 l 1
 590 0 l 1
 477 347 l 1
 324 0 l 1
 215 0 l 1
 29 482 l 1
EndSplineSet
EndChar

StartChar: exclam
Encoding: 33 33 12
Width: 317
VWidth: 1023
Flags: HW
HStem: -20 138<90 228>
VStem: 90 138<-20 118> 97 123<204 714>
LayerCount: 3
Fore
SplineSet
90 118 m 1xc0
 228 118 l 1
 228 -20 l 1
 90 -20 l 1
 90 118 l 1xc0
97 714 m 1xa0
 220 714 l 1
 220 204 l 1
 97 204 l 1
 97 714 l 1xa0
EndSplineSet
EndChar

StartChar: u
Encoding: 117 117 14
Width: 654
VWidth: 1023
Flags: HW
HStem: -10 112<238 407> 0 10G<473 567> 473 10G<88 208 447 567>
VStem: 88 120<133 482> 447 120<122 482>
LayerCount: 3
Fore
SplineSet
447 482 m 1xb8
 567 482 l 1
 567 0 l 1
 478 0 l 1x78
 463 33 l 1
 384 -1 318 -10 274 -10 c 0
 110 -10 88 99 88 197 c 2
 88 482 l 1
 208 482 l 1
 208 198 l 2
 208 166 212 102 316 102 c 0
 365 102 417 118 447 129 c 1
 447 482 l 1xb8
EndSplineSet
EndChar

StartChar: p
Encoding: 112 112 15
Width: 654
VWidth: 1023
Flags: HW
HStem: -10 103<214 405> 385 106<215 404> 473 10G<88 182>
VStem: 88 125<-259 7 103 375> 474 118<157 318>
LayerCount: 3
Fore
SplineSet
341 492 m 0xd8
 457 492 592 434 592 246 c 0
 592 85 487 -10 325 -10 c 0
 282 -10 245 -3 213 7 c 1
 213 -259 l 1
 88 -259 l 1
 88 482 l 1
 177 482 l 1xb8
 188 459 l 1
 241 482 295 492 341 492 c 0xd8
310 385 m 0xd8
 281 385 248 380 213 368 c 1
 213 108 l 1
 238 101 273 93 311 93 c 0
 377 93 474 119 474 234 c 0
 474 362 376 385 310 385 c 0xd8
EndSplineSet
EndChar

StartChar: q
Encoding: 113 113 16
Width: 649
VWidth: 1023
Flags: HW
HStem: -10 106<251 440> 387 105<244 440> 473 10G<472 562>
VStem: 62 118<165 325> 441 120<-259 13 107 374>
LayerCount: 3
Fore
SplineSet
326 492 m 0xd8
 348 492 392 491 467 461 c 1
 476 482 l 1
 562 482 l 5xb8
 562 -259 l 5
 441 -259 l 1
 441 13 l 1
 405 0 361 -10 313 -10 c 0
 193 -10 62 50 62 238 c 0
 62 409 188 492 326 492 c 0xd8
332 387 m 0xd8
 241 387 181 335 181 246 c 0
 181 123 279 97 345 97 c 0
 374 97 406 102 441 114 c 1
 441 369 l 1
 390 384 355 387 332 387 c 0xd8
EndSplineSet
EndChar

StartChar: m
Encoding: 109 109 17
Width: 966
VWidth: 1023
Flags: HW
HStem: 0 10G<88 208 422 542 757 877> 378 114<239 395 555 729> 473 10G<88 181>
VStem: 88 120<0 359> 422 120<0 351> 757 120<0 352>
LayerCount: 3
Fore
SplineSet
322 378 m 0xdc
 298 378 270 374 208 352 c 1
 208 0 l 1
 88 0 l 1
 88 482 l 1
 177 482 l 1xbc
 191 451 l 1
 229 469 293 492 361 492 c 0
 435 492 473 464 493 443 c 1
 537 466 607 491 687 491 c 0
 842 491 877 398 877 286 c 2
 877 0 l 1
 757 0 l 1
 757 285 l 2
 757 344 729 378 655 378 c 0
 617 378 575 366 538 352 c 1
 542 330 542 306 542 283 c 0
 542 189 542 94 542 0 c 1
 422 0 l 1
 422 287 l 2
 422 365 366 378 322 378 c 0xdc
EndSplineSet
EndChar

StartChar: c
Encoding: 99 99 18
Width: 568
VWidth: 1023
Flags: HW
HStem: -10 106<256 477> 382 109<247 479>
VStem: 63 118<165 322>
LayerCount: 3
Fore
SplineSet
63 231 m 0
 63 427 202 491 348 491 c 0
 407 491 455 481 500 461 c 2
 518 454 l 1
 486 358 l 1
 467 365 l 2
 435 376 401 382 360 382 c 0
 270 382 181 355 181 246 c 0
 181 138 257 96 371 96 c 0
 405 96 434 101 461 111 c 1
 480 118 l 1
 513 25 l 1
 495 19 l 2
 441 -2 387 -10 337 -10 c 0
 200 -10 63 43 63 231 c 0
EndSplineSet
EndChar

StartChar: t
Encoding: 116 116 19
Width: 458
VWidth: 1023
Flags: HW
HStem: -10 103<252 412> 9 94<319 409> 379 103<34 109 229 406>
VStem: 109 120<115 379 482 621>
LayerCount: 3
Back
SplineSet
409.18 8.78906 m 6
 352.539 -5.85938 316.895 -9.76562 289.062 -9.76562 c 4
 129.883 -9.76562 99.1211 69.3359 99.1211 154.785 c 6
 99.1211 379.395 l 5
 34.1797 379.395 l 5
 34.1797 482.422 l 5
 99.1211 482.422 l 5
 99.1211 620.605 l 5
 242.188 620.605 l 5
 242.188 482.422 l 5
 406.25 482.422 l 5
 406.25 379.395 l 5
 242.188 379.395 l 5
 242.188 163.086 l 6
 242.188 133.789 246.582 92.7734 318.359 92.7734 c 4
 331.055 92.7734 337.402 93.75 389.648 102.539 c 6
 408.691 105.957 l 5
 427.734 13.6719 l 5
 409.18 8.78906 l 6
EndSplineSet
Fore
SplineSet
409 9 m 6x70
 352 -6 317 -10 289 -10 c 4
 130 -10 109 70 109 155 c 6
 109 379 l 5
 34 379 l 5
 34 482 l 5
 109 482 l 5
 109 621 l 5
 229 621 l 5
 229 482 l 5
 406 482 l 5
 406 379 l 5
 229 379 l 5
 229 163 l 6
 229 134 246 93 318 93 c 4xb0
 331 93 338 94 390 103 c 5
 409 106 l 5
 428 14 l 5
 409 9 l 6x70
EndSplineSet
EndChar

StartChar: r
Encoding: 114 114 20
Width: 462
VWidth: 1023
Flags: HW
HStem: 0 10G<88 208> 383 108<215 432> 473 10G<88 173>
VStem: 88 120<0 368>
LayerCount: 3
Fore
SplineSet
182 457 m 5xb0
 226 478 283 492 345 492 c 4
 379 492 413 486 445 471 c 6
 462 463 l 5
 424 363 l 5
 405 370 l 6
 382 379 359 383 331 383 c 4xd0
 289 383 246 375 208 360 c 5
 208 0 l 5
 88 0 l 5
 88 482 l 5
 168 482 l 5
 182 457 l 5xb0
EndSplineSet
EndChar

StartChar: v
Encoding: 118 118 21
Width: 564
VWidth: 1023
Flags: HW
HStem: 0 10G<226 364> 473 10G<32 174 420 550>
LayerCount: 3
Back
SplineSet
448.242 482.422 m 5
 278.809 0 l 5
 200.684 0 l 5
 31.7383 482.422 l 5
 114.746 482.422 l 5
 239.746 79.5898 l 5
 365.234 482.422 l 5
 448.242 482.422 l 5
EndSplineSet
Fore
SplineSet
550 482 m 1
 360 0 l 1
 230 0 l 1
 32 482 l 1
 170 482 l 1
 298 127 l 1
 424 482 l 1
 550 482 l 1
EndSplineSet
EndChar

StartChar: k
Encoding: 107 107 22
Width: 604
VWidth: 1023
Flags: HW
HStem: 0 10G<88 208 435 592> 482 10G<428 584> 728 10G<88 208>
VStem: 88 120<0 240 289 738>
LayerCount: 3
Fore
SplineSet
208 289 m 1
 439 492 l 1
 584 492 l 1
 335 271 l 1
 592 0 l 1
 444 0 l 1
 208 240 l 1
 208 0 l 1
 88 0 l 1
 88 738 l 1
 208 738 l 1
 208 289 l 1
EndSplineSet
EndChar

StartChar: j
Encoding: 106 106 23
Width: 295
VWidth: 1023
Flags: HW
HStem: 473 10G<95 215> 562 132<87 222>
VStem: 87 135<562 694> 95 120<-125 482>
LayerCount: 3
Fore
SplineSet
87 694 m 1xe0
 222 694 l 1
 222 562 l 1
 87 562 l 1
 87 694 l 1xe0
95 482 m 1xd0
 215 482 l 1
 215 -47 l 2
 215 -109 210 -210 73 -260 c 1
 56 -266 l 1
 9 -171 l 1
 27 -162 l 2
 92 -131 95 -81 95 -55 c 2
 95 482 l 1xd0
EndSplineSet
EndChar

StartChar: x
Encoding: 120 120 24
Width: 595
VWidth: 1023
Flags: HW
HStem: 0 10G<38 180 436 586> 473 10G<32 182 453 596>
LayerCount: 3
Fore
SplineSet
32 482 m 1
 174 482 l 1
 320 306 l 1
 460 482 l 1
 596 482 l 1
 396 237 l 1
 586 0 l 1
 444 0 l 1
 305 166 l 1
 172 0 l 1
 38 0 l 1
 229 237 l 1
 32 482 l 1
EndSplineSet
EndChar

StartChar: z
Encoding: 122 122 25
Width: 606
VWidth: 1023
Flags: HW
HStem: 0 103<245 533> 379 103<73 345>
LayerCount: 3
Fore
SplineSet
73 482 m 1
 521 482 l 1
 521 420 l 1
 245 103 l 1
 533 103 l 1
 533 0 l 1
 73 0 l 1
 73 62 l 1
 345 379 l 1
 73 379 l 1
 73 482 l 1
EndSplineSet
EndChar

StartChar: y
Encoding: 121 121 26
Width: 597
VWidth: 1023
Flags: HW
HStem: 473 10G<24 166 462 592>
LayerCount: 3
Back
SplineSet
24.4141 482.422 m 5
 107.422 482.422 l 5
 261.719 73.2422 l 5
 405.273 482.422 l 5
 488.281 482.422 l 5
 209.961 -259.277 l 5
 124.512 -259.277 l 5
 223.633 -18.5547 l 5
 24.4141 482.422 l 5
EndSplineSet
Fore
SplineSet
24 482 m 1
 162 482 l 1
 321 112 l 1
 465 482 l 1
 592 482 l 1
 278 -259 l 1
 132 -259 l 1
 251 -4 l 1
 24 482 l 1
EndSplineSet
EndChar

StartChar: f
Encoding: 102 102 27
Width: 480
VWidth: 1023
Flags: HW
HStem: 0 10G<146 266> 379 103<66 146 266 458> 580 98<385 478> 591 107<296 480>
VStem: 146 120<0 379 482 563>
LayerCount: 3
Back
SplineSet
323.318 630.762 m 4
 210.623 630.762 216.771 541.855 216.797 528.32 c 6
 216.882 482.422 l 5
 378.418 482.422 l 5
 378.418 419.434 l 5
 216.998 419.434 l 5
 217.773 0 l 5
 136.719 0 l 5
 135.947 419.434 l 5
 65.918 419.434 l 5
 65.918 482.422 l 5
 135.832 482.422 l 5
 135.742 531.25 l 6
 135.74 532.319 135.738 533.389 135.738 534.458 c 4
 135.738 562.729 136.691 596.313 154.57 627.739 c 4
 180.199 672.788 231.644 697.729 296.711 697.729 c 4
 339.584 697.729 383.08 687.705 412.598 678.711 c 5
 400.391 619.141 l 5
 385.474 623.262 354.147 630.762 323.318 630.762 c 4
EndSplineSet
Fore
SplineSet
146 511 m 6xd8
 146 584 148 698 351 698 c 4xd8
 379 698 420 696 479 678 c 6
 496 672 l 5
 476 575 l 5
 456 580 l 6xe8
 442 583 412 591 383 591 c 4
 300 591 266 561 266 515 c 6
 266 482 l 5
 458 482 l 5
 458 379 l 5
 266 379 l 5
 266 0 l 5
 146 0 l 5
 146 379 l 5
 66 379 l 5
 66 482 l 5
 146 482 l 5
 146 511 l 6xd8
EndSplineSet
EndChar

StartChar: G
Encoding: 71 71 28
Width: 856
VWidth: 1023
Flags: HW
HStem: -10 114<397 628> 278 108<446 663> 586 113<384 630>
VStem: 105 124<255 446> 663 121<132 278>
LayerCount: 3
Fore
SplineSet
784 101 m 1
 758 73 679 -10 495 -10 c 0
 219 -10 105 175 105 346 c 0
 105 528 234 699 493 699 c 0
 596 699 683 671 742 638 c 1
 759 628 l 1
 708 531 l 1
 690 541 l 1
 651 561 576 586 498 586 c 0
 361 586 229 499 229 351 c 0
 229 207 350 104 516 104 c 0
 581 104 629 121 663 145 c 1
 663 278 l 1
 446 278 l 1
 446 386 l 1
 784 386 l 1
 784 101 l 1
EndSplineSet
EndChar

StartChar: H
Encoding: 72 72 29
Width: 861
VWidth: 1023
Flags: HW
HStem: 0 10G<142 265 636 759> 301 113<265 636> 684 10G<142 265 636 759>
VStem: 142 123<0 301 415 694> 636 123<0 301 415 694>
LayerCount: 3
Fore
SplineSet
636 694 m 1
 759 694 l 1
 759 0 l 1
 636 0 l 1
 636 301 l 1
 265 301 l 1
 265 0 l 1
 142 0 l 1
 142 694 l 1
 265 694 l 1
 265 415 l 1
 636 415 l 1
 636 694 l 1
EndSplineSet
EndChar

StartChar: g
Encoding: 103 103 30
Width: 654
VWidth: 1023
Flags: HW
HStem: -264 107<149 376> -10 106<257 445> 387 105<250 444> 473 10G<473 566>
VStem: 62 124<168 322> 446 120<-91 12 107 374>
LayerCount: 3
Back
SplineSet
286.684 492.041 m 4xec
 313.293 492.041 352.924 487.618 419.733 453.651 c 5
 430.176 482.422 l 5
 486.328 482.422 l 5xdc
 486.328 -23.4375 l 6
 486.328 -62.5078 491.895 -210.006 326.172 -254.395 c 4
 300.925 -261.156 274.907 -264.252 248.799 -264.252 c 4
 196.57 -264.252 144.227 -251.671 99.6094 -232.91 c 5
 122.07 -174.805 l 5
 163.115 -190.082 203.31 -197.343 238.229 -197.434 c 6
 238.88 -197.434 l 6
 286.901 -197.434 390.503 -182.414 404.046 -57.8594 c 4
 406.107 -38.9043 406.254 -19.8086 406.254 -0.730469 c 6
 406.25 23.25 l 5
 372.193 5.11621 327.293 -9.56543 278.64 -9.56543 c 4
 178.387 -9.56543 62.6016 55.1787 62.6016 239.893 c 4
 62.6016 435.66 205.028 492.041 286.684 492.041 c 4xec
291.559 427.169 m 4xec
 200.986 427.169 140.604 356.376 140.604 248.859 c 4
 140.604 143.656 193.689 56.3145 301.394 56.3145 c 4
 343.336 56.3145 380.688 70.2812 406.25 83.9062 c 5
 406.25 400.048 l 5
 341.643 426.57 302.857 427.169 291.559 427.169 c 4xec
EndSplineSet
Fore
SplineSet
332 492 m 0xec
 354 492 398 491 469 461 c 1
 476 482 l 1
 566 482 l 1xdc
 566 -10 l 2
 566 -124 516 -264 289 -264 c 0
 239 -264 174 -255 112 -231 c 1
 94 -224 l 1
 130 -129 l 1
 150 -136 l 1
 180 -146 226 -157 276 -157 c 0
 424 -157 446 -69 446 8 c 2
 446 12 l 1
 410 -1 369 -10 323 -10 c 0
 198 -10 62 56 62 240 c 0
 62 431 225 492 332 492 c 0xec
337 387 m 0xec
 247 387 187 333 187 248 c 0
 187 164 240 96 349 96 c 0
 387 96 420 105 446 114 c 1
 446 369 l 1
 396 384 359 387 337 387 c 0xec
EndSplineSet
EndChar

StartChar: O
Encoding: 79 79 31
Width: 903
VWidth: 1023
Flags: HW
HStem: -7 113<371 577> 588 113<364 570>
VStem: 105 126<249 460> 711 126<239 450>
LayerCount: 3
Fore
SplineSet
472 701 m 4
 684 701 837 568 837 354 c 4
 837 139 688 -7 468 -7 c 4
 280 -7 105 109 105 345 c 4
 105 562 257 701 472 701 c 4
467 588 m 4
 353 588 231 518 231 355 c 4
 231 201 339 105 475 105 c 4
 587 105 711 176 711 346 c 4
 711 518 580 588 467 588 c 4
EndSplineSet
EndChar

StartChar: A
Encoding: 65 65 32
Width: 755
VWidth: 1023
Flags: HW
HStem: 0 10G<63 187 617 748> 182 113<303 500> 684 10G<335 477>
LayerCount: 3
Fore
SplineSet
338 694 m 1
 473 694 l 1
 748 0 l 1
 621 0 l 1
 543 182 l 1
 260 182 l 1
 183 0 l 1
 63 0 l 1
 338 694 l 1
500 294 m 1
 402 552 l 1
 303 294 l 1
 500 294 l 1
EndSplineSet
EndChar

StartChar: L
Encoding: 76 76 33
Width: 633
VWidth: 1023
Flags: HW
HStem: 0 113<265 616> 684 10G<142 265>
VStem: 142 123<113 694>
LayerCount: 3
Fore
SplineSet
142 694 m 1
 265 694 l 1
 265 113 l 1
 616 113 l 1
 616 0 l 1
 142 0 l 1
 142 694 l 1
EndSplineSet
EndChar

StartChar: E
Encoding: 69 69 34
Width: 706
VWidth: 1023
Flags: HW
HStem: 0 113<265 628> 301 113<265 602> 581 113<265 628>
VStem: 142 124<113 301 414 581>
LayerCount: 3
Fore
SplineSet
142 0 m 1
 142 694 l 1
 628 694 l 1
 628 581 l 1
 265 581 l 1
 265 414 l 1
 602 414 l 1
 602 301 l 1
 265 301 l 1
 265 113 l 1
 628 113 l 1
 628 0 l 1
 142 0 l 1
EndSplineSet
EndChar

StartChar: F
Encoding: 70 70 35
Width: 689
VWidth: 1023
Flags: HW
HStem: 0 10G<142 265> 301 113<265 594> 581 113<265 624>
VStem: 142 124<0 301 414 581>
LayerCount: 3
Fore
SplineSet
265 581 m 1
 265 414 l 1
 594 414 l 1
 594 301 l 1
 265 301 l 1
 265 0 l 1
 142 0 l 1
 142 694 l 1
 624 694 l 1
 624 581 l 1
 265 581 l 1
EndSplineSet
EndChar

StartChar: N
Encoding: 78 78 36
Width: 890
VWidth: 1023
Flags: HW
HStem: 0 10G<142 265 643 788> 684 10G<142 284 665 788>
VStem: 142 123<0 534> 665 123<161 694>
LayerCount: 3
Fore
SplineSet
142 694 m 1
 277 694 l 1
 665 161 l 1
 665 694 l 1
 788 694 l 1
 788 0 l 1
 650 0 l 1
 265 534 l 1
 265 0 l 1
 142 0 l 1
 142 694 l 1
EndSplineSet
EndChar

StartChar: V
Encoding: 86 86 37
Width: 764
VWidth: 1023
Flags: HW
HStem: 0 10G<333 486> 684 10G<68 213 614 751>
LayerCount: 3
Fore
SplineSet
68 694 m 1
 209 694 l 1
 414 132 l 1
 617 694 l 1
 751 694 l 1
 482 0 l 1
 336 0 l 1
 68 694 l 1
EndSplineSet
EndChar

StartChar: Z
Encoding: 90 90 38
Width: 743
VWidth: 1023
Flags: HW
HStem: 0 113<252 714> 581 113<90 514>
LayerCount: 3
Fore
SplineSet
90 694 m 1
 701 694 l 1
 701 619 l 1
 252 113 l 1
 714 113 l 1
 714 0 l 1
 76 0 l 1
 76 76 l 1
 514 581 l 1
 90 581 l 1
 90 694 l 1
EndSplineSet
EndChar

StartChar: T
Encoding: 84 84 39
Width: 670
VWidth: 1023
Flags: HW
HStem: 0 10G<293 417> 581 113<42 293 417 668>
VStem: 293 123<0 581>
LayerCount: 3
Fore
SplineSet
42 694 m 5
 668 694 l 5
 668 581 l 5
 417 581 l 5
 417 0 l 5
 293 0 l 5
 293 581 l 5
 42 581 l 5
 42 694 l 5
EndSplineSet
EndChar

StartChar: I
Encoding: 73 73 40
Width: 396
VWidth: 1023
Flags: HW
HStem: 0 10G<156 279> 684 10G<156 279>
VStem: 156 123<0 694>
LayerCount: 3
Fore
SplineSet
156 694 m 1
 279 694 l 1
 279 0 l 1
 156 0 l 1
 156 694 l 1
EndSplineSet
EndChar

StartChar: X
Encoding: 88 88 41
Width: 748
VWidth: 1023
Flags: HW
HStem: 0 10G<54 212 606 769> 684 10G<84 240 591 742>
LayerCount: 3
Fore
SplineSet
598 694 m 1
 742 694 l 1
 498 363 l 1
 769 0 l 1
 613 0 l 1
 409 276 l 1
 205 0 l 1
 54 0 l 1
 329 362 l 1
 84 694 l 1
 232 694 l 1
 418 449 l 1
 598 694 l 1
EndSplineSet
EndChar

StartChar: Y
Encoding: 89 89 42
Width: 696
VWidth: 1023
Flags: HW
HStem: 0 10G<306 444> 684 10G<49 201 562 710>
VStem: 306 138<0 324>
LayerCount: 3
Fore
SplineSet
49 694 m 1
 194 694 l 1
 380 425 l 1
 569 694 l 1
 710 694 l 1
 444 324 l 1
 444 0 l 1
 306 0 l 1
 306 324 l 1
 49 694 l 1
EndSplineSet
EndChar

StartChar: K
Encoding: 75 75 43
Width: 771
VWidth: 1023
Flags: HW
HStem: 0 10G<142 265 587 756> 684 10G<142 265 571 739>
VStem: 142 123<0 336 376 694>
LayerCount: 3
Fore
SplineSet
265 376 m 1
 581 694 l 1
 739 694 l 1
 405 362 l 1
 756 0 l 1
 597 0 l 1
 265 336 l 1
 265 0 l 1
 142 0 l 1
 142 694 l 1
 265 694 l 1
 265 376 l 1
EndSplineSet
EndChar

StartChar: M
Encoding: 77 77 44
Width: 1000
VWidth: 1023
Flags: HW
HStem: 0 10G<142 265 774 897> 684 10G<142 297 750 897>
VStem: 142 123<0 519> 774 123<0 519>
LayerCount: 3
Fore
SplineSet
142 694 m 1
 291 694 l 1
 521 295 l 1
 755 694 l 1
 897 694 l 1
 897 0 l 1
 774 0 l 1
 774 519 l 1
 577 199 l 1
 461 199 l 1
 265 519 l 1
 265 0 l 1
 142 0 l 1
 142 694 l 1
EndSplineSet
EndChar

StartChar: hyphen
Encoding: 45 45 45
Width: 590
VWidth: 1023
Flags: HW
HStem: 268 108<65 525>
LayerCount: 3
Fore
SplineSet
65 375 m 1
 525 375 l 1
 525 268 l 1
 65 268 l 1
 65 375 l 1
EndSplineSet
EndChar

StartChar: J
Encoding: 74 74 46
Width: 545
VWidth: 1023
Flags: HW
HStem: -8 113<71 257> 9 108<73 158> 684 10G<323 446>
VStem: 323 123<164 694>
LayerCount: 3
Fore
SplineSet
323 694 m 1xb0
 446 694 l 1
 446 250 l 2
 446 141 418 -8 173 -8 c 0xb0
 139 -8 105 -4 72 4 c 2
 54 9 l 1
 74 117 l 1x70
 95 112 l 2
 116 107 138 105 159 105 c 0
 316 105 323 207 323 250 c 2
 323 694 l 1xb0
EndSplineSet
EndChar

StartChar: R
Encoding: 82 82 47
Width: 781
VWidth: 1023
Flags: HW
HStem: 0 10G<142 265 570 737> 269 113<265 382> 581 113<265 506>
VStem: 142 123<0 269 382 581> 551 128<424 543>
LayerCount: 3
Fore
SplineSet
679 495 m 0
 679 410 640 324 527 290 c 1
 737 0 l 1
 577 0 l 5
 382 269 l 1
 265 269 l 1
 265 0 l 1
 142 0 l 1
 142 694 l 1
 437 694 l 2
 521 694 679 681 679 495 c 0
265 581 m 1
 265 382 l 1
 378 382 l 2
 465 382 551 394 551 484 c 0
 551 549 501 581 401 581 c 2
 265 581 l 1
EndSplineSet
EndChar

StartChar: D
Encoding: 68 68 48
Width: 864
VWidth: 0
Flags: HW
HStem: 0 113<269 523> 581 113<269 522>
VStem: 146 123<113 581> 663 124<244 453>
LayerCount: 3
Back
SplineSet
141.602 693.848 m 5
 335.449 693.848 l 6
 388.852 693.848 706.079 709.16 706.079 367.926 c 4
 706.079 -20.4775 382.459 0 291.992 0 c 6
 141.602 0 l 5
 141.602 693.848 l 5
224.609 620.605 m 5
 224.609 73.2422 l 5
 325.684 73.2422 l 6
 438.754 73.2422 622.764 91.7266 622.764 351.336 c 4
 622.764 466.555 570.088 620.605 359.375 620.605 c 6
 224.609 620.605 l 5
EndSplineSet
Fore
SplineSet
395 581 m 2
 269 581 l 1
 269 113 l 1
 358 113 l 2
 443 113 566 116 629 221 c 0
 643 244 663 286 663 351 c 0
 663 499 554 564 462 577 c 0
 441 580 418 581 395 581 c 2
392 694 m 2
 706 694 786 520 786 367 c 0
 786 226 730 61 523 15 c 1
 457 0 390 0 325 0 c 2
 146 0 l 5
 146 694 l 5
 392 694 l 2
EndSplineSet
EndChar

StartChar: P
Encoding: 80 80 49
Width: 733
VWidth: 1023
Flags: HW
HStem: 0 10G<142 265> 268 113<265 497> 581 113<265 509>
VStem: 142 123<0 270 382 581> 556 125<427 542>
LayerCount: 3
Fore
SplineSet
142 694 m 1
 391 694 l 2
 491 694 682 690 682 499 c 0
 682 288 492 268 325 268 c 0
 304 268 285 269 265 270 c 1
 265 0 l 1
 142 0 l 1
 142 694 l 1
265 581 m 1
 265 383 l 1
 288 382 310 380 333 380 c 0
 450 380 556 389 556 485 c 0
 556 570 465 581 366 581 c 2
 265 581 l 1
EndSplineSet
EndChar

StartChar: B
Encoding: 66 66 50
Width: 775
VWidth: 1023
Flags: HW
HStem: 0 113<265 531> 320 78<265 453> 590 104<265 479>
VStem: 142 123<113 314 398 590> 521 136<446 556> 591 123<159 265>
LayerCount: 3
Fore
SplineSet
378 590 m 2xf8
 265 590 l 1
 265 398 l 1
 378 400 521 400 521 503 c 0
 521 538 502 590 378 590 c 2xf8
386 320 m 0
 374 320 361 318 265 314 c 1
 265 113 l 1
 374 113 l 2
 440 113 591 115 591 212 c 0xf4
 591 279 511 320 386 320 c 0
142 694 m 1
 406 694 l 2
 620 694 657 576 657 517 c 0xf8
 657 471 629 422 594 392 c 1
 667 362 714 294 714 218 c 0
 714 152 669 0 387 0 c 2
 142 0 l 1
 142 694 l 1
EndSplineSet
EndChar

StartChar: U
Encoding: 85 85 51
Width: 848
VWidth: 1023
Flags: HW
HStem: -10 112<335 551> 684 10G<142 265 623 745>
VStem: 142 123<166 694> 623 123<168 694>
LayerCount: 3
Back
SplineSet
141.602 693.848 m 5
 224.609 693.848 l 5
 224.609 244.141 l 6
 224.609 198.398 227.598 155.326 261.23 117.188 c 4
 276.926 99.3896 318.848 62.0117 405.273 62.0117 c 4
 496.265 62.0117 561.855 103.221 580.083 176.818 c 4
 585.513 198.742 585.938 221.554 585.938 244.141 c 6
 585.938 693.848 l 5
 668.945 693.848 l 5
 668.945 302.734 l 6
 668.945 280.773 669.727 258.656 669.727 236.623 c 4
 669.727 156.677 661.968 -10.2539 405.273 -10.2539 c 4
 203.904 -10.2539 161.146 97.8154 149.414 146.484 c 4
 142.311 175.951 140.818 206.203 140.818 236.613 c 4
 140.818 258.65 141.602 280.77 141.602 302.734 c 6
 141.602 693.848 l 5
EndSplineSet
Fore
SplineSet
444 -10 m 4
 146 -10 142 160 142 237 c 0
 142 239 142 241 142 243 c 6
 142 694 l 5
 265 694 l 5
 265 254 l 6
 265 212 269 177 300 147 c 4
 313 134 355 102 444 102 c 4
 536 102 599 135 616 195 c 4
 621 213 623 233 623 254 c 6
 623 694 l 5
 745 694 l 5
 745 250 746 295 746 250 c 4
 746 166 734 -10 444 -10 c 4
EndSplineSet
EndChar

StartChar: Q
Encoding: 81 81 52
Width: 913
VWidth: 1023
Flags: HW
HStem: -7 113<378 589> 588 113<364 570>
VStem: 105 126<246 460> 709 128<224 452>
LayerCount: 3
Fore
SplineSet
472 701 m 0
 694 701 837 561 837 346 c 0
 837 254 813 179 771 121 c 1
 860 37 l 1
 789 -36 l 1
 691 53 l 1
 622 8 543 -7 473 -7 c 0
 265 -7 105 121 105 344 c 0
 105 563 257 701 472 701 c 0
464 588 m 0
 355 588 231 520 231 353 c 0
 231 190 349 105 483 105 c 0
 534 105 574 118 599 131 c 1
 436 263 l 1
 522 338 l 1
 679 206 l 1
 699 240 709 282 709 335 c 0
 709 537 562 588 464 588 c 0
EndSplineSet
EndChar

StartChar: W
Encoding: 87 87 53
Width: 1177
VWidth: 1023
Flags: HW
HStem: 0 10G<294 419 775 900> 684 10G<68 201 555 675 1029 1162>
LayerCount: 3
Fore
SplineSet
68 694 m 1
 198 694 l 1
 358 161 l 1
 559 694 l 1
 672 694 l 1
 837 161 l 1
 1032 694 l 1
 1162 694 l 1
 896 0 l 1
 778 0 l 1
 611 531 l 1
 415 0 l 1
 297 0 l 1
 68 694 l 1
EndSplineSet
EndChar

StartChar: C
Encoding: 67 67 54
Width: 788
VWidth: 1023
Flags: HW
HStem: -10 116<422 678> 585 113<412 666>
VStem: 134 124<256 439>
LayerCount: 3
Fore
SplineSet
530 699 m 0
 590 699 664 689 737 660 c 1
 755 653 l 1
 717 547 l 1
 698 554 l 1
 618 581 562 585 527 585 c 0
 360 585 258 472 258 347 c 0
 258 218 367 106 547 106 c 0
 596 106 653 116 707 135 c 2
 725 141 l 1
 765 43 l 1
 747 36 l 2
 674 5 594 -10 523 -10 c 0
 273 -10 134 149 134 346 c 0
 134 546 280 699 530 699 c 0
EndSplineSet
EndChar

StartChar: S
Encoding: 83 83 55
Width: 744
VWidth: 1023
Flags: HW
HStem: -10 122<249 500> 558 114<547 627> 582 118<327 596>
VStem: 137 134<462 540> 550 132<154 238>
LayerCount: 3
Fore
SplineSet
453 700 m 0xb8
 534 700 606 683 645 671 c 2
 665 666 l 1
 625 552 l 1
 606 558 l 1xd8
 535 578 479 582 445 582 c 0
 352 582 271 549 271 499 c 0
 271 380 682 423 682 200 c 0
 682 106 601 -10 370 -10 c 0
 272 -10 202 13 135 39 c 1
 117 45 l 1
 159 164 l 1
 178 156 l 1
 271 123 339 112 381 112 c 0
 481 112 550 146 550 196 c 0
 550 328 137 272 137 493 c 0
 137 606 256 700 453 700 c 0xb8
EndSplineSet
EndChar

StartChar: at
Encoding: 64 64 56
Width: 1025
VWidth: 1023
Flags: HW
HStem: -229 109<385 609> -76 106<730 803> -30 103<454 604> 390 100<450 604> 584 119<406 679>
VStem: 68 122<87 354> 273 114<139 324> 605 116<83 382> 856 122<105 403>
LayerCount: 3
Fore
SplineSet
623 468 m 1xbf80
 632 493 l 1
 721 493 l 1
 721 123 l 2
 721 62 727 30 764 30 c 0
 790 30 856 70 856 249 c 0
 856 431 792 584 537 584 c 0
 257 584 190 360 190 214 c 0
 190 -6 341 -119 497 -119 c 0
 550 -119 594 -106 630 -88 c 1
 648 -80 l 1
 697 -173 l 1
 679 -182 l 2
 627 -209 562 -229 484 -229 c 0
 349 -229 68 -165 68 197 c 0
 68 429 171 703 558 703 c 0
 916 703 979 464 979 259 c 0
 979 -21 830 -76 754 -76 c 0xdf80
 696 -76 649 -46 625 -0 c 1
 583 -21 539 -30 502 -30 c 0
 372 -30 273 66 273 221 c 0
 273 378 370 490 515 490 c 0
 557 490 594 480 623 468 c 1xbf80
526 390 m 0
 446 390 388 335 388 232 c 0
 388 127 449 73 528 73 c 0xbf80
 551 73 578 78 605 91 c 1
 605 375 l 1
 584 383 556 390 526 390 c 0
EndSplineSet
EndChar

StartChar: question
Encoding: 63 63 57
Width: 510
VWidth: 1023
Flags: HW
HStem: -20 138<132 270> 612 110<82 289>
VStem: 132 138<-20 118> 139 123<171 270> 327 121<461 575>
LayerCount: 3
Fore
SplineSet
132 118 m 1xe8
 270 118 l 1
 270 -20 l 1
 132 -20 l 1
 132 118 l 1xe8
448 536 m 0
 448 328 262 355 262 191 c 2
 262 171 l 1
 139 171 l 1
 139 191 l 2xd8
 139 407 327 401 327 522 c 0
 327 556 307 612 193 612 c 0
 156 612 108 601 82 590 c 2
 63 583 l 1
 23 678 l 1
 40 687 l 2
 92 713 151 722 207 722 c 0
 353 722 448 661 448 536 c 0
EndSplineSet
EndChar

StartChar: eight
Encoding: 56 56 58
Width: 714
VWidth: 1023
Flags: HW
HStem: -10 113<266 456> 593 110<277 441>
VStem: 73 125<163 278> 112 127<471 558> 477 125<468 560> 515 126<156 276>
LayerCount: 3
Fore
SplineSet
354 593 m 0xd8
 286 593 240 554 240 516 c 0
 240 459 323 434 381 418 c 1
 447 455 477 478 477 511 c 0
 477 566 419 593 354 593 c 0xd8
515 214 m 0xe4
 515 294 435 330 341 354 c 1
 251 329 199 272 199 218 c 0
 199 160 260 104 365 104 c 0
 460 104 515 155 515 214 c 0xe4
354 703 m 0
 525 703 603 633 603 524 c 0xd8
 603 469 573 428 522 388 c 1
 605 343 642 278 642 208 c 0
 642 100 547 -10 360 -10 c 0
 195 -10 73 75 73 199 c 0xe4
 73 272 121 342 192 385 c 1
 126 430 112 491 112 526 c 0xd0
 112 623 199 703 354 703 c 0
EndSplineSet
EndChar

StartChar: nine
Encoding: 57 57 59
Width: 714
VWidth: 1023
Flags: HW
HStem: -7 113<138 363> 236 108<276 446> 595 108<275 432>
VStem: 83 120<406 526> 510 122<242 519>
LayerCount: 3
Fore
SplineSet
366 704 m 0
 479 704 631 654 631 404 c 0
 631 84 437 -7 212 -7 c 0
 189 -7 170 -6 149 -4 c 2
 129 -2 l 1
 139 110 l 1
 159 108 l 2
 176 106 192 105 210 105 c 0
 418 105 468 187 488 272 c 1
 442 247 389 236 339 236 c 0
 187 236 83 330 83 458 c 0
 83 591 195 704 366 704 c 0
354 595 m 0
 274 595 204 530 204 466 c 0
 204 397 278 344 360 344 c 0
 443 344 510 398 510 461 c 0
 510 523 440 595 354 595 c 0
EndSplineSet
EndChar

StartChar: six
Encoding: 54 54 60
Width: 714
VWidth: 1023
Flags: HW
HStem: -12 108<281 435> 367 108<267 440> 586 113<360 575>
VStem: 83 122<172 304> 510 120<168 305>
LayerCount: 3
Fore
SplineSet
501 699 m 0
 524 699 544 698 565 696 c 2
 584 694 l 1
 575 582 l 1
 555 583 l 2
 538 585 522 586 504 586 c 0
 313 586 250 513 226 438 c 1
 267 461 318 475 376 475 c 0
 531 475 630 380 630 245 c 0
 630 106 525 -12 349 -12 c 0
 235 -12 83 36 83 285 c 0
 83 608 276 699 501 699 c 0
354 367 m 0
 271 367 204 316 204 242 c 0
 204 170 270 96 360 96 c 0
 442 96 510 160 510 236 c 0
 510 317 435 367 354 367 c 0
EndSplineSet
EndChar

StartChar: seven
Encoding: 55 55 61
Width: 714
VWidth: 0
Flags: HW
HStem: 0 10G<138 285> 576 118<64 491>
LayerCount: 3
Fore
SplineSet
64 694 m 1
 651 694 l 1
 651 621 l 1
 279 0 l 1
 138 0 l 1
 491 576 l 1
 64 576 l 1
 64 694 l 1
EndSplineSet
EndChar

StartChar: five
Encoding: 53 53 62
Width: 714
VWidth: 1023
Flags: HW
HStem: -10 115<104 428> 343 114<245 429> 581 113<243 617>
VStem: 119 125<454 581> 512 128<168 281>
LayerCount: 3
Fore
SplineSet
119 694 m 1
 617 694 l 1
 617 581 l 1
 243 581 l 1
 243 454 l 1
 268 456 300 458 333 458 c 0
 583 458 640 321 640 231 c 0
 640 135 578 -10 299 -10 c 0
 225 -10 161 -3 104 8 c 2
 84 12 l 1
 108 125 l 1
 128 121 l 1
 172 112 231 105 292 105 c 0
 473 105 512 177 512 224 c 0
 512 269 470 343 302 343 c 0
 269 343 217 341 141 332 c 1
 119 329 l 1
 119 694 l 1
EndSplineSet
EndChar

StartChar: two
Encoding: 50 50 63
Width: 714
VWidth: 0
Flags: HW
HStem: 0 113<273 638> 587 112<204 440>
VStem: 499 126<449 537>
LayerCount: 3
Back
SplineSet
96.6797 644.043 m 5
 155.896 673.452 233.834 698.75 313.556 698.75 c 4
 453.259 698.75 540.112 617.007 540.112 520.049 c 4
 540.112 345.451 290.514 308.498 210.875 73.2422 c 5
 552.734 73.2422 l 5
 552.734 0 l 5
 109.863 0 l 5
 109.863 45.4102 l 5
 185.488 281.876 380.651 378.309 430.302 442.562 c 4
 441.684 457.291 453.467 477.879 453.467 505.4 c 4
 453.467 571.147 383.816 627.061 297.678 627.061 c 4
 256.503 627.061 214.643 613.662 194.74 607.529 c 6
 115.723 582.031 l 5
 96.6797 644.043 l 5
EndSplineSet
Fore
SplineSet
115 64 m 1
 211 345 499 397 499 492 c 0
 499 541 432 587 342 587 c 0
 291 587 233 577 148 548 c 2
 129 542 l 1
 92 642 l 1
 109 650 l 1
 174 678 263 699 360 699 c 0
 527 699 625 616 625 513 c 0
 625 344 376 306 273 113 c 1
 638 113 l 1
 638 0 l 1
 115 0 l 1
 115 64 l 1
EndSplineSet
EndChar

StartChar: three
Encoding: 51 51 64
Width: 714
VWidth: 1023
Flags: HW
HStem: -22 117<163 422> 314 111<240 403> 587 115<205 425>
VStem: 461 129<470 555> 496 125<154 256>
LayerCount: 3
Fore
SplineSet
116 650 m 2xf0
 162 673 245 702 340 702 c 0
 490 702 591 629 591 527 c 0xf0
 591 466 562 413 514 381 c 1
 591 347 621 287 621 220 c 0
 621 75 497 -22 306 -22 c 0
 239 -22 170 -10 104 17 c 2
 86 24 l 1
 122 127 l 1
 140 123 l 2
 225 101 271 95 307 95 c 0
 409 95 496 139 496 205 c 0xe8
 496 248 457 314 263 314 c 2
 240 314 l 1
 240 425 l 1
 263 425 l 2
 422 425 461 479 461 514 c 0
 461 556 409 587 328 587 c 0
 293 587 234 580 161 548 c 1
 142 540 l 1
 100 642 l 1
 116 650 l 2xf0
EndSplineSet
EndChar

StartChar: one
Encoding: 49 49 65
Width: 714
VWidth: 0
Flags: HW
HStem: 0 113<149 324 465 633> 684 10G<298 465>
VStem: 324 141<113 573>
LayerCount: 3
Fore
SplineSet
325 694 m 1
 465 694 l 1
 465 113 l 1
 633 113 l 1
 633 0 l 1
 149 0 l 1
 149 113 l 1
 324 113 l 1
 324 573 l 1
 169 520 l 1
 122 621 l 1
 325 694 l 1
EndSplineSet
EndChar

StartChar: zero
Encoding: 48 48 66
Width: 714
VWidth: 1023
Flags: HW
HStem: -10 113<281 435> 588 115<278 436>
VStem: 54 123<227 475> 538 123<226 469>
LayerCount: 3
Fore
SplineSet
357 588 m 0
 285 588 177 535 177 355 c 0
 177 159 285 104 358 104 c 0
 430 104 538 159 538 352 c 0
 538 535 430 588 357 588 c 0
357 703 m 0
 486 703 661 624 661 354 c 0
 661 72 487 -10 358 -10 c 0
 228 -10 54 74 54 355 c 0
 54 624 229 703 357 703 c 0
EndSplineSet
EndChar

StartChar: four
Encoding: 52 52 67
Width: 754
VWidth: 0
Flags: HW
HStem: 0 10G<415 535> 148 113<213 400 535 656> 684 10G<362 535>
VStem: 400 135<261 542> 415 120<0 148>
LayerCount: 3
Fore
SplineSet
369 694 m 1xe8
 535 694 l 1xe8
 535 261 l 1xf0
 656 261 l 1
 656 148 l 1
 535 148 l 1
 535 0 l 1
 415 0 l 1
 415 148 l 1
 59 148 l 1
 59 225 l 1
 369 694 l 1xe8
400 261 m 1xf0
 400 542 l 1
 213 261 l 1
 400 261 l 1xf0
EndSplineSet
EndChar

StartChar: period
Encoding: 46 46 68
Width: 278
VWidth: 1023
Flags: HW
HStem: -20 143<68 210>
VStem: 68 143<-20 123>
LayerCount: 3
Fore
SplineSet
68 123 m 1
 210 123 l 1
 210 -20 l 1
 68 -20 l 1
 68 123 l 1
EndSplineSet
EndChar

StartChar: comma
Encoding: 44 44 69
Width: 278
VWidth: 1023
Flags: HW
HStem: -127 230<84 122>
VStem: -9 225
LayerCount: 3
Fore
SplineSet
84 103 m 1
 215 103 l 1
 122 -127 l 1
 -9 -127 l 1
 84 103 l 1
EndSplineSet
EndChar

StartChar: bracketleft
Encoding: 91 91 70
Width: 384
VWidth: 1023
Flags: HW
HStem: -220 113<222 366> 645 113<222 366>
VStem: 102 264<-220 -107 645 758> 102 120<-107 645>
LayerCount: 3
Fore
SplineSet
102 758 m 1xe0
 366 758 l 1
 366 645 l 1xe0
 222 645 l 1
 222 -107 l 1xd0
 366 -107 l 1
 366 -220 l 1
 102 -220 l 1
 102 758 l 1xe0
EndSplineSet
EndChar

StartChar: bracketright
Encoding: 93 93 71
Width: 379
VWidth: 1023
Flags: HW
HStem: -220 113<19 163> 645 113<19 163>
VStem: 19 264<-220 -107 645 758> 163 120<-107 645>
LayerCount: 3
Fore
SplineSet
19 758 m 5xe0
 283 758 l 5
 283 -220 l 5
 19 -220 l 5
 19 -107 l 5xe0
 163 -107 l 5
 163 645 l 5xd0
 19 645 l 5
 19 758 l 5xe0
EndSplineSet
EndChar

StartChar: parenleft
Encoding: 40 40 72
Width: 362
VWidth: 1023
Flags: HW
VStem: 87 125<111 450>
LayerCount: 3
Fore
SplineSet
251 782 m 1
 351 730 l 1
 340 712 l 2
 277 607 213 453 213 280 c 0
 213 109 277 -44 340 -148 c 1
 351 -165 l 1
 254 -227 l 1
 243 -209 l 2
 177 -100 87 85 87 281 c 0
 87 475 176 657 242 766 c 2
 251 782 l 1
EndSplineSet
EndChar

StartChar: parenright
Encoding: 41 41 73
Width: 362
VWidth: 1023
Flags: HW
VStem: 149 125<110 450>
LayerCount: 3
Fore
SplineSet
275 281 m 0
 275 83 183 -104 119 -209 c 2
 108 -227 l 1
 12 -165 l 1
 22 -148 l 1
 85 -44 149 109 149 280 c 0
 149 453 84 608 22 712 c 2
 11 730 l 1
 111 782 l 1
 121 766 l 2
 187 657 275 475 275 281 c 0
EndSplineSet
EndChar

StartChar: slash
Encoding: 47 47 74
Width: 354
VWidth: 1023
Flags: HW
LayerCount: 3
Fore
SplineSet
247 714 m 1
 373 714 l 1
 117 -64 l 1
 -8 -64 l 1
 247 714 l 1
EndSplineSet
EndChar

StartChar: backslash
Encoding: 92 92 75
Width: 354
VWidth: 1023
Flags: HW
LayerCount: 3
Fore
SplineSet
-18 714 m 1
 107 714 l 1
 363 -64 l 1
 237 -64 l 1
 -18 714 l 1
EndSplineSet
EndChar

StartChar: plus
Encoding: 43 43 76
Width: 683
VWidth: 1023
Flags: HW
HStem: 268 107<41 286 398 643>
VStem: 286 112<21 268 375 622>
LayerCount: 3
Fore
SplineSet
286 622 m 1
 398 622 l 1
 398 375 l 1
 643 375 l 1
 643 268 l 1
 398 268 l 1
 398 21 l 1
 286 21 l 1
 286 268 l 1
 41 268 l 1
 41 375 l 1
 286 375 l 1
 286 622 l 1
EndSplineSet
EndChar

StartChar: asterisk
Encoding: 42 42 77
Width: 583
VWidth: 1023
Flags: HW
LayerCount: 3
Fore
SplineSet
229 714 m 1
 354 714 l 1
 347 577 l 1
 461 652 l 1
 524 543 l 1
 402 482 l 1
 524 420 l 1
 461 311 l 1
 347 386 l 1
 354 250 l 1
 229 250 l 1
 237 386 l 1
 123 311 l 1
 60 420 l 1
 183 482 l 1
 60 543 l 1
 123 652 l 1
 237 577 l 1
 229 714 l 1
EndSplineSet
EndChar

StartChar: numbersign
Encoding: 35 35 78
Width: 684
VWidth: 1023
Flags: HW
HStem: 165 113<3 157 275 410 528 683> 410 113<2 157 275 410 528 683>
VStem: 157 118<-35 165 278 410 523 714> 410 118<-35 165 278 410 523 714>
LayerCount: 3
Fore
SplineSet
157 714 m 1
 275 714 l 1
 275 523 l 1
 410 523 l 1
 410 714 l 1
 528 714 l 1
 528 523 l 1
 683 523 l 1
 683 410 l 1
 528 410 l 1
 528 278 l 1
 683 278 l 1
 683 165 l 1
 528 165 l 1
 528 -35 l 1
 410 -35 l 1
 410 165 l 1
 275 165 l 1
 275 -35 l 1
 157 -35 l 1
 157 165 l 1
 3 165 l 1
 3 278 l 1
 157 278 l 1
 157 410 l 1
 2 410 l 1
 2 523 l 1
 157 523 l 1
 157 714 l 1
275 410 m 1
 275 278 l 1
 410 278 l 1
 410 410 l 1
 275 410 l 1
EndSplineSet
EndChar

StartChar: dollar
Encoding: 36 36 79
Width: 666
VWidth: 1023
Flags: HW
HStem: 104 97<191 285 406 424> 520 97<406 516>
VStem: 128 127<448 499> 285 122<-32 105 617 738> 441 129<220 279>
LayerCount: 3
Fore
SplineSet
255 473 m 0
 255 412 570 422 570 265 c 0
 570 209 538 131 406 109 c 1
 406 -32 l 1
 285 -32 l 1
 285 104 l 1
 239 106 187 117 129 139 c 2
 111 146 l 1
 147 239 l 1
 167 232 l 1
 228 208 262 201 310 201 c 0
 409 201 441 220 441 256 c 1
 436 319 128 297 128 463 c 0
 128 513 163 584 285 608 c 1
 285 738 l 1
 406 738 l 1
 406 617 l 1
 461 616 486 610 529 598 c 2
 549 592 l 1
 516 499 l 1
 498 503 l 1
 466 511 431 520 374 520 c 0
 289 520 255 493 255 473 c 0
EndSplineSet
EndChar

StartChar: semicolon
Encoding: 59 59 80
Width: 278
VWidth: 1023
Flags: HW
HStem: 362 143<68 210>
VStem: 68 143<362 505>
LayerCount: 3
Fore
SplineSet
84 103 m 1
 215 103 l 1
 122 -127 l 1
 -9 -127 l 1
 84 103 l 1
68 505 m 1
 210 505 l 1
 210 362 l 1
 68 362 l 1
 68 505 l 1
EndSplineSet
EndChar

StartChar: colon
Encoding: 58 58 81
Width: 278
VWidth: 1023
Flags: HW
HStem: -20 143<68 210> 362 143<68 210>
VStem: 68 143<-20 123 362 505>
LayerCount: 3
Fore
SplineSet
68 123 m 1
 210 123 l 1
 210 -20 l 1
 68 -20 l 1
 68 123 l 1
68 505 m 1
 210 505 l 1
 210 362 l 1
 68 362 l 1
 68 505 l 1
EndSplineSet
EndChar

StartChar: equal
Encoding: 61 61 82
Width: 683
VWidth: 1023
Flags: HW
HStem: 151 113<87 596> 373 113<87 596>
LayerCount: 3
Fore
SplineSet
87 265 m 1
 596 265 l 1
 596 151 l 1
 87 151 l 1
 87 265 l 1
87 486 m 1
 596 486 l 1
 596 373 l 1
 87 373 l 1
 87 486 l 1
EndSplineSet
EndChar

StartChar: quotedbl
Encoding: 34 34 83
Width: 388
VWidth: 1023
Flags: HW
HStem: 509 249<34 164 224 354>
VStem: 34 130<509 758> 224 130<509 758>
LayerCount: 3
Fore
SplineSet
224 758 m 1
 354 758 l 1
 354 509 l 1
 224 509 l 1
 224 758 l 1
34 758 m 1
 164 758 l 1
 164 509 l 1
 34 509 l 1
 34 758 l 1
EndSplineSet
EndChar

StartChar: quotesingle
Encoding: 39 39 84
Width: 197
VWidth: 1023
Flags: HW
HStem: 509 249<34 164>
VStem: 34 130<509 758>
LayerCount: 3
Fore
SplineSet
34 758 m 1
 164 758 l 1
 164 509 l 1
 34 509 l 1
 34 758 l 1
EndSplineSet
EndChar

StartChar: underscore
Encoding: 95 95 85
Width: 566
VWidth: 1023
Flags: HW
HStem: -20 113<53 513>
LayerCount: 3
Fore
SplineSet
53 93 m 1
 513 93 l 1
 513 -20 l 1
 53 -20 l 1
 53 93 l 1
EndSplineSet
EndChar

StartChar: percent
Encoding: 37 37 86
Width: 729
VWidth: 1023
Flags: HW
HStem: 0 10G<42 182> 12 85<518 593> 237 87<517 593> 374 86<165 238> 599 86<163 240> 684 10G<573 713>
VStem: 66 88<469 591> 249 97<469 590> 411 96<107 229> 603 88<107 228>
LayerCount: 3
Fore
SplineSet
201 599 m 0xfbc0
 163 599 154 567 154 534 c 0
 154 497 162 459 201 459 c 0
 239 459 249 495 249 532 c 0
 249 593 221 599 201 599 c 0xfbc0
201 686 m 0
 261 686 346 657 346 533 c 0
 346 434 283 374 201 374 c 0
 133 374 66 413 66 534 c 0
 66 636 131 686 201 686 c 0
555 237 m 0
 517 237 507 205 507 172 c 0
 507 135 516 98 555 98 c 0
 593 98 603 133 603 170 c 0
 603 231 575 237 555 237 c 0
555 324 m 0
 615 324 690 293 690 171 c 0
 690 72 633 12 555 12 c 0
 484 12 411 51 411 172 c 0
 411 274 482 324 555 324 c 0
581 694 m 1xf7c0
 713 694 l 1
 174 0 l 1
 42 0 l 1
 581 694 l 1xf7c0
EndSplineSet
EndChar

StartChar: braceright
Encoding: 125 125 87
Width: 404
VWidth: 1023
Flags: HW
LayerCount: 3
Fore
SplineSet
255 529 m 4
 257 502 259 475 262 450 c 4
 273 366 317 329 364 321 c 5
 380 319 l 5
 380 217 l 5
 364 215 l 6
 347 212 330 205 316 195 c 4
 254 150 262 69 255 1 c 4
 236 -186 104 -218 58 -221 c 5
 41 -223 l 5
 18 -121 l 5
 40 -118 l 6
 73 -114 100 -93 116 -69 c 4
 170 14 112 174 223 268 c 5
 113 362 171 521 116 605 c 4
 100 629 73 651 40 655 c 6
 18 658 l 5
 41 759 l 5
 58 758 l 6
 112 754 237 718 255 529 c 4
EndSplineSet
EndChar

StartChar: asciitilde
Encoding: 126 126 88
Width: 683
VWidth: 1023
Flags: HW
HStem: 585 99<398 445> 674 99<258 305>
VStem: 150 93<595 668> 457 92<688 763>
LayerCount: 3
Fore
SplineSet
428 684 m 0xb0
 446 684 451 723 457 758 c 2
 460 777 l 1
 553 763 l 1
 549 742 l 1
 538 687 528 585 431 585 c 1xb0
 341 589 301 674 275 674 c 0
 257 674 252 636 246 603 c 2
 243 583 l 1
 150 596 l 1
 154 617 l 2
 165 672 175 773 272 773 c 1x70
 362 769 403 684 428 684 c 0xb0
EndSplineSet
EndChar

StartChar: grave
Encoding: 96 96 89
Width: 547
VWidth: 1023
Flags: HW
HStem: 543 259
LayerCount: 3
Fore
SplineSet
162 802 m 1
 442 630 l 1
 391 543 l 1
 106 707 l 1
 162 802 l 1
EndSplineSet
EndChar

StartChar: asciicircum
Encoding: 94 94 90
Width: 722
VWidth: 1023
Flags: HW
HStem: 541 241
VStem: 188 319
LayerCount: 3
Fore
SplineSet
354 782 m 1
 507 612 l 1
 433 541 l 1
 348 636 l 1
 261 542 l 1
 188 607 l 1
 354 782 l 1
EndSplineSet
EndChar

StartChar: ampersand
Encoding: 38 38 91
Width: 775
VWidth: 1023
Flags: HW
HStem: -43 112<224 366> 613 110<275 391>
VStem: 68 122<104 222> 127 122<497 587> 407 121<512 598>
LayerCount: 3
Fore
SplineSet
528 574 m 0xd8
 528 486 449 426 385 375 c 1
 525 225 l 1
 683 397 l 1
 756 323 l 1
 599 147 l 1
 756 -20 l 1
 602 -20 l 1
 515 70 l 1
 463 21 386 -43 262 -43 c 0
 139 -43 68 37 68 138 c 0xe8
 68 261 165 339 216 378 c 1
 172 423 127 475 127 548 c 0
 127 653 226 723 345 723 c 0
 455 723 528 659 528 574 c 0xd8
337 613 m 0
 287 613 249 579 249 544 c 0xd8
 249 512 276 489 312 452 c 1
 372 498 407 522 407 558 c 0
 407 584 382 613 337 613 c 0
292 301 m 1
 237 258 189 218 189 160 c 0xe8
 189 111 231 69 290 69 c 0
 351 69 401 109 440 146 c 1
 292 301 l 1
EndSplineSet
EndChar

StartChar: less
Encoding: 60 60 92
Width: 523
VWidth: 1023
Flags: HW
LayerCount: 3
Fore
SplineSet
495 583 m 1
 495 463 l 1
 179 304 l 1
 495 152 l 1
 495 27 l 1
 29 248 l 1
 29 354 l 1
 495 583 l 1
EndSplineSet
EndChar

StartChar: greater
Encoding: 62 62 93
Width: 523
VWidth: 1023
Flags: HW
LayerCount: 3
Fore
SplineSet
29 583 m 1
 495 354 l 1
 495 248 l 1
 29 27 l 1
 29 152 l 1
 345 304 l 1
 29 463 l 1
 29 583 l 1
EndSplineSet
EndChar

StartChar: braceleft
Encoding: 123 123 94
Width: 404
VWidth: 1023
Flags: HW
LayerCount: 3
Back
SplineSet
43.9453 302.246 m 5
 99.6973 311.622 150.392 354.225 162.771 447.896 c 4
 166.273 474.408 166.975 501.206 169.434 527.832 c 4
 186.06 707.827 304.289 734.995 347.656 738.281 c 5
 362.305 675.293 l 5
 325.494 670.21 291.863 647.773 271.484 616.699 c 4
 208.237 520.254 278.531 353.778 147.328 268.599 c 5
 278.488 183.775 209.525 16.2109 271.484 -79.1016 c 4
 291.751 -110.277 325.446 -132.784 362.305 -137.695 c 5
 347.656 -200.684 l 5
 309.929 -197.559 187.201 -172.471 169.434 3.41797 c 4
 162.809 68.998 170.144 160.436 99.7871 211.615 c 4
 83.3301 223.586 64.04 231.648 43.9453 234.863 c 5
 43.9453 302.246 l 5
  Spiro
    43.9453 302.246 v
    96.731 323.325 o
    138.886 370.648 o
    162.771 447.897 o
    165.506 474.46 o
    167.394 501.191 o
    169.434 527.832 o
    213.327 661.567 o
    285.945 722.29 o
    347.656 738.281 v
    362.305 675.293 v
    326.96 664.766 o
    295.879 644.546 o
    271.484 616.699 o
    240.354 502.642 o
    223.74 375.15 o
    147.328 268.599 v
    224.007 162.059 o
    240.917 34.4282 o
    271.484 -79.1016 o
    295.819 -107.033 o
    326.915 -127.265 o
    362.305 -137.695 v
    347.656 -200.684 v
    288.704 -185.498 o
    215.085 -126.886 o
    169.434 3.41797 o
    164.075 75.0933 o
    147.612 149.536 o
    99.7871 211.615 o
    82.479 222.239 o
    63.6772 230.074 o
    43.9453 234.863 v
    0 0 z
  EndSpiro
EndSplineSet
Fore
SplineSet
143 450 m 0
 146 475 147 502 149 529 c 0
 167 719 293 754 346 758 c 2
 363 759 l 1
 387 658 l 1
 365 655 l 2
 332 651 304 629 288 605 c 0
 233 521 291 362 181 268 c 1
 292 174 234 14 288 -69 c 0
 304 -93 332 -114 365 -118 c 2
 387 -121 l 1
 363 -223 l 1
 346 -221 l 1
 300 -218 168 -186 149 1 c 0
 142 69 150 150 88 195 c 0
 74 205 58 212 41 215 c 2
 24 217 l 1
 24 319 l 1
 41 321 l 1
 88 329 132 366 143 450 c 0
EndSplineSet
EndChar

StartChar: sterling
Encoding: 163 163 95
Width: 634
VWidth: 1023
Flags: HW
HStem: -20 106<54 173 293 581> 303 106<87 173 293 552> 601 98<443 537> 612 106<352 541>
VStem: 173 120<86 303 409 550>
LayerCount: 3
Fore
SplineSet
173 86 m 1xd8
 173 303 l 1
 87 303 l 1
 87 409 l 1
 173 409 l 1
 173 458 l 2
 173 662 310 719 431 719 c 0xd8
 473 719 514 711 551 699 c 2
 572 693 l 1
 534 597 l 1
 517 601 l 2xe8
 493 607 466 612 441 612 c 0
 317 612 293 537 293 445 c 2
 293 409 l 1
 552 409 l 1
 552 303 l 1
 293 303 l 1
 293 86 l 1
 581 86 l 1
 581 -20 l 1
 54 -20 l 1
 54 86 l 1
 173 86 l 1xd8
EndSplineSet
EndChar

StartChar: exclamdown
Encoding: 161 161 96
Width: 317
VWidth: 1023
Flags: HW
HStem: 527 138<90 228>
VStem: 90 138<527 665> 97 123<-220 441>
LayerCount: 3
Fore
SplineSet
97 441 m 1xa0
 220 441 l 1
 220 -220 l 1
 97 -220 l 1
 97 441 l 1xa0
90 665 m 1xc0
 228 665 l 1
 228 527 l 1
 90 527 l 1
 90 665 l 1xc0
EndSplineSet
EndChar

StartChar: cent
Encoding: 162 162 97
Width: 498
VWidth: 1023
Flags: HW
HStem: -52 248<247 344> 93 103<344 429> 518 240<246 344>
VStem: 53 118<268 459> 245 99<-52 95 622 758>
LayerCount: 3
Fore
SplineSet
245 620 m 1xb8
 245 758 l 1
 344 758 l 1
 344 625 l 1
 386 621 425 607 450 596 c 2
 467 589 l 1
 436 494 l 1
 417 500 l 2
 385 511 351 518 317 518 c 0
 218 518 171 462 171 365 c 0
 171 224 258 196 327 196 c 0xb8
 355 196 384 201 411 211 c 1
 430 217 l 1
 462 125 l 1
 444 118 l 2
 413 106 379 96 344 93 c 1x78
 344 -52 l 1
 245 -52 l 1
 245 95 l 1
 139 114 53 191 53 348 c 0
 53 491 121 594 245 620 c 1xb8
EndSplineSet
EndChar

StartChar: currency
Encoding: 164 164 98
Width: 634
Flags: HW
HStem: 173 109<264 370> 442 109<264 370>
VStem: 128 111<307 417> 395 111<307 417>
LayerCount: 3
Fore
SplineSet
398 532 m 1
 483 617 l 1
 572 527 l 1
 487 443 l 1
 501 415 506 386 506 362 c 0
 506 334 500 306 488 281 c 1
 572 197 l 1
 482 108 l 1
 398 192 l 1
 373 180 345 173 317 173 c 0
 293 173 264 177 236 191 c 1
 152 107 l 1
 62 196 l 1
 147 281 l 1
 133 309 128 338 128 362 c 0
 128 390 135 418 147 443 c 1
 62 528 l 1
 151 618 l 1
 237 532 l 1
 265 546 293 551 317 551 c 0
 345 551 373 544 398 532 c 1
317 442 m 0
 275 442 240 407 240 362 c 0
 240 318 274 282 317 282 c 0
 359 282 395 318 395 362 c 0
 395 407 359 442 317 442 c 0
EndSplineSet
EndChar

StartChar: yen
Encoding: 165 165 99
Width: 634
VWidth: 1023
Flags: HW
HStem: 102 101<121 255 373 514> 260 101<121 237 392 514>
VStem: 255 118<-20 102 203 260>
LayerCount: 3
Fore
SplineSet
35 714 m 1
 172 714 l 1
 318 441 l 1
 468 714 l 1
 600 714 l 1
 392 361 l 1
 514 361 l 1
 514 260 l 1
 373 260 l 1
 373 203 l 1
 514 203 l 1
 514 102 l 1
 373 102 l 1
 373 -20 l 1
 255 -20 l 1
 255 102 l 1
 121 102 l 1
 121 203 l 1
 255 203 l 1
 255 260 l 1
 121 260 l 1
 121 361 l 1
 237 361 l 1
 35 714 l 1
EndSplineSet
EndChar

StartChar: brokenbar
Encoding: 166 166 100
Width: 431
VWidth: 1023
Flags: HW
VStem: 156 120<-170 245 389 802>
LayerCount: 3
Fore
SplineSet
156 245 m 1
 276 245 l 1
 276 -170 l 1
 156 -170 l 1
 156 245 l 1
156 802 m 1
 276 802 l 1
 276 389 l 1
 156 389 l 1
 156 802 l 1
EndSplineSet
EndChar

StartChar: section
Encoding: 167 167 101
Width: 554
VWidth: 1023
Flags: HW
HStem: -30 103<128 343> 596 102<321 443> 614 106<224 445>
VStem: 75 127<348 401 530 595> 364 132<94 170 295 355>
LayerCount: 3
Fore
SplineSet
456 698 m 2xd8
 476 693 l 1
 441 590 l 1
 422 596 l 2xd8
 388 607 345 614 306 614 c 0
 245 614 203 593 203 561 c 0
 203 485 496 498 496 333 c 0
 496 303 488 266 463 233 c 1
 494 199 496 164 496 149 c 0
 496 77 448 -30 256 -30 c 2
 250 -30 l 2
 213 -30 152 -29 71 3 c 1
 53 11 l 1
 89 108 l 1
 107 102 l 1
 162 82 212 73 249 73 c 0
 335 73 364 100 364 140 c 0
 364 219 75 187 75 367 c 0
 75 394 85 429 110 460 c 1
 86 485 75 516 75 550 c 0
 75 618 132 720 318 720 c 0xb8
 386 720 420 708 456 698 c 2xd8
212 402 m 1
 203 391 203 380 203 376 c 0
 203 337 283 320 356 294 c 1
 360 300 364 310 364 323 c 0
 364 365 286 377 212 402 c 1
EndSplineSet
EndChar

StartChar: copyright
Encoding: 169 169 102
Width: 859
VWidth: 1023
Flags: HW
HStem: -27 104<328 532> 136 87<385 541> 445 90<380 542> 589 104<327 532>
VStem: 63 105<236 431> 253 96<260 413> 691 105<236 431>
LayerCount: 3
Fore
SplineSet
549 512 m 2
 565 505 l 1
 538 426 l 1
 519 433 l 1
 496 441 473 445 449 445 c 0
 370 445 350 395 350 339 c 0
 350 279 371 223 455 223 c 0
 475 223 496 227 516 234 c 2
 534 240 l 1
 562 163 l 1
 544 156 l 2
 510 143 474 136 437 136 c 0
 354 136 253 180 253 329 c 0
 253 484 354 535 442 535 c 0
 479 535 516 527 549 512 c 2
430 589 m 0
 283 589 168 471 168 333 c 0
 168 195 283 78 430 78 c 0
 577 78 691 195 691 333 c 0
 691 471 577 589 430 589 c 0
796 333 m 0
 796 139 636 -27 430 -27 c 0
 224 -27 63 138 63 333 c 0
 63 524 221 694 430 694 c 0
 636 694 796 527 796 333 c 0
EndSplineSet
EndChar

StartChar: guillemotleft
Encoding: 171 171 103
Width: 526
VWidth: 1023
Flags: HW
LayerCount: 3
Fore
SplineSet
381 502 m 5
 521 502 l 5
 373 304 l 5
 521 106 l 5
 381 106 l 5
 242 304 l 5
 381 502 l 5
151 502 m 5
 292 502 l 5
 143 304 l 5
 292 106 l 5
 151 106 l 5
 12 304 l 5
 151 502 l 5
EndSplineSet
EndChar

StartChar: guillemotright
Encoding: 187 187 104
Width: 526
VWidth: 1023
Flags: HW
LayerCount: 3
Fore
SplineSet
5 502 m 1
 146 502 l 1
 284 304 l 1
 146 106 l 1
 5 106 l 1
 154 304 l 1
 5 502 l 1
235 502 m 1
 375 502 l 1
 514 304 l 1
 375 106 l 1
 235 106 l 1
 384 304 l 1
 235 502 l 1
EndSplineSet
EndChar

StartChar: registered
Encoding: 174 174 105
Width: 601
VWidth: 1023
Flags: HW
HStem: 244 79<213 388> 468 62<266 301> 593 63<266 347> 696 79<214 387>
VStem: 32 79<426 594> 196 70<367 468 530 593> 348 67<533 590> 491 79<423 594>
LayerCount: 3
Fore
SplineSet
301 593 m 2
 266 593 l 1
 266 530 l 1
 291 530 283 530 298 530 c 0
 335 530 348 539 348 560 c 0
 348 586 333 593 301 593 c 2
317 657 m 2
 396 657 416 608 416 565 c 0
 416 537 407 500 369 481 c 1
 426 369 l 1
 467 404 491 454 491 509 c 0
 491 609 408 696 301 696 c 0
 195 696 110 610 110 509 c 0
 110 409 194 323 301 323 c 0
 348 323 390 340 423 367 c 1
 350 367 l 1
 301 468 l 1
 266 468 l 1
 266 367 l 1
 196 367 l 1
 196 657 l 1
 317 657 l 2
570 509 m 0
 570 362 448 244 301 244 c 0
 150 244 32 365 32 509 c 0
 32 656 154 774 301 774 c 0
 448 774 570 656 570 509 c 0
EndSplineSet
EndChar

StartChar: paragraph
Encoding: 182 182 106
Width: 647
VWidth: 1023
Flags: HW
HStem: 645 113<377 455>
VStem: 43 334<442 640> 257 121<-20 318> 455 120<-20 645>
LayerCount: 3
Fore
SplineSet
293 758 m 6xd0
 575 758 l 5
 575 -20 l 5
 455 -20 l 5
 455 645 l 5
 377 645 l 5
 377 -20 l 5
 257 -20 l 5
 257 315 l 5xb0
 166 322 43 376 43 553 c 4
 43 753 216 758 293 758 c 6xd0
EndSplineSet
EndChar

StartChar: periodcentered
Encoding: 183 183 107
Width: 288
VWidth: 1023
Flags: HW
HStem: 287 143<73 215>
VStem: 73 143<287 429>
LayerCount: 3
Fore
SplineSet
73 429 m 1
 215 429 l 1
 215 287 l 1
 73 287 l 1
 73 429 l 1
EndSplineSet
EndChar

StartChar: questiondown
Encoding: 191 191 108
Width: 511
VWidth: 1023
Flags: HW
HStem: -89 109<194 375>
VStem: 37 121<57 165> 222 123<372 482>
LayerCount: 3
Fore
SplineSet
345 502 m 1
 222 502 l 1
 222 482 l 2
 222 250 37 307 37 118 c 0
 37 -3 163 -89 258 -89 c 0
 332 -89 385 -72 444 -44 c 1
 461 -36 l 1
 421 60 l 1
 403 52 l 2
 335 24 297 20 271 20 c 0
 194 20 157 65 157 110 c 0
 157 224 345 192 345 482 c 2
 345 502 l 1
353 714 m 1
 215 714 l 1
 215 576 l 1
 353 576 l 1
 353 714 l 1
EndSplineSet
EndChar

StartChar: uni00B5
Encoding: 181 181 109
Width: 579
VWidth: 1023
Flags: HW
HStem: -33 108<229 372>
VStem: 73 120<-220 -12 114 502> 392 120<95 502>
LayerCount: 3
Fore
SplineSet
73 502 m 1
 193 502 l 1
 193 210 l 2
 193 122 224 75 292 75 c 0
 313 75 338 79 392 105 c 1
 392 502 l 1
 512 502 l 1
 512 -20 l 1
 422 -20 l 1
 412 4 l 1
 374 -17 325 -33 278 -33 c 0
 251 -33 221 -27 193 -12 c 1
 193 -220 l 1
 73 -220 l 1
 73 502 l 1
EndSplineSet
EndChar

StartChar: uni00AD
Encoding: 173 173 110
Width: 524
VWidth: 1023
Flags: HW
HStem: 268 108<87 437>
LayerCount: 3
Fore
SplineSet
87 375 m 1
 437 375 l 1
 437 268 l 1
 87 268 l 1
 87 375 l 1
EndSplineSet
EndChar

StartChar: plusminus
Encoding: 177 177 111
Width: 683
VWidth: 1023
Flags: HW
HStem: 53 107<87 596> 406 107<87 286 397 596>
VStem: 286 111<205 406 513 714>
LayerCount: 3
Fore
SplineSet
87 160 m 1
 596 160 l 1
 596 53 l 1
 87 53 l 1
 87 160 l 1
286 714 m 1
 397 714 l 1
 397 513 l 1
 596 513 l 1
 596 406 l 1
 397 406 l 1
 397 205 l 1
 286 205 l 1
 286 406 l 1
 87 406 l 1
 87 513 l 1
 286 513 l 1
 286 714 l 1
EndSplineSet
EndChar

StartChar: ae
Encoding: 230 230 112
Width: 897
VWidth: 0
Flags: HW
HStem: -10 104<204 348 569 772> 193 101<503 716> 213 78<207 368> 369 93<117 193> 382 109<546 683> 393 99<128 336>
VStem: 60 120<118 189>
LayerCount: 3
Fore
SplineSet
180 154 m 0xa2
 180 124 223 94 274 94 c 0
 311 94 344 108 368 129 c 1
 368 213 l 1
 196 211 180 182 180 154 c 0xa2
621 382 m 0xca
 554 382 511 341 503 293 c 1
 716 293 l 1
 712 335 691 382 621 382 c 0xca
104 462 m 2x92
 168 484 236 491 282 491 c 0x86
 372 491 424 457 452 420 c 1
 499 462 565 491 636 491 c 0
 809 491 833 338 833 213 c 2xaa
 833 193 l 1
 500 193 l 1xc2
 511 137 578 95 668 95 c 0
 706 95 746 105 767 111 c 2
 787 118 l 1
 809 25 l 1
 792 19 l 1
 735 -2 676 -10 635 -10 c 0
 565 -10 493 9 441 54 c 1
 395 10 331 -10 257 -10 c 0
 153 -10 60 51 60 138 c 0
 60 214 127 274 260 286 c 0
 293 289 338 291 368 291 c 1
 368 295 l 2
 368 343 346 393 260 393 c 0xa6
 235 393 201 390 136 374 c 1
 118 369 l 1
 85 456 l 1
 104 462 l 2x92
EndSplineSet
EndChar

StartChar: germandbls
Encoding: 223 223 113
Width: 694
VWidth: 1023
Flags: HW
HStem: -13 104<275 502> 0 10G<98 218> 11 95<272 397> 586 112<254 376>
VStem: 98 120<0 552> 406 133<482 557> 511 125<103 175>
LayerCount: 3
Fore
SplineSet
324 698 m 0x5c
 469 698 539 598 539 518 c 0x5c
 539 405 396 382 396 341 c 0
 396 280 636 309 636 136 c 0
 636 77 595 -13 444 -13 c 0x9a
 399 -13 333 -6 266 11 c 1
 244 17 l 1
 273 110 l 1
 294 106 l 1x3a
 342 98 388 92 425 92 c 0
 492 92 511 110 511 141 c 0x9a
 511 230 258 186 258 341 c 0
 258 447 406 461 406 513 c 0
 406 557 356 586 314 586 c 0
 293 586 218 577 218 479 c 2
 218 0 l 1
 98 0 l 1
 98 479 l 2
 98 635 210 698 324 698 c 0x5c
EndSplineSet
EndChar

StartChar: multiply
Encoding: 215 215 114
Width: 714
VWidth: 1023
Flags: HW
LayerCount: 3
Fore
SplineSet
169 81 m 1
 89 160 l 1
 270 319 l 1
 93 474 l 1
 172 554 l 1
 369 392 l 1
 562 551 l 1
 641 471 l 1
 461 312 l 1
 638 157 l 1
 558 77 l 1
 361 239 l 1
 169 81 l 1
EndSplineSet
EndChar

StartChar: divide
Encoding: 247 247 115
Width: 763
VWidth: 1023
Flags: HW
HStem: 41 135<307 457> 267 108<61 703> 467 135<307 457>
VStem: 307 150<41 176 467 602>
LayerCount: 3
Fore
SplineSet
307 602 m 1
 457 602 l 1
 457 467 l 1
 307 467 l 1
 307 602 l 1
307 176 m 1
 457 176 l 1
 457 41 l 1
 307 41 l 1
 307 176 l 1
61 375 m 1
 703 375 l 1
 703 267 l 1
 61 267 l 1
 61 375 l 1
EndSplineSet
EndChar

StartChar: oslash
Encoding: 248 248 116
Width: 671
VWidth: 1023
Flags: HW
HStem: -10 108<269 424> 383 108<248 416>
VStem: 63 118<170 319> 490 118<164 300>
LayerCount: 3
Back
SplineSet
576.172 494.141 m 1
 633.301 442.871 l 1
 577.637 389.648 l 1
 602.539 352.051 616.211 305.176 616.211 250.488 c 0
 616.211 89.8438 506.348 -9.76562 338.379 -9.76562 c 0
 271.973 -9.76562 211.914 7.32422 165.527 40.0391 c 1
 110.84 -15.625 l 1
 53.7109 35.6445 l 1
 112.305 91.3086 l 1
 85.9375 130.371 71.7773 179.199 71.7773 235.84 c 0
 71.7773 392.578 177.734 491.699 347.168 491.699 c 0
 414.551 491.699 477.051 474.609 524.414 440.918 c 1
 576.172 494.141 l 1
339.355 383.301 m 0
 268.066 383.301 192.383 333.008 192.383 229.492 c 0
 192.383 201.66 197.266 175.781 207.031 152.832 c 1
 429.688 354.492 l 1
 402.344 374.023 370.605 383.301 339.355 383.301 c 0
496.094 254.883 m 0
 496.094 283.203 490.723 307.617 482.422 328.125 c 1
 259.277 126.465 l 1
 283.691 108.887 313.965 98.6328 348.145 98.6328 c 0
 429.688 98.6328 496.094 158.691 496.094 254.883 c 0
EndSplineSet
Fore
SplineSet
578 498 m 1
 630 440 l 1
 570 386 l 1
 594 349 608 304 608 250 c 0
 608 89 499 -10 330 -10 c 0
 269 -10 215 3 173 28 c 1
 112 -27 l 1
 60 31 l 1
 114 80 l 1
 82 120 63 173 63 236 c 0
 63 393 169 492 339 492 c 0
 409 492 470 475 516 442 c 1
 578 498 l 1
331 383 m 0
 259 383 182 340 182 249 c 0
 182 218 190 188 207 164 c 1
 423 358 l 1
 396 375 362 383 331 383 c 0
476 300 m 1
 268 113 l 1
 289 104 313 99 340 99 c 0
 423 99 490 152 490 236 c 0
 490 261 485 281 476 300 c 1
EndSplineSet
EndChar

StartChar: OE
Encoding: 338 338 118
Width: 1055
VWidth: 1023
Flags: HW
HStem: 0 113<360 532 664 978> 301 113<664 951> 581 113<365 532 664 978>
VStem: 105 123<240 450> 532 131<113 301 414 581>
LayerCount: 3
Fore
SplineSet
532 113 m 1
 532 581 l 1
 524 581 l 2
 491 581 459 580 429 576 c 0
 301 558 228 473 228 343 c 0
 228 215 306 156 362 133 c 0
 406 114 444 113 488 113 c 2
 532 113 l 1
196 597 m 1
 296 691 442 694 560 694 c 2
 978 694 l 1
 978 581 l 1
 664 581 l 1
 664 414 l 1
 951 414 l 1
 951 301 l 1
 664 301 l 1
 664 113 l 1
 978 113 l 1
 978 0 l 1
 513 0 l 2
 443 0 369 2 300 28 c 0
 183 73 105 176 105 343 c 0
 105 495 167 568 196 597 c 1
EndSplineSet
EndChar

StartChar: oe
Encoding: 339 339 119
Width: 960
VWidth: 0
Flags: HW
HStem: -11 96<631 837> -10 107<247 391> 17 82<775 851> 179 101<568 780> 381 108<238 384> 397 89<617 743>
VStem: 63 118<164 323> 443 454<179 278> 780 117<279 359>
LayerCount: 3
Fore
SplineSet
443 232 m 0x5b
 443 340 372 381 311 381 c 0
 234 381 182 324 182 245 c 0
 182 164 236 98 319 98 c 0
 384 98 443 141 443 232 c 0x5b
682 397 m 0x1680
 612 397 575 341 568 279 c 1
 780 279 l 1
 776 369 737 397 682 397 c 0x1680
700 487 m 0
 886 487 897 337 897 232 c 2x17
 897 179 l 1
 567 179 l 1
 578 135 629 84 731 84 c 0x9680
 752 84 784 87 830 99 c 2
 851 104 l 1
 873 22 l 1
 856 17 l 1x3280
 815 2 761 -11 697 -11 c 0x9280
 594 -11 533 25 498 65 c 1
 452 17 387 -10 310 -10 c 0
 160 -10 63 86 63 237 c 0
 63 391 163 489 319 489 c 0x5a80
 403 489 470 459 512 408 c 1
 575 478 660 487 700 487 c 0
EndSplineSet
EndChar

StartChar: AE
Encoding: 198 198 120
Width: 1015
VWidth: 1023
Flags: HW
HStem: 0 113<632 946> 182 112<316 501> 301 113<632 919> 581 113<442 501 632 946>
VStem: 501 131<113 182 294 301 414 581>
LayerCount: 3
Fore
SplineSet
442 581 m 1
 316 294 l 1
 501 294 l 1
 501 581 l 1
 442 581 l 1
361 694 m 1
 946 694 l 1
 946 581 l 1
 632 581 l 1
 632 414 l 1
 919 414 l 1
 919 301 l 1
 632 301 l 1
 632 113 l 1
 946 113 l 1
 946 0 l 1
 501 0 l 1
 501 182 l 1
 269 182 l 1
 186 0 l 1
 63 0 l 1
 361 694 l 1
EndSplineSet
EndChar

StartChar: onequarter
Encoding: 188 188 121
Width: 878
VWidth: 0
Flags: HW
HStem: 83 78<595 679 768 820>
VStem: 144 89<290 614> 679 89<-12 83 161 293>
LayerCount: 3
Fore
SplineSet
569 706 m 1
 683 706 l 1
 268 -12 l 1
 154 -12 l 1
 569 706 l 1
165 706 m 1
 233 706 l 1
 233 290 l 1
 144 290 l 1
 144 614 l 1
 79 596 l 1
 59 677 l 1
 165 706 l 1
673 420 m 1
 768 420 l 1
 768 161 l 1
 820 161 l 1
 820 83 l 1
 768 83 l 1
 768 -12 l 1
 679 -12 l 1
 679 83 l 1
 488 83 l 1
 488 143 l 1
 673 420 l 1
679 293 m 1
 595 161 l 1
 679 161 l 1
 679 293 l 1
EndSplineSet
EndChar

StartChar: onehalf
Encoding: 189 189 122
Width: 926
VWidth: 0
Flags: HW
HStem: -12 81<683 860> 343 80<617 753>
VStem: 144 89<285 614> 766 95<262 331>
LayerCount: 3
Back
SplineSet
166.504 693.848 m 5
 221.191 693.848 l 5
 221.191 296.875 l 5
 156.25 296.875 l 5
 156.25 630.371 l 5xf6
 87.8906 611.328 l 5
 73.2422 668.457 l 5
 166.504 693.848 l 5
102.231 676.24 m 1
 131.785 690.703 173.225 707.788 220.553 707.788 c 0
 290.296 707.788 343.551 666.689 343.551 609.497 c 0xf960
 343.551 573.247 325.658 541.89 297.709 523.999 c 1
 343.764 504.99 360.201 468.377 360.201 430.64 c 0
 360.201 348.383 293.219 294.238 204.465 293.677 c 1
 203.365 293.677 l 2
 159.999 293.677 125.272 305.244 94.9502 317.561 c 1
 112.834 368.977 l 1
 161.192 355.638 182.089 352.222 204.977 352.222 c 0
 254.713 352.222 297.896 379.722 297.896 420.972 c 0xf8e0
 297.896 448.256 276.305 489.185 189.938 489.185 c 2
 176.51 489.185 l 1
 176.51 544.302 l 1
 266.223 546.646 281.783 578.906 281.783 601.978 c 0
 281.783 626.479 257.955 650.317 214.645 650.317 c 0xf960
 176.07 650.317 140.941 633.618 123.422 625.537 c 1
 102.231 676.24 l 1
EndSplineSet
Fore
SplineSet
569 706 m 1
 683 706 l 1
 268 -12 l 1
 154 -12 l 1
 569 706 l 1
165 706 m 1
 233 706 l 1
 233 285 l 1
 144 285 l 1
 144 614 l 1
 79 596 l 1
 59 677 l 1
 165 706 l 1
577 37 m 5
 627 199 766 251 766 297 c 4
 766 318 741 343 700 343 c 4
 681 343 659 338 605 317 c 6
 594 313 l 5
 564 383 l 5
 575 389 l 5
 607 404 652 423 709 423 c 4
 789 423 854 376 854 305 c 4
 854 204 735 171 683 69 c 5
 860 69 l 5
 860 -12 l 5
 577 -12 l 5
 577 37 l 5
EndSplineSet
EndChar

StartChar: threequarters
Encoding: 190 190 123
Width: 952
VWidth: 0
Flags: HW
HStem: 83 78<668 752 841 894> 281 83<102 268> 477 80<164 259> 638 82<134 265>
VStem: 270 86<570 631> 286 87<383 460> 752 89<-12 83 161 293>
LayerCount: 3
Fore
SplineSet
647 706 m 1xf2
 761 706 l 1
 346 -12 l 1
 232 -12 l 1
 647 706 l 1xf2
746 420 m 1
 841 420 l 1
 841 161 l 1
 894 161 l 1
 894 83 l 1
 841 83 l 1
 841 -12 l 1
 752 -12 l 1
 752 83 l 1
 562 83 l 1
 562 143 l 1
 746 420 l 1
752 293 m 1
 668 161 l 1
 752 161 l 1
 752 293 l 1
221 720 m 0
 296 720 355 674 355 609 c 0xfa
 355 576 341 547 320 526 c 1
 357 504 373 468 373 431 c 0
 373 341 299 281 203 281 c 0
 158 281 122 293 90 306 c 2
 80 311 l 1
 105 384 l 1
 116 381 l 1
 164 368 184 364 205 364 c 0
 247 364 286 387 286 421 c 0xf6
 286 458 254 477 176 477 c 2
 164 477 l 1
 164 557 l 1
 176 557 l 2
 219 557 270 566 270 602 c 0xfa
 270 618 254 638 215 638 c 0
 180 638 149 623 129 614 c 2
 117 609 l 1
 86 682 l 1
 97 687 l 2
 128 702 171 720 221 720 c 0
EndSplineSet
EndChar

StartChar: degree
Encoding: 176 176 124
Width: 287
Flags: HW
HStem: 473 84<108 179> 648 84<108 179>
VStem: 17 84<564 642> 186 85<564 642>
LayerCount: 3
Fore
SplineSet
144 648 m 0
 119 648 101 627 101 603 c 0
 101 579 118 558 144 558 c 0
 167 558 186 579 186 603 c 0
 186 627 168 648 144 648 c 0
271 603 m 0
 271 531 214 473 144 473 c 0
 75 473 17 531 17 603 c 0
 17 674 74 732 144 732 c 0
 213 732 271 675 271 603 c 0
EndSplineSet
EndChar

StartChar: ccedilla
Encoding: 231 231 125
Width: 568
VWidth: 1023
Flags: HW
HStem: -243 86<222 364> -212 83<195 257> 379 109<252 479>
VStem: 63 125<161 318> 367 93<-154 -121>
LayerCount: 3
Back
SplineSet
331.543 -163.574 m 0
 331.543 -127.93 291.016 -122.07 219.727 -100.098 c 1
 244.629 -6.83594 l 1
 155.762 6.83594 63.4766 65.4297 63.4766 229.98 c 0
 63.4766 427.246 185.547 491.211 297.363 491.211 c 0
 343.75 491.211 390.137 480.957 432.617 462.402 c 1
 413.086 403.809 l 1
 378.906 415.527 343.262 422.363 307.129 422.363 c 0
 228.027 422.363 141.113 387.207 141.113 247.07 c 0
 141.113 94.2383 231.445 56.1523 315.918 56.1523 c 0
 347.168 56.1523 378.418 62.0117 407.715 72.2656 c 1
 427.246 17.0898 l 1
 383.301 0 341.309 -7.32422 306.152 -9.27734 c 1
 290.527 -70.8008 l 1
 312.988 -77.6367 380.371 -91.8633 380.371 -158.27 c 0
 380.371 -200.262 345.703 -247.625 280.762 -247.625 c 0
 244.629 -247.625 195.801 -230.535 169.434 -222.723 c 1
 182.129 -178.289 l 1
 240.723 -195.867 262.695 -201.238 282.715 -201.238 c 0
 313.965 -201.238 331.543 -183.105 331.543 -163.574 c 0
EndSplineSet
Fore
SplineSet
333 -157 m 0xb8
 355 -157 367 -148 367 -139 c 0
 367 -121 330 -116 251 -95 c 1
 229 -89 l 1
 256 -5 l 1
 152 15 63 77 63 228 c 0
 63 424 209 488 350 488 c 0
 407 488 455 478 500 458 c 2
 518 450 l 1
 486 355 l 1
 467 361 l 2
 435 372 401 379 362 379 c 0
 275 379 188 352 188 243 c 0
 188 135 262 93 372 93 c 0
 405 93 434 98 461 108 c 1
 480 114 l 1
 513 22 l 1
 495 15 l 2
 454 -1 415 -9 377 -12 c 1
 371 -33 l 1
 407 -43 460 -68 460 -134 c 0
 460 -187 417 -243 331 -243 c 0xb8
 288 -243 242 -230 192 -217 c 1
 169 -212 l 1
 197 -129 l 1x78
 220 -135 l 2
 287 -152 312 -157 331 -157 c 0
 333 -157 l 0xb8
EndSplineSet
EndChar

StartChar: cedilla
Encoding: 184 184 126
Width: 537
VWidth: 0
Flags: HW
HStem: -263 86<208 330>
VStem: 331 89<-176 -139>
LayerCount: 3
Fore
SplineSet
302 -176 m 0
 325 -176 331 -165 331 -158 c 0
 331 -140 300 -135 233 -114 c 1
 214 -109 l 1
 252 31 l 1
 355 31 l 1
 334 -52 l 1
 365 -62 419 -87 419 -153 c 0
 419 -206 376 -263 300 -263 c 0
 263 -263 225 -250 183 -237 c 1
 164 -231 l 1
 188 -148 l 1
 207 -154 l 2
 258 -170 285 -176 302 -176 c 0
EndSplineSet
EndChar

StartChar: Ccedilla
Encoding: 199 199 127
Width: 788
VWidth: 0
Flags: HW
HStem: -247 92<378 507> -215 89<348 404> -10 116<527 678> 585 113<415 666>
VStem: 134 127<253 439>
LayerCount: 3
Back
SplineSet
535.928 -154.191 m 0
 535.928 -201.617 496.196 -246.98 432.426 -246.98 c 0
 406.274 -246.98 389.642 -242.516 333.252 -225.931 c 2
 316.65 -221.048 l 1
 331.299 -170.267 l 1
 345.947 -174.661 l 2
 398.936 -190.279 418.01 -194.707 436.025 -194.707 c 0
 465.219 -194.707 481.023 -178.023 481.023 -160.225 c 0
 481.023 -129.678 441.952 -120.596 433.35 -118.021 c 2
 366.455 -98.001 l 1
 393.057 -1.03516 l 1
 230.14 34.7666 134.277 176.499 134.277 346.191 c 0
 134.277 545.898 267.578 698.73 481.445 698.73 c 0
 533.203 698.73 599.609 689.453 669.922 661.621 c 1
 644.531 592.773 l 1
 565.43 620.117 512.207 625.488 479.004 625.488 c 0
 317.383 625.488 217.285 491.699 217.285 346.68 c 0
 217.285 194.824 325.195 66.4062 497.07 66.4062 c 0
 543.945 66.4062 598.145 75.6836 653.809 95.7031 c 1
 679.199 34.1797 l 1
 608.887 3.90625 537.109 -9.76562 476.074 -9.76562 c 0
 471.426 -9.76562 466.816 -9.68945 462.248 -9.53906 c 1
 448.006 -65.875 l 1
 457.831 -68.8223 535.928 -83.5371 535.928 -154.191 c 0
EndSplineSet
Fore
SplineSet
480 -155 m 0xb8
 504 -155 508 -145 508 -140 c 0
 508 -125 470 -116 397 -97 c 2
 376 -92 l 1
 406 4 l 1
 229 46 134 185 134 347 c 0
 134 547 283 699 531 699 c 0
 591 699 664 689 737 660 c 1
 755 653 l 1
 717 547 l 1
 698 554 l 2
 618 581 562 585 528 585 c 0
 363 585 261 472 261 347 c 0
 261 218 370 106 548 106 c 0
 597 106 653 116 707 135 c 2
 725 141 l 1
 765 43 l 1
 747 36 l 2
 675 5 596 -10 527 -10 c 1
 521 -32 l 1
 554 -42 613 -68 613 -134 c 0
 613 -193 559 -247 477 -247 c 0xb8
 450 -247 440 -246 342 -220 c 1
 321 -215 l 1
 350 -125 l 1x78
 371 -131 l 2
 420 -145 457 -155 480 -155 c 0xb8
EndSplineSet
EndChar

StartChar: dieresis
Encoding: 168 168 128
Width: 585
VWidth: 0
Flags: HW
HStem: 583 131<118 249 337 468>
VStem: 118 130<583 714> 337 130<583 714>
LayerCount: 3
Fore
SplineSet
118 714 m 1
 249 714 l 1
 249 583 l 1
 118 583 l 1
 118 714 l 1
337 714 m 1
 468 714 l 1
 468 583 l 1
 337 583 l 1
 337 714 l 1
EndSplineSet
EndChar

StartChar: Adieresis
Encoding: 196 196 129
Width: 755
VWidth: 0
Flags: HW
HStem: 0 10G<63 187 617 748> 182 113<303 500> 684 10G<335 477> 796 130<214 358 455 599>
VStem: 214 144<796 926> 455 144<796 926>
LayerCount: 3
Fore
SplineSet
338 694 m 1
 473 694 l 1
 748 0 l 1
 621 0 l 1
 543 182 l 1
 260 182 l 1
 183 0 l 1
 63 0 l 1
 338 694 l 1
500 294 m 1
 402 552 l 1
 303 294 l 1
 500 294 l 1
214 926 m 1
 358 926 l 1
 358 796 l 1
 214 796 l 1
 214 926 l 1
455 926 m 1
 599 926 l 1
 599 796 l 1
 455 796 l 1
 455 926 l 1
EndSplineSet
EndChar

StartChar: Edieresis
Encoding: 203 203 130
Width: 706
VWidth: 1023
Flags: HW
HStem: 0 113<265 628> 301 113<265 602> 581 113<265 628> 796 130<190 332 438 580>
VStem: 142 124<113 301 414 581> 190 142<796 927> 438 142<796 927>
LayerCount: 3
Fore
SplineSet
142 694 m 1xfa
 628 694 l 1
 628 581 l 1
 265 581 l 1
 265 414 l 1
 602 414 l 1
 602 301 l 1
 265 301 l 1
 265 113 l 1
 628 113 l 1
 628 0 l 1
 142 0 l 1
 142 694 l 1xfa
190 927 m 1xf6
 332 927 l 1
 332 796 l 1
 190 796 l 1
 190 927 l 1xf6
438 927 m 1
 580 927 l 1
 580 796 l 1
 438 796 l 1
 438 927 l 1
EndSplineSet
EndChar

StartChar: Idieresis
Encoding: 207 207 131
Width: 367
VWidth: 0
Flags: HW
HStem: 0 10G<142 265> 684 10G<142 265> 760 130<43 173 233 363>
VStem: 43 130<760 891> 142 123<0 694> 233 130<760 891>
LayerCount: 3
Fore
SplineSet
142 694 m 1xe8
 265 694 l 1
 265 0 l 1
 142 0 l 1
 142 694 l 1xe8
43 891 m 1xf0
 173 891 l 1
 173 760 l 1
 43 760 l 1
 43 891 l 1xf0
233 891 m 1xe4
 363 891 l 1
 363 760 l 1
 233 760 l 1
 233 891 l 1xe4
EndSplineSet
EndChar

StartChar: Odieresis
Encoding: 214 214 132
Width: 903
VWidth: 0
Flags: HW
HStem: -7 113<371 577> 588 113<365 570> 796 130<286 428 525 667>
VStem: 105 126<249 460> 286 142<796 927> 525 142<796 927> 711 126<239 450>
LayerCount: 3
Fore
SplineSet
472 701 m 0
 684 701 837 568 837 354 c 0
 837 139 688 -7 468 -7 c 0
 280 -7 105 109 105 345 c 0
 105 562 257 701 472 701 c 0
711 346 m 0
 711 517 581 588 465 588 c 0
 355 588 231 519 231 355 c 0
 231 201 339 105 475 105 c 0
 587 105 711 176 711 346 c 0
286 927 m 1
 428 927 l 1
 428 796 l 1
 286 796 l 1
 286 927 l 1
525 927 m 1
 667 927 l 1
 667 796 l 1
 525 796 l 1
 525 927 l 1
EndSplineSet
EndChar

StartChar: Udieresis
Encoding: 220 220 133
Width: 851
VWidth: 0
Flags: HW
HStem: -10 112<334 556> 684 10G<142 265 626 749> 796 130<250 396 495 640>
VStem: 142 123<167 694> 250 145<796 927> 495 145<796 927> 626 123<167 694>
LayerCount: 3
Fore
SplineSet
142 694 m 1xf2
 265 694 l 1
 265 254 l 2
 265 179 290 102 445 102 c 0
 590 102 626 169 626 254 c 2
 626 694 l 1
 749 694 l 1
 749 242 l 2
 749 170 746 -10 441 -10 c 0
 144 -10 142 171 142 242 c 2
 142 694 l 1xf2
250 927 m 1xe8
 396 927 l 1
 396 796 l 1
 250 796 l 1
 250 927 l 1xe8
495 927 m 1xe4
 640 927 l 1
 640 796 l 1
 495 796 l 1
 495 927 l 1xe4
EndSplineSet
EndChar

StartChar: adieresis
Encoding: 228 228 134
Width: 602
VWidth: 0
Flags: HW
HStem: -10 103<200 372> 0 10G<420 514> 193 90<202 393> 385 106<130 366> 563 131<126 274 383 516>
VStem: 60 120<115 171> 126 148<563 694> 383 133<563 694> 393 121<112 193 284 357>
LayerCount: 3
Fore
SplineSet
383 694 m 1x39
 516 694 l 1
 516 563 l 1
 383 563 l 1
 383 694 l 1x39
126 694 m 1x3a
 274 694 l 1
 274 563 l 1
 126 563 l 1
 126 694 l 1x3a
393 125 m 1xbc80
 393 193 l 1
 381 193 l 2
 250 193 180 180 180 142 c 0
 180 120 223 93 284 93 c 0
 295 93 347 94 393 125 c 1xbc80
288 491 m 0
 474 491 514 408 514 314 c 2
 514 0 l 1
 424 0 l 1x7c80
 411 32 l 1
 372 8 317 -10 257 -10 c 0
 137 -10 60 59 60 133 c 0
 60 257 212 282 393 284 c 1
 393 301 l 2
 393 341 385 385 272 385 c 0
 242 385 193 381 131 364 c 1
 112 358 l 1
 87 455 l 1
 104 460 l 1
 166 483 233 491 288 491 c 0
EndSplineSet
EndChar

StartChar: edieresis
Encoding: 235 235 135
Width: 618
VWidth: 0
Flags: HW
HStem: -10 104<257 496> 184 101<187 437> 382 109<239 401> 563 131<144 292 397 534>
VStem: 144 147<563 694> 397 136<563 694>
LayerCount: 3
Fore
SplineSet
340 492 m 0
 545 492 555 340 555 238 c 2
 555 184 l 1
 187 184 l 1
 199 141 260 94 375 94 c 0
 421 94 461 103 488 111 c 2
 508 117 l 1
 532 24 l 1
 515 18 l 2
 472 3 413 -10 339 -10 c 0
 119 -10 63 115 63 227 c 0
 63 412 194 492 340 492 c 0
320 382 m 0
 238 382 194 336 186 284 c 1
 437 284 l 1
 432 358 386 382 320 382 c 0
144 694 m 1
 292 694 l 1
 292 563 l 1
 144 563 l 1
 144 694 l 1
397 694 m 1
 534 694 l 1
 534 563 l 1
 397 563 l 1
 397 694 l 1
EndSplineSet
EndChar

StartChar: idieresis
Encoding: 239 239 136
Width: 295
VWidth: 0
Flags: HW
HStem: 0 10G<88 208> 473 10G<88 208> 563 130<-7 123 173 303>
VStem: -7 130<563 694> 88 120<0 482> 173 130<563 694>
LayerCount: 3
Fore
SplineSet
88 482 m 1xe8
 208 482 l 1
 208 0 l 1
 88 0 l 1
 88 482 l 1xe8
-7 694 m 1xf0
 123 694 l 1
 123 563 l 1
 -7 563 l 1
 -7 694 l 1xf0
173 694 m 1xe4
 303 694 l 1
 303 563 l 1
 173 563 l 1
 173 694 l 1xe4
EndSplineSet
EndChar

StartChar: odieresis
Encoding: 246 246 137
Width: 671
VWidth: 0
Flags: HW
HStem: -10 108<257 424> 383 108<248 415> 563 131<156 302 404 545>
VStem: 63 118<173 319> 156 146<563 694> 404 142<563 694> 490 118<164 313>
LayerCount: 3
Fore
SplineSet
339 492 m 0xf2
 496 492 608 406 608 250 c 0
 608 89 499 -10 330 -10 c 0
 170 -10 63 82 63 236 c 0
 63 393 169 492 339 492 c 0xf2
331 383 m 0
 259 383 182 340 182 249 c 0
 182 166 245 99 340 99 c 0
 423 99 490 152 490 236 c 0
 490 335 406 383 331 383 c 0
156 694 m 1xe8
 302 694 l 1
 302 563 l 1
 156 563 l 1
 156 694 l 1xe8
404 694 m 1xe4
 545 694 l 1
 545 563 l 1
 404 563 l 1
 404 694 l 1xe4
EndSplineSet
EndChar

StartChar: udieresis
Encoding: 252 252 138
Width: 654
VWidth: 0
Flags: HW
HStem: -10 112<238 407> 0 10G<473 567> 473 10G<88 208 447 567> 563 131<135 277 383 524>
VStem: 88 120<133 482> 135 142<563 694> 383 141<563 694> 447 120<122 482>
LayerCount: 3
Fore
SplineSet
447 482 m 1xb9
 567 482 l 1
 567 0 l 1
 478 0 l 1x79
 463 33 l 1
 384 -1 318 -10 274 -10 c 0
 110 -10 88 99 88 197 c 2
 88 482 l 1
 208 482 l 1
 208 198 l 2
 208 166 212 102 316 102 c 0
 365 102 417 118 447 129 c 1
 447 482 l 1xb9
135 694 m 1x34
 277 694 l 1
 277 563 l 1
 135 563 l 1
 135 694 l 1x34
383 694 m 1x32
 524 694 l 1
 524 563 l 1
 383 563 l 1
 383 694 l 1x32
EndSplineSet
EndChar

StartChar: ydieresis
Encoding: 255 255 139
Width: 592
VWidth: 0
Flags: HW
HStem: 473 10G<24 155 457 587> 563 131<117 262 364 507>
VStem: 117 145<563 694> 364 143<563 694>
LayerCount: 3
Fore
SplineSet
24 482 m 1
 151 482 l 1
 312 112 l 1
 460 482 l 1
 587 482 l 1
 269 -259 l 1
 124 -259 l 1
 244 1 l 1
 24 482 l 1
117 694 m 1
 262 694 l 1
 262 563 l 1
 117 563 l 1
 117 694 l 1
364 694 m 1
 507 694 l 1
 507 563 l 1
 364 563 l 1
 364 694 l 1
EndSplineSet
EndChar

StartChar: dotlessi
Encoding: 305 305 140
Width: 295
VWidth: 1023
Flags: HW
HStem: 0 10G<88 208> 473 10G<88 208>
VStem: 88 120<0 482>
LayerCount: 3
Fore
SplineSet
88 482 m 1
 208 482 l 1
 208 0 l 1
 88 0 l 1
 88 482 l 1
EndSplineSet
EndChar

StartChar: Agrave
Encoding: 192 192 141
Width: 755
VWidth: 0
Flags: HW
HStem: 0 10G<63 187 617 748> 182 113<303 500> 684 10G<335 477>
LayerCount: 3
Fore
SplineSet
338 694 m 1
 473 694 l 1
 748 0 l 1
 621 0 l 1
 543 182 l 1
 260 182 l 1
 183 0 l 1
 63 0 l 1
 338 694 l 1
500 294 m 1
 402 552 l 1
 303 294 l 1
 500 294 l 1
288 950 m 1
 596 777 l 1
 541 690 l 1
 228 854 l 1
 288 950 l 1
EndSplineSet
EndChar

StartChar: Aacute
Encoding: 193 193 142
Width: 755
VWidth: 0
Flags: HW
HStem: 0 10G<63 187 617 748> 182 113<303 500> 684 10G<335 477>
LayerCount: 3
Fore
SplineSet
338 694 m 1
 473 694 l 1
 748 0 l 1
 621 0 l 1
 543 182 l 1
 260 182 l 1
 183 0 l 1
 63 0 l 1
 338 694 l 1
500 294 m 1
 402 552 l 1
 303 294 l 1
 500 294 l 1
522 950 m 1
 583 854 l 1
 269 690 l 1
 214 777 l 1
 522 950 l 1
EndSplineSet
EndChar

StartChar: Acircumflex
Encoding: 194 194 143
Width: 755
VWidth: 0
Flags: HW
HStem: 0 10G<63 187 617 748> 182 113<303 500> 684 10G<335 477>
LayerCount: 3
Fore
SplineSet
338 694 m 1
 473 694 l 1
 748 0 l 1
 621 0 l 1
 543 182 l 1
 260 182 l 1
 183 0 l 1
 63 0 l 1
 338 694 l 1
500 294 m 1
 402 552 l 1
 303 294 l 1
 500 294 l 1
417 949 m 1
 584 779 l 1
 503 708 l 1
 409 803 l 1
 313 709 l 1
 233 774 l 1
 417 949 l 1
EndSplineSet
EndChar

StartChar: Atilde
Encoding: 195 195 144
Width: 755
VWidth: 0
Flags: HW
HStem: 0 10G<63 187 617 748> 182 113<303 500> 684 10G<335 477> 729 99<468 520> 817 99<314 366>
VStem: 195 102<738 807> 533 100<833 906>
LayerCount: 3
Fore
SplineSet
537 920 m 1xf6
 637 905 l 1
 633 885 l 2
 622 828 611 729 504 729 c 1xf6
 405 733 361 817 333 817 c 0
 313 817 308 780 301 745 c 2
 297 726 l 1
 195 739 l 1
 200 760 l 2
 212 815 223 916 330 916 c 1xee
 429 912 473 828 501 828 c 0
 520 828 525 862 533 901 c 2
 537 920 l 1xf6
500 294 m 1
 402 552 l 1
 303 294 l 1
 500 294 l 1
338 694 m 1
 473 694 l 1
 748 0 l 1
 621 0 l 1
 543 182 l 1
 260 182 l 1
 183 0 l 1
 63 0 l 1
 338 694 l 1
EndSplineSet
EndChar

StartChar: Aring
Encoding: 197 197 145
Width: 755
VWidth: 0
Flags: HW
HStem: 0 10G<63 187 617 748> 182 113<303 500> 824 91<358 455>
VStem: 243 103<728 810> 467 104<729 811>
LayerCount: 3
Fore
SplineSet
407 915 m 0
 495 915 571 852 571 770 c 0
 571 720 539 676 492 652 c 1
 748 0 l 1
 621 0 l 1
 543 182 l 1
 260 182 l 1
 183 0 l 1
 63 0 l 1
 320 653 l 1
 275 677 243 720 243 770 c 0
 243 851 318 915 407 915 c 0
408 824 m 0
 371 824 346 798 346 770 c 0
 346 743 369 715 408 715 c 0
 443 715 467 742 467 770 c 0
 467 798 443 824 408 824 c 0
500 294 m 1
 402 552 l 1
 303 294 l 1
 500 294 l 1
EndSplineSet
EndChar

StartChar: uni00B2
Encoding: 178 178 146
Width: 390
VWidth: 0
Flags: HW
HStem: 358 76<159 319> 682 75<92 223>
VStem: 231 88<607 671>
LayerCount: 3
Fore
SplineSet
60 404 m 1
 106 552 231 598 231 640 c 0
 231 658 209 682 173 682 c 0
 156 682 135 678 86 658 c 2
 75 653 l 1
 48 719 l 1
 58 724 l 1
 87 739 129 756 181 756 c 0
 254 756 313 712 313 647 c 0
 313 555 206 525 159 434 c 1
 319 434 l 1
 319 358 l 1
 60 358 l 1
 60 404 l 1
EndSplineSet
EndChar

StartChar: uni00B3
Encoding: 179 179 147
Width: 390
VWidth: 1023
Flags: HW
HStem: 354 78<64 221> 532 75<123 212> 678 77<91 216>
VStem: 219 81<617 673> 233 81<447 519>
LayerCount: 3
Fore
SplineSet
175 755 m 0xf0
 244 755 299 713 299 653 c 0xf0
 299 624 288 597 268 578 c 1
 301 557 314 525 314 491 c 0
 314 409 248 354 160 354 c 0
 118 354 86 364 57 376 c 2
 46 381 l 1
 69 449 l 1
 81 446 l 1
 125 434 141 432 161 432 c 0
 199 432 233 452 233 482 c 0xe8
 233 525 182 532 135 532 c 2
 123 532 l 1
 123 606 l 1
 135 606 l 2
 175 606 219 614 219 646 c 0
 219 660 205 678 170 678 c 0
 139 678 110 665 92 657 c 2
 81 651 l 1
 52 720 l 1
 62 725 l 1
 89 738 127 755 175 755 c 0xf0
EndSplineSet
EndChar

StartChar: acute
Encoding: 180 180 148
Width: 547
VWidth: 1023
Flags: HW
HStem: 542 259
LayerCount: 3
Fore
SplineSet
387 802 m 1
 441 707 l 1
 157 542 l 1
 107 629 l 1
 387 802 l 1
EndSplineSet
EndChar

StartChar: uni00B9
Encoding: 185 185 149
Width: 265
VWidth: 0
Flags: HW
VStem: 100 80<359 669>
LayerCount: 3
Fore
SplineSet
121 750 m 1
 180 750 l 1
 180 359 l 1
 100 359 l 1
 100 669 l 1
 33 650 l 1
 15 721 l 1
 121 750 l 1
EndSplineSet
EndChar

StartChar: ordmasculine
Encoding: 186 186 150
Width: 372
VWidth: 1023
Flags: HW
HStem: 355 73<135 240> 679 75<132 241>
VStem: 21 80<465 646> 271 80<464 647>
LayerCount: 3
Fore
SplineSet
186 679 m 0
 152 679 101 662 101 561 c 0
 101 447 153 428 187 428 c 0
 221 428 271 447 271 558 c 0
 271 664 220 679 186 679 c 0
352 559 m 0
 352 431 279 355 186 355 c 0
 103 355 21 404 21 560 c 0
 21 690 104 754 187 754 c 0
 253 754 352 721 352 559 c 0
EndSplineSet
EndChar

StartChar: Egrave
Encoding: 200 200 151
Width: 706
VWidth: 0
Flags: HW
HStem: 0 113<265 628> 301 113<265 602> 581 113<265 628> 700 10G<497 522>
VStem: 142 124<113 301 414 581>
LayerCount: 3
Fore
SplineSet
142 694 m 1
 628 694 l 1
 628 581 l 1
 265 581 l 1
 265 414 l 1
 602 414 l 1
 602 301 l 1
 265 301 l 1
 265 113 l 1
 628 113 l 1
 628 0 l 1
 142 0 l 1
 142 694 l 1
247 959 m 1
 567 787 l 1
 517 700 l 1
 192 864 l 1
 247 959 l 1
EndSplineSet
EndChar

StartChar: Eacute
Encoding: 201 201 152
Width: 706
VWidth: 0
Flags: HW
HStem: 0 113<265 628> 301 113<265 602> 581 113<265 628> 700 10G<256 281>
VStem: 142 124<113 301 414 581>
LayerCount: 3
Fore
SplineSet
142 694 m 1
 628 694 l 1
 628 581 l 1
 265 581 l 1
 265 414 l 1
 602 414 l 1
 602 301 l 1
 265 301 l 1
 265 113 l 1
 628 113 l 1
 628 0 l 1
 142 0 l 1
 142 694 l 1
532 959 m 1
 586 864 l 1
 262 700 l 1
 212 787 l 1
 532 959 l 1
EndSplineSet
EndChar

StartChar: Ecircumflex
Encoding: 202 202 153
Width: 706
VWidth: 0
Flags: HW
HStem: 0 113<265 628> 301 113<265 602> 581 113<265 628>
VStem: 142 124<113 301 414 581>
LayerCount: 3
Fore
SplineSet
142 694 m 1
 628 694 l 1
 628 581 l 1
 265 581 l 1
 265 414 l 1
 602 414 l 1
 602 301 l 1
 265 301 l 1
 265 113 l 1
 628 113 l 1
 628 0 l 1
 142 0 l 1
 142 694 l 1
394 953 m 1
 564 782 l 1
 486 712 l 1
 385 807 l 1
 281 713 l 1
 205 778 l 1
 394 953 l 1
EndSplineSet
EndChar

StartChar: Icircumflex
Encoding: 206 206 154
Width: 396
VWidth: 0
Flags: HW
HStem: 0 10G<165 288> 684 10G<165 288>
VStem: 165 123<0 694>
LayerCount: 3
Fore
SplineSet
165 694 m 1
 288 694 l 1
 288 0 l 1
 165 0 l 1
 165 694 l 1
235 949 m 5
 388 778 l 5
 312 708 l 5
 228 803 l 5
 142 709 l 5
 68 774 l 5
 235 949 l 5
EndSplineSet
EndChar

StartChar: Igrave
Encoding: 204 204 155
Width: 396
VWidth: 0
Flags: HW
HStem: 0 10G<164 287> 684 10G<164 287>
VStem: 164 123<0 694>
LayerCount: 3
Fore
SplineSet
164 694 m 1
 287 694 l 1
 287 0 l 1
 164 0 l 1
 164 694 l 1
122 949 m 1
 402 776 l 1
 351 690 l 1
 66 854 l 1
 122 949 l 1
EndSplineSet
EndChar

StartChar: Iacute
Encoding: 205 205 156
Width: 436
VWidth: 0
Flags: HW
HStem: 0 10G<203 326> 684 10G<203 326>
VStem: 203 123<0 694>
LayerCount: 3
Fore
SplineSet
203 694 m 1
 326 694 l 1
 326 0 l 1
 203 0 l 1
 203 694 l 1
382 950 m 5
 437 855 l 5
 112 690 l 5
 62 778 l 5
 382 950 l 5
EndSplineSet
EndChar

StartChar: Ntilde
Encoding: 209 209 157
Width: 890
VWidth: 0
Flags: HW
HStem: 0 10G<142 265 643 788> 684 10G<142 284 665 788> 729 99<532 583> 817 99<378 430>
VStem: 142 123<0 534> 259 102<738 807> 596 100<833 906> 665 123<161 694>
LayerCount: 3
Fore
SplineSet
601 920 m 1xe6
 701 905 l 1
 696 885 l 2
 685 828 675 729 568 729 c 1xe6
 469 733 425 817 397 817 c 0
 377 817 371 780 364 745 c 2
 360 726 l 1
 259 739 l 1
 263 760 l 2
 275 815 287 916 394 916 c 1xd6
 493 912 536 828 564 828 c 0
 583 828 588 862 596 901 c 2
 601 920 l 1xe6
142 694 m 1xc9
 277 694 l 1
 665 161 l 1
 665 694 l 1
 788 694 l 1
 788 0 l 1
 650 0 l 1
 265 534 l 1
 265 0 l 1
 142 0 l 1
 142 694 l 1xc9
EndSplineSet
EndChar

StartChar: Ograve
Encoding: 210 210 158
Width: 903
VWidth: 0
Flags: HW
HStem: -7 113<371 577> 588 113<365 570>
VStem: 105 126<249 460> 711 126<239 450>
LayerCount: 3
Fore
SplineSet
472 701 m 0
 684 701 837 568 837 354 c 0
 837 139 688 -7 468 -7 c 0
 280 -7 105 109 105 345 c 0
 105 562 257 701 472 701 c 0
711 346 m 0
 711 517 581 588 465 588 c 0
 355 588 231 519 231 355 c 0
 231 201 339 105 475 105 c 0
 587 105 711 176 711 346 c 0
386 951 m 1
 691 779 l 1
 636 692 l 1
 326 856 l 1
 386 951 l 1
EndSplineSet
EndChar

StartChar: Oacute
Encoding: 211 211 159
Width: 903
VWidth: 0
Flags: HW
HStem: -7 113<371 577> 588 113<365 570>
VStem: 105 126<249 460> 711 126<239 450>
LayerCount: 3
Fore
SplineSet
472 701 m 0
 684 701 837 568 837 354 c 0
 837 139 688 -7 468 -7 c 0
 280 -7 105 109 105 345 c 0
 105 562 257 701 472 701 c 0
711 346 m 0
 711 517 581 588 465 588 c 0
 355 588 231 519 231 355 c 0
 231 201 339 105 475 105 c 0
 587 105 711 176 711 346 c 0
598 950 m 1
 657 855 l 1
 347 690 l 1
 293 778 l 1
 598 950 l 1
EndSplineSet
EndChar

StartChar: Ocircumflex
Encoding: 212 212 160
Width: 903
VWidth: 0
Flags: HW
HStem: -7 113<371 577> 588 113<365 570>
VStem: 105 126<249 460> 711 126<239 450>
LayerCount: 3
Fore
SplineSet
472 701 m 0
 684 701 837 568 837 354 c 0
 837 139 688 -7 468 -7 c 0
 280 -7 105 109 105 345 c 0
 105 562 257 701 472 701 c 0
711 346 m 0
 711 517 581 588 465 588 c 0
 355 588 231 519 231 355 c 0
 231 201 339 105 475 105 c 0
 587 105 711 176 711 346 c 0
487 949 m 1
 653 779 l 1
 572 708 l 1
 479 803 l 1
 385 709 l 1
 305 774 l 1
 487 949 l 1
EndSplineSet
EndChar

StartChar: Otilde
Encoding: 213 213 161
Width: 903
VWidth: 0
Flags: HW
HStem: -7 113<371 577> 588 113<365 570> 729 99<538 589> 817 99<384 435>
VStem: 105 126<249 460> 265 102<738 807> 602 100<833 906> 711 126<239 452>
LayerCount: 3
Fore
SplineSet
606 920 m 5xef
 707 905 l 5
 702 885 l 6
 691 828 681 729 574 729 c 5xef
 475 733 431 817 403 817 c 4
 383 817 377 780 370 745 c 6
 366 726 l 5
 265 739 l 5
 269 760 l 6
 281 815 292 916 399 916 c 5xdf
 498 912 542 828 570 828 c 4
 589 828 594 862 602 901 c 6
 606 920 l 5xef
711 346 m 0
 711 517 582 588 465 588 c 0
 355 588 231 519 231 355 c 0
 231 201 339 105 475 105 c 0
 587 105 711 176 711 346 c 0
472 701 m 0
 684 701 837 568 837 354 c 0
 837 139 688 -7 468 -7 c 0
 280 -7 105 109 105 345 c 0
 105 562 257 701 472 701 c 0
EndSplineSet
EndChar

StartChar: Ugrave
Encoding: 217 217 162
Width: 851
VWidth: 0
Flags: HW
HStem: -10 112<334 556> 684 10G<142 265 626 749>
VStem: 142 123<167 694> 626 123<167 694>
LayerCount: 3
Fore
SplineSet
142 694 m 1
 265 694 l 1
 265 254 l 2
 265 179 290 102 445 102 c 0
 590 102 626 169 626 254 c 2
 626 694 l 1
 749 694 l 1
 749 242 l 2
 749 170 746 -10 441 -10 c 0
 144 -10 142 171 142 242 c 2
 142 694 l 1
324 963 m 5
 638 791 l 5
 583 705 l 5
 263 868 l 5
 324 963 l 5
EndSplineSet
EndChar

StartChar: Uacute
Encoding: 218 218 163
Width: 851
VWidth: 0
Flags: HW
HStem: -10 112<334 556> 684 10G<142 265 626 749>
VStem: 142 123<167 694> 626 123<167 694>
LayerCount: 3
Fore
SplineSet
142 694 m 1
 265 694 l 1
 265 254 l 2
 265 179 290 102 445 102 c 0
 590 102 626 169 626 254 c 2
 626 694 l 1
 749 694 l 1
 749 242 l 2
 749 170 746 -10 441 -10 c 0
 144 -10 142 171 142 242 c 2
 142 694 l 1
582 965 m 5
 641 870 l 5
 323 705 l 5
 267 792 l 5
 582 965 l 5
EndSplineSet
EndChar

StartChar: Ucircumflex
Encoding: 219 219 164
Width: 851
VWidth: 0
Flags: HW
HStem: -10 112<334 556> 684 10G<142 265 626 749>
VStem: 142 123<167 694> 626 123<167 694>
LayerCount: 3
Fore
SplineSet
142 694 m 1
 265 694 l 1
 265 254 l 2
 265 179 290 102 445 102 c 0
 590 102 626 169 626 254 c 2
 626 694 l 1
 749 694 l 1
 749 242 l 2
 749 170 746 -10 441 -10 c 0
 144 -10 142 171 142 242 c 2
 142 694 l 1
454 949 m 1
 625 778 l 1
 541 708 l 1
 445 803 l 1
 348 709 l 1
 266 774 l 1
 454 949 l 1
EndSplineSet
EndChar

StartChar: Yacute
Encoding: 221 221 165
Width: 696
VWidth: 0
Flags: HW
HStem: 0 10G<306 444> 684 10G<49 201 562 710>
VStem: 306 138<0 324>
LayerCount: 3
Fore
SplineSet
49 694 m 1
 194 694 l 1
 380 425 l 1
 569 694 l 1
 710 694 l 1
 444 324 l 1
 444 0 l 1
 306 0 l 1
 306 324 l 1
 49 694 l 1
501 965 m 5
 562 870 l 5
 244 705 l 5
 188 792 l 5
 501 965 l 5
EndSplineSet
EndChar

StartChar: agrave
Encoding: 224 224 166
Width: 602
VWidth: 0
Flags: HW
HStem: -10 103<200 372> 0 10G<420 514> 193 90<202 394> 385 106<130 366>
VStem: 60 120<115 171> 394 121<112 193 284 357>
LayerCount: 3
Fore
SplineSet
288 491 m 0xbc
 474 491 514 408 514 314 c 2
 514 0 l 1
 424 0 l 1x7c
 411 32 l 1
 372 8 318 -10 258 -10 c 0
 138 -10 60 59 60 133 c 0
 60 257 213 282 394 284 c 1
 394 301 l 2
 394 341 385 385 272 385 c 0
 242 385 193 381 131 364 c 1
 112 358 l 1
 87 455 l 1
 104 460 l 1
 166 483 233 491 288 491 c 0xbc
394 125 m 1
 394 193 l 1
 381 193 l 2
 250 193 180 180 180 142 c 0
 180 120 222 93 284 93 c 0xbc
 295 93 348 94 394 125 c 1
248 760 m 1
 482 576 l 1
 419 496 l 1
 164 676 l 1
 248 760 l 1
EndSplineSet
EndChar

StartChar: aacute
Encoding: 225 225 167
Width: 602
VWidth: 0
Flags: HW
HStem: -10 103<200 372> 0 10G<420 514> 193 90<202 394> 385 106<130 366>
VStem: 60 120<115 171> 394 121<112 193 284 357>
LayerCount: 3
Fore
SplineSet
392 765 m 1x3c
 463 681 l 1
 215 501 l 1
 145 581 l 1
 392 765 l 1x3c
394 125 m 1
 394 193 l 1
 381 193 l 2
 250 193 180 180 180 142 c 0
 180 120 222 93 284 93 c 0xbc
 295 93 348 94 394 125 c 1
288 491 m 0
 474 491 514 408 514 314 c 2
 514 0 l 1
 424 0 l 1x7c
 411 32 l 1
 372 8 318 -10 258 -10 c 0
 138 -10 60 59 60 133 c 0
 60 257 213 282 394 284 c 1
 394 301 l 2
 394 341 385 385 272 385 c 0
 242 385 193 381 131 364 c 1
 112 358 l 1
 87 455 l 1
 104 460 l 1
 166 483 233 491 288 491 c 0
EndSplineSet
EndChar

StartChar: acircumflex
Encoding: 226 226 168
Width: 602
VWidth: 0
Flags: HW
HStem: -10 103<200 372> 0 10G<420 514> 193 90<202 394> 385 106<130 366>
VStem: 60 120<115 171> 394 121<112 193 284 357>
LayerCount: 3
Fore
SplineSet
311 737 m 1x3c
 479 567 l 1
 404 496 l 1
 302 591 l 1
 195 498 l 1
 119 562 l 1
 311 737 l 1x3c
394 125 m 1
 394 193 l 1
 381 193 l 2
 250 193 180 180 180 142 c 0
 180 120 222 93 284 93 c 0xbc
 295 93 348 94 394 125 c 1
288 491 m 0
 474 491 514 408 514 314 c 2
 514 0 l 1
 424 0 l 1x7c
 411 32 l 1
 372 8 318 -10 258 -10 c 0
 138 -10 60 59 60 133 c 0
 60 257 213 282 394 284 c 1
 394 301 l 2
 394 341 385 385 272 385 c 0
 242 385 193 381 131 364 c 1
 112 358 l 1
 87 455 l 1
 104 460 l 1
 166 483 233 491 288 491 c 0
EndSplineSet
EndChar

StartChar: atilde
Encoding: 227 227 169
Width: 602
VWidth: 0
Flags: HW
HStem: -10 103<199 370> 0 10G<420 514> 193 90<207 391> 385 106<130 365> 517 99<366 420> 605 99<195 255>
VStem: 60 120<115 171> 391 124<112 193 284 361>
LayerCount: 3
Fore
SplineSet
436 708 m 5x3b
 528 693 l 5
 516 631 l 6
 513 613 497 517 405 517 c 5x3b
 296 521 248 605 217 605 c 4
 196 605 191 571 188 557 c 6
 178 514 l 5
 85 527 l 5
 98 589 l 6
 102 608 115 704 213 704 c 5x37
 320 700 372 615 401 615 c 4
 421 615 426 658 427 664 c 6
 436 708 l 5x3b
391 125 m 1
 391 193 l 1
 378 193 l 2
 249 193 180 180 180 142 c 0
 180 120 222 93 283 93 c 0xb3
 294 93 345 94 391 125 c 1
286 491 m 0
 473 491 514 408 514 314 c 2
 514 0 l 1
 424 0 l 1x73
 411 32 l 1
 369 8 316 -10 257 -10 c 0
 138 -10 60 59 60 133 c 0
 60 257 212 282 391 284 c 1
 391 301 l 2
 391 341 383 385 271 385 c 0
 241 385 193 381 131 364 c 1
 112 358 l 1
 87 455 l 1
 104 460 l 1
 166 483 231 491 286 491 c 0
EndSplineSet
EndChar

StartChar: aring
Encoding: 229 229 170
Width: 602
VWidth: 0
Flags: HW
HStem: -10 103<200 372> 0 10G<420 514> 193 90<202 394> 385 106<130 366> 509 84<268 356> 684 84<270 358>
VStem: 60 120<115 171> 162 99<602 675> 366 90<603 675> 394 121<112 193 284 357>
LayerCount: 3
Fore
SplineSet
314 684 m 0x3d80
 283 684 261 663 261 639 c 0
 261 615 282 593 314 593 c 0
 343 593 366 615 366 639 c 0
 366 663 343 684 314 684 c 0x3d80
313 768 m 0
 397 768 456 711 456 639 c 0
 456 567 399 509 314 509 c 0
 229 509 162 567 162 639 c 0
 162 710 227 768 313 768 c 0
394 125 m 1xbe40
 394 193 l 1
 381 193 l 2
 250 193 180 180 180 142 c 0
 180 120 222 93 284 93 c 0
 295 93 348 94 394 125 c 1xbe40
288 491 m 0
 474 491 514 408 514 314 c 2
 514 0 l 1
 424 0 l 1x7e40
 411 32 l 1
 372 8 318 -10 258 -10 c 0
 138 -10 60 59 60 133 c 0
 60 257 213 282 394 284 c 1
 394 301 l 2
 394 341 385 385 272 385 c 0
 242 385 193 381 131 364 c 1
 112 358 l 1
 87 455 l 1
 104 460 l 1
 166 483 233 491 288 491 c 0
EndSplineSet
EndChar

StartChar: egrave
Encoding: 232 232 171
Width: 618
VWidth: 0
Flags: HW
HStem: -10 104<256 496> 184 101<187 437> 382 109<239 401>
LayerCount: 3
Fore
SplineSet
340 492 m 0
 545 492 555 340 555 238 c 2
 555 184 l 1
 186 184 l 1
 199 141 260 94 375 94 c 0
 421 94 461 103 488 111 c 2
 508 117 l 1
 532 24 l 1
 515 18 l 2
 472 3 413 -10 339 -10 c 0
 119 -10 63 115 63 227 c 0
 63 412 194 492 340 492 c 0
320 382 m 0
 239 382 195 336 187 284 c 1
 437 284 l 1
 432 358 386 382 320 382 c 0
254 765 m 1
 490 581 l 1
 425 501 l 1
 171 681 l 1
 254 765 l 1
EndSplineSet
EndChar

StartChar: eacute
Encoding: 233 233 172
Width: 618
VWidth: 0
Flags: HW
HStem: -10 104<256 496> 184 101<187 437> 382 109<239 401>
LayerCount: 3
Fore
SplineSet
340 492 m 0
 545 492 555 340 555 238 c 2
 555 184 l 1
 186 184 l 1
 199 141 260 94 375 94 c 0
 421 94 461 103 488 111 c 2
 508 117 l 1
 532 24 l 1
 515 18 l 2
 472 3 413 -10 339 -10 c 0
 119 -10 63 115 63 227 c 0
 63 412 194 492 340 492 c 0
320 382 m 0
 239 382 195 336 187 284 c 1
 437 284 l 1
 432 358 386 382 320 382 c 0
441 765 m 1
 512 681 l 1
 271 501 l 1
 196 581 l 1
 441 765 l 1
EndSplineSet
EndChar

StartChar: ecircumflex
Encoding: 234 234 173
Width: 618
VWidth: 0
Flags: HW
HStem: -10 104<256 496> 184 101<187 437> 382 109<239 401>
LayerCount: 3
Fore
SplineSet
340 492 m 0
 545 492 555 340 555 238 c 2
 555 184 l 1
 186 184 l 1
 199 141 260 94 375 94 c 0
 421 94 461 103 488 111 c 2
 508 117 l 1
 532 24 l 1
 515 18 l 2
 472 3 413 -10 339 -10 c 0
 119 -10 63 115 63 227 c 0
 63 412 194 492 340 492 c 0
320 382 m 0
 239 382 195 336 187 284 c 1
 437 284 l 1
 432 358 386 382 320 382 c 0
356 737 m 1
 521 567 l 1
 447 496 l 1
 348 591 l 1
 245 498 l 1
 162 562 l 1
 356 737 l 1
EndSplineSet
EndChar

StartChar: igrave
Encoding: 236 236 174
Width: 295
VWidth: 0
Flags: HW
HStem: 0 10G<96 216> 473 10G<96 216>
VStem: 96 120<0 482>
LayerCount: 3
Fore
SplineSet
96 482 m 1
 216 482 l 1
 216 0 l 1
 96 0 l 1
 96 482 l 1
71 765 m 1
 278 581 l 1
 215 501 l 1
 0 681 l 1
 71 765 l 1
EndSplineSet
EndChar

StartChar: iacute
Encoding: 237 237 175
Width: 295
VWidth: 0
Flags: HW
HStem: 0 10G<95 215> 473 10G<95 215>
VStem: 95 120<0 482>
LayerCount: 3
Fore
SplineSet
95 482 m 1
 215 482 l 1
 215 0 l 1
 95 0 l 1
 95 482 l 1
262 765 m 1
 333 681 l 1
 118 501 l 1
 55 581 l 1
 262 765 l 1
EndSplineSet
EndChar

StartChar: icircumflex
Encoding: 238 238 176
Width: 298
VWidth: 0
Flags: HW
HStem: 0 10G<96 216> 473 10G<96 216>
VStem: 96 120<0 482>
LayerCount: 3
Fore
SplineSet
96 482 m 1
 216 482 l 1
 216 0 l 1
 96 0 l 1
 96 482 l 1
159 739 m 1
 296 566 l 1
 222 495 l 1
 152 583 l 1
 81 497 l 1
 8 562 l 1
 159 739 l 1
EndSplineSet
EndChar

StartChar: ograve
Encoding: 242 242 177
Width: 671
VWidth: 0
Flags: HW
HStem: -10 108<257 424> 383 108<248 415>
VStem: 63 118<173 319> 490 118<164 313>
LayerCount: 3
Fore
SplineSet
291 765 m 1
 523 581 l 1
 456 501 l 1
 208 681 l 1
 291 765 l 1
331 383 m 0
 259 383 182 340 182 249 c 0
 182 166 245 99 340 99 c 0
 423 99 490 152 490 236 c 0
 490 335 406 383 331 383 c 0
339 492 m 0
 496 492 608 406 608 250 c 0
 608 89 499 -10 330 -10 c 0
 170 -10 63 82 63 236 c 0
 63 393 169 492 339 492 c 0
EndSplineSet
EndChar

StartChar: oacute
Encoding: 243 243 178
Width: 671
VWidth: 0
Flags: HW
HStem: -10 108<257 424> 383 108<248 415>
VStem: 63 118<173 319> 490 118<164 313>
LayerCount: 3
Fore
SplineSet
339 492 m 0
 496 492 608 406 608 250 c 0
 608 89 499 -10 330 -10 c 0
 170 -10 63 82 63 236 c 0
 63 393 169 492 339 492 c 0
331 383 m 0
 259 383 182 340 182 249 c 0
 182 166 245 99 340 99 c 0
 423 99 490 152 490 236 c 0
 490 335 406 383 331 383 c 0
395 765 m 1
 477 681 l 1
 229 501 l 1
 160 581 l 1
 395 765 l 1
EndSplineSet
EndChar

StartChar: ocircumflex
Encoding: 244 244 179
Width: 671
VWidth: 0
Flags: HW
HStem: -10 108<257 424> 383 108<248 415>
VStem: 63 118<173 319> 490 118<164 313>
LayerCount: 3
Fore
SplineSet
339 492 m 0
 496 492 608 406 608 250 c 0
 608 89 499 -10 330 -10 c 0
 170 -10 63 82 63 236 c 0
 63 393 169 492 339 492 c 0
331 383 m 0
 259 383 182 340 182 249 c 0
 182 166 245 99 340 99 c 0
 423 99 490 152 490 236 c 0
 490 335 406 383 331 383 c 0
347 737 m 1
 518 567 l 1
 437 496 l 1
 339 591 l 1
 239 498 l 1
 158 562 l 1
 347 737 l 1
EndSplineSet
EndChar

StartChar: otilde
Encoding: 245 245 180
Width: 671
VWidth: 0
Flags: HW
HStem: -10 108<257 424> 383 108<248 415> 519 99<397 451> 607 99<227 287>
VStem: 63 118<173 319> 490 118<164 313>
LayerCount: 3
Fore
SplineSet
467 710 m 1xec
 560 695 l 1
 547 633 l 2
 544 615 529 519 437 519 c 1xec
 328 523 280 607 249 607 c 0
 228 607 222 573 219 559 c 2
 209 516 l 1
 117 529 l 1
 129 591 l 2
 133 610 147 706 245 706 c 1xdc
 352 702 404 617 433 617 c 0
 453 617 458 660 459 666 c 2
 467 710 l 1xec
331 383 m 0
 259 383 182 340 182 249 c 0
 182 166 245 99 340 99 c 0
 423 99 490 152 490 236 c 0
 490 335 406 383 331 383 c 0
339 492 m 0
 496 492 608 406 608 250 c 0
 608 89 499 -10 330 -10 c 0
 170 -10 63 82 63 236 c 0
 63 393 169 492 339 492 c 0
EndSplineSet
EndChar

StartChar: ugrave
Encoding: 249 249 181
Width: 654
VWidth: 0
Flags: HW
HStem: -10 112<238 407> 0 10G<473 567> 473 10G<88 208 447 567>
VStem: 88 120<133 482> 447 120<122 482>
LayerCount: 3
Fore
SplineSet
447 482 m 1xb8
 567 482 l 1
 567 0 l 1
 478 0 l 1x78
 463 33 l 1
 384 -1 318 -10 274 -10 c 0
 110 -10 88 99 88 197 c 2
 88 482 l 1
 208 482 l 1
 208 198 l 2
 208 166 212 102 316 102 c 0
 365 102 417 118 447 129 c 1
 447 482 l 1xb8
260 765 m 1
 498 581 l 1
 432 501 l 1
 180 681 l 1
 260 765 l 1
EndSplineSet
EndChar

StartChar: uacute
Encoding: 250 250 182
Width: 654
VWidth: 0
Flags: HW
HStem: -10 112<238 407> 0 10G<473 567> 473 10G<88 208 447 567>
VStem: 88 120<133 482> 447 120<122 482>
LayerCount: 3
Fore
SplineSet
447 482 m 1xb8
 567 482 l 1
 567 0 l 1
 478 0 l 1x78
 463 33 l 1
 384 -1 318 -10 274 -10 c 0
 110 -10 88 99 88 197 c 2
 88 482 l 1
 208 482 l 1
 208 198 l 2
 208 166 212 102 316 102 c 0
 365 102 417 118 447 129 c 1
 447 482 l 1xb8
434 765 m 1
 507 681 l 1
 262 501 l 1
 189 581 l 1
 434 765 l 1
EndSplineSet
EndChar

StartChar: ucircumflex
Encoding: 251 251 183
Width: 654
VWidth: 0
Flags: HW
HStem: -10 112<238 407> 0 10G<473 567> 473 10G<88 208 447 567>
VStem: 88 120<133 482> 447 120<122 482>
LayerCount: 3
Fore
SplineSet
447 482 m 1xb8
 567 482 l 1
 567 0 l 1
 478 0 l 1x78
 463 33 l 1
 384 -1 318 -10 274 -10 c 0
 110 -10 88 99 88 197 c 2
 88 482 l 1
 208 482 l 1
 208 198 l 2
 208 166 212 102 316 102 c 0
 365 102 417 118 447 129 c 1
 447 482 l 1xb8
341 737 m 1
 511 567 l 1
 435 496 l 1
 333 591 l 1
 229 498 l 1
 152 562 l 1
 341 737 l 1
EndSplineSet
EndChar

StartChar: yacute
Encoding: 253 253 184
Width: 592
VWidth: 0
Flags: HW
HStem: 473 10G<24 155 457 587>
LayerCount: 3
Fore
SplineSet
24 482 m 1
 151 482 l 1
 312 112 l 1
 460 482 l 1
 587 482 l 1
 269 -259 l 1
 124 -259 l 1
 244 1 l 1
 24 482 l 1
443 765 m 1
 517 681 l 1
 278 501 l 1
 206 581 l 1
 443 765 l 1
EndSplineSet
EndChar

StartChar: ntilde
Encoding: 241 241 185
Width: 654
VWidth: 0
Flags: HW
HStem: 0 10G<88 208 446 567> 380 112<248 417> 473 10G<88 181> 519 99<408 461> 607 99<239 297>
VStem: 88 120<0 360> 446 121<0 349>
LayerCount: 3
Fore
SplineSet
477 710 m 1x96
 570 696 l 1
 557 634 l 2
 554 616 539 519 447 519 c 1x96
 339 523 292 607 261 607 c 0
 241 607 234 574 231 560 c 2
 221 516 l 1
 126 530 l 1
 139 592 l 2
 143 611 157 706 257 706 c 1x8e
 364 702 413 618 442 618 c 0
 462 618 467 657 469 666 c 2
 477 710 l 1x96
88 482 m 1xa6
 177 482 l 1xa6
 191 449 l 1
 270 483 336 492 380 492 c 0
 544 492 567 383 567 285 c 2
 567 0 l 1
 446 0 l 1
 446 283 l 2
 446 317 442 380 339 380 c 0xc6
 290 380 238 364 208 353 c 1
 208 0 l 1
 88 0 l 1
 88 482 l 1xa6
EndSplineSet
EndChar

StartChar: eth
Encoding: 240 240 186
Width: 691
VWidth: 1023
Flags: HW
HStem: -10 105<260 411> 394 70<245 428> 690 10G<533 556>
VStem: 63 118<174 319> 486 117<179 354>
LayerCount: 3
Fore
SplineSet
181 255 m 0
 181 162 253 96 336 96 c 0
 382 96 463 117 481 235 c 0
 485 267 486 301 486 327 c 2
 486 346 l 1
 409 386 360 394 327 394 c 0
 244 394 181 339 181 255 c 0
290 711 m 2
 348 697 403 675 452 645 c 1
 551 700 l 1
 598 619 l 1
 527 578 l 1
 588 508 604 426 604 332 c 0
 604 160 566 -10 327 -10 c 0
 166 -10 63 74 63 212 c 0
 63 348 157 464 315 464 c 0
 349 464 399 460 473 431 c 1
 462 463 443 491 412 518 c 1
 307 465 l 1
 253 546 l 1
 320 580 l 1
 295 592 269 602 242 610 c 2
 217 618 l 1
 271 716 l 1
 290 711 l 2
EndSplineSet
EndChar

StartChar: thorn
Encoding: 254 254 187
Width: 676
VWidth: 1023
Flags: HW
HStem: -11 108<258 426> 381 109<261 420> 684 10G<93 219>
VStem: 93 126<-259 21 135 339 456 694> 495 118<161 311>
LayerCount: 3
Back
SplineSet
298.34 420.898 m 4
 185.547 420.898 168.457 314.453 168.457 228.027 c 4
 168.457 176.27 175.293 57.1289 300.293 57.1289 c 4
 361.816 57.1289 454.59 101.074 454.59 234.863 c 4
 454.59 357.422 373.535 420.898 298.34 420.898 c 4
312.012 489.746 m 4
 431.641 489.746 532.715 400.879 532.715 249.023 c 4
 532.715 97.6562 435.547 -11.2305 307.617 -11.2305 c 4
 259.277 -11.2305 209.473 6.83594 172.852 41.0156 c 5
 172.852 -259.277 l 5
 92.7734 -259.277 l 5
 92.7734 693.848 l 5
 172.852 693.848 l 5
 172.852 432.129 l 5
 208.984 472.656 261.23 489.746 312.012 489.746 c 4
EndSplineSet
Fore
SplineSet
339 381 m 0
 262 381 213 343 213 229 c 0
 213 174 227 97 341 97 c 0
 402 97 495 130 495 235 c 0
 495 333 412 381 339 381 c 0
354 490 m 0
 501 490 613 400 613 249 c 0
 613 100 508 -11 350 -11 c 0
 305 -11 259 0 219 21 c 1
 219 -259 l 1
 93 -259 l 1
 93 694 l 1
 219 694 l 1
 219 456 l 1
 260 480 308 490 354 490 c 0
EndSplineSet
EndChar

StartChar: Eth
Encoding: 208 208 188
Width: 863
VWidth: 1023
Flags: HW
HStem: 0 113<287 531> 301 113<57 164 287 414> 581 113<287 536>
VStem: 164 123<113 301 415 581> 684 124<240 449>
LayerCount: 3
Fore
SplineSet
164 694 m 1
 396 694 l 2
 503 694 808 678 808 367 c 0
 808 21 508 0 365 0 c 2
 164 0 l 1
 164 301 l 1
 57 301 l 1
 57 415 l 1
 164 415 l 1
 164 694 l 1
402 581 m 2
 287 581 l 1
 287 415 l 1
 414 415 l 1
 414 301 l 1
 287 301 l 1
 287 113 l 1
 368 113 l 2
 492 113 684 128 684 351 c 0
 684 448 632 581 402 581 c 2
EndSplineSet
EndChar

StartChar: Oslash
Encoding: 216 216 189
Width: 937
VWidth: 0
Flags: HW
HStem: -7 113<379 587> -0 10G<122 142> 588 113<374 583>
VStem: 115 126<245 460> 721 126<239 455>
LayerCount: 3
Back
SplineSet
827.988 692.007 m 29
 77.6553 62.4023 l 29
 130.384 -0.436523 l 29
 880.718 629.17 l 29
 827.988 692.007 l 29
481.445 701.172 m 4
 693.359 701.172 847.168 568.848 847.168 354.492 c 4
 847.168 139.16 697.266 -7.32422 477.539 -7.32422 c 4
 289.062 -7.32422 114.746 108.887 114.746 345.215 c 4
 114.746 562.5 266.602 701.172 481.445 701.172 c 4
476.562 588.379 m 4
 362.793 588.379 240.723 518.066 240.723 354.98 c 4
 240.723 200.684 349.121 105.469 484.863 105.469 c 4
 596.68 105.469 721.191 176.27 721.191 346.191 c 4
 721.191 518.066 589.844 588.379 476.562 588.379 c 4
EndSplineSet
Fore
SplineSet
477 588 m 0x38
 363 588 241 518 241 355 c 0
 241 305 252 261 272 225 c 1
 639 534 l 1
 592 572 533 588 477 588 c 0x38
828 692 m 1
 881 629 l 1
 791 554 l 1
 827 500 847 432 847 354 c 0
 847 139 698 -7 478 -7 c 0xb8
 384 -7 293 22 226 80 c 1
 130 -0 l 1x78
 78 62 l 1
 172 141 l 1
 136 194 115 262 115 345 c 0
 115 562 266 701 481 701 c 0
 583 701 672 671 736 615 c 1
 828 692 l 1
692 471 m 1
 324 162 l 1
 367 126 423 105 485 105 c 0
 597 105 721 176 721 346 c 0
 721 396 711 437 692 471 c 1
EndSplineSet
EndChar

StartChar: logicalnot
Encoding: 172 172 190
Width: 683
VWidth: 1023
Flags: HW
HStem: 265 113<41 530>
VStem: 530 112<118 265>
LayerCount: 3
Fore
SplineSet
41 377 m 1
 643 377 l 1
 643 118 l 1
 530 118 l 1
 530 265 l 1
 41 265 l 1
 41 377 l 1
EndSplineSet
EndChar

StartChar: macron
Encoding: 175 175 191
Width: 683
VWidth: 1023
Flags: HW
HStem: 708 113<119 564>
LayerCount: 3
Fore
SplineSet
119 821 m 1
 564 821 l 1
 564 708 l 1
 119 708 l 1
 119 821 l 1
EndSplineSet
EndChar

StartChar: ordfeminine
Encoding: 170 170 192
Width: 374
VWidth: 1023
Flags: HW
HStem: 350 63<149 236> 485 65<152 243> 603 63<89 235>
VStem: 73 72<419 476> 243 72<423 485 550 594>
LayerCount: 3
Fore
SplineSet
243 485 m 1
 242 485 l 2
 178 485 145 476 145 448 c 0
 145 434 160 414 192 414 c 0
 211 414 229 424 243 444 c 1
 243 485 l 1
243 550 m 1
 243 569 239 603 186 603 c 0
 154 603 114 592 106 590 c 2
 94 586 l 1
 80 644 l 1
 90 647 l 1
 122 659 156 666 191 666 c 0
 309 666 315 592 315 552 c 2
 315 359 l 1
 261 359 l 1
 254 376 l 1
 235 360 211 350 185 350 c 0
 122 350 73 385 73 447 c 0
 73 531 134 549 243 550 c 1
EndSplineSet
EndChar

StartChar: Thorn
Encoding: 222 222 193
Width: 727
VWidth: 1023
Flags: HW
HStem: 0 10G<142 265> 139 112<265 505> 472 99<265 507> 684 10G<142 265>
VStem: 142 123<0 141 254 470 566 694> 559 125<298 426>
LayerCount: 3
Fore
SplineSet
367 472 m 0
 332 472 299 471 265 469 c 1
 265 254 l 1
 307 252 335 251 352 251 c 2
 367 251 l 2
 462 251 559 261 559 367 c 0
 559 459 467 472 367 472 c 0
142 694 m 1
 265 694 l 1
 265 566 l 1
 307 569 349 571 393 571 c 0
 558 571 684 532 684 377 c 0
 684 299 652 189 525 155 c 1
 489 146 429 139 334 139 c 0
 311 139 288 140 265 141 c 1
 265 0 l 1
 142 0 l 1
 142 694 l 1
EndSplineSet
EndChar

StartChar: quotedblleft
Encoding: 8220 8220 194
Width: 405
VWidth: 1023
Flags: HW
HStem: 506 251<65 130 251 315>
LayerCount: 3
Fore
SplineSet
388 758 m 1
 315 506 l 1
 178 506 l 1
 251 758 l 1
 388 758 l 1
203 758 m 1
 130 506 l 1
 -7 506 l 1
 65 758 l 1
 203 758 l 1
EndSplineSet
EndChar

StartChar: quotedblright
Encoding: 8221 8221 195
Width: 405
VWidth: 1023
Flags: HW
HStem: 506 251<65 130 251 315>
LayerCount: 3
Fore
SplineSet
251 758 m 1
 388 758 l 1
 315 506 l 1
 178 506 l 1
 251 758 l 1
65 758 m 1
 203 758 l 1
 130 506 l 1
 -7 506 l 1
 65 758 l 1
EndSplineSet
EndChar

StartChar: Ydieresis
Encoding: 376 376 196
Width: 696
VWidth: 0
Flags: HW
HStem: 0 10G<306 444> 684 10G<49 201 562 710> 796 130<184 328 428 574>
VStem: 184 145<796 927> 306 138<0 324> 428 146<796 927>
LayerCount: 3
Fore
SplineSet
49 694 m 1xe8
 194 694 l 1
 380 425 l 1
 569 694 l 1
 710 694 l 1
 444 324 l 1
 444 0 l 1
 306 0 l 1
 306 324 l 1
 49 694 l 1xe8
428 927 m 1xe4
 574 927 l 1
 574 796 l 1
 428 796 l 1
 428 927 l 1xe4
184 927 m 1xf0
 328 927 l 1
 328 796 l 1
 184 796 l 1
 184 927 l 1xf0
EndSplineSet
EndChar

StartChar: zcaron
Encoding: 382 382 197
Width: 606
VWidth: 0
Flags: HW
HStem: 0 103<245 533> 379 103<73 345>
LayerCount: 3
Fore
SplineSet
73 482 m 1
 521 482 l 1
 521 420 l 1
 245 103 l 1
 533 103 l 1
 533 0 l 1
 73 0 l 1
 73 62 l 1
 345 379 l 1
 73 379 l 1
 73 482 l 1
291 500 m 1
 121 669 l 1
 195 740 l 1
 299 646 l 1
 405 739 l 1
 480 675 l 1
 291 500 l 1
EndSplineSet
EndChar

StartChar: Zcaron
Encoding: 381 381 198
Width: 743
VWidth: 0
Flags: HW
HStem: 0 113<252 714> 581 113<90 514>
LayerCount: 3
Fore
SplineSet
90 694 m 1
 701 694 l 1
 701 619 l 1
 252 113 l 1
 714 113 l 1
 714 0 l 1
 76 0 l 1
 76 76 l 1
 514 581 l 1
 90 581 l 1
 90 694 l 1
389 711 m 1
 220 881 l 1
 302 952 l 1
 397 857 l 1
 494 951 l 1
 575 886 l 1
 389 711 l 1
EndSplineSet
EndChar

StartChar: Scaron
Encoding: 352 352 199
Width: 744
VWidth: 0
Flags: HW
HStem: -10 122<249 500> 558 114<547 627> 582 118<327 596>
VStem: 137 134<462 540> 550 132<154 238>
LayerCount: 3
Fore
SplineSet
407 711 m 1x98
 233 881 l 1
 318 952 l 1
 415 857 l 1
 514 951 l 1
 593 886 l 1
 407 711 l 1x98
453 700 m 0xb8
 534 700 606 683 645 671 c 2
 665 666 l 1
 625 552 l 1
 606 558 l 1xd8
 535 578 479 582 445 582 c 0
 352 582 271 549 271 499 c 0
 271 380 682 423 682 200 c 0
 682 106 601 -10 370 -10 c 0
 272 -10 202 13 135 39 c 1
 117 45 l 1
 159 164 l 1
 178 156 l 1
 271 123 339 112 381 112 c 0
 481 112 550 146 550 196 c 0
 550 328 137 272 137 493 c 0
 137 606 256 700 453 700 c 0xb8
EndSplineSet
EndChar

StartChar: scaron
Encoding: 353 353 200
Width: 576
VWidth: 0
Flags: HW
HStem: -10 103<150 379> 372 100<346 471> 389 103<226 475>
VStem: 81 127<319 369> 394 129<111 164>
LayerCount: 3
Fore
SplineSet
394 144 m 1xb8
 389 205 81 183 81 341 c 0
 81 400 135 492 343 492 c 0xb8
 418 492 448 481 482 471 c 2
 502 465 l 1
 469 367 l 1
 450 372 l 2xd8
 418 381 384 389 327 389 c 0
 220 389 208 352 208 340 c 0
 208 285 523 292 523 143 c 0
 523 80 478 -10 269 -10 c 0
 221 -10 155 -2 82 28 c 2
 63 36 l 1
 100 133 l 1
 118 126 l 1
 182 102 226 93 273 93 c 0
 357 93 394 110 394 144 c 1xb8
491 675 m 1
 306 500 l 1
 131 669 l 1
 211 740 l 1
 315 646 l 1
 417 739 l 1
 491 675 l 1
EndSplineSet
EndChar

StartChar: Euro
Encoding: 8364 8364 201
Width: 651
VWidth: 1023
Flags: HW
HStem: -30 116<352 561> 226 104<4 103 242 432> 394 104<36 105 255 463> 605 113<343 546>
VStem: 103 115<330 394>
LayerCount: 3
Fore
SplineSet
117 226 m 1
 4 226 l 1
 4 330 l 1
 103 330 l 1
 103 335 103 340 103 346 c 0
 103 362 104 378 105 394 c 1
 36 394 l 1
 36 498 l 1
 127 498 l 1
 174 633 288 719 435 719 c 0
 506 719 567 700 612 680 c 2
 629 673 l 1
 594 566 l 1
 574 574 l 1
 494 605 447 605 433 605 c 0
 355 605 292 563 255 498 c 1
 463 498 l 1
 463 394 l 1
 221 394 l 1
 219 378 217 363 217 346 c 0
 217 341 218 335 218 330 c 1
 432 330 l 1
 432 226 l 1
 242 226 l 1
 277 146 347 86 448 86 c 0
 488 86 532 94 583 114 c 2
 602 122 l 1
 638 24 l 1
 622 16 l 2
 574 -7 507 -30 430 -30 c 0
 273 -30 156 74 117 226 c 1
EndSplineSet
EndChar

StartChar: emdash
Encoding: 8212 8212 202
Width: 715
VWidth: 1023
Flags: HW
HStem: 268 108<0 716>
LayerCount: 3
Fore
SplineSet
0 375 m 5
 716 375 l 5
 716 268 l 5
 0 268 l 5
 0 375 l 5
EndSplineSet
EndChar

StartChar: endash
Encoding: 8211 8211 203
Width: 605
VWidth: 1023
Flags: HW
HStem: 268 108<0 606>
LayerCount: 3
Fore
SplineSet
0 375 m 5
 606 375 l 5
 606 268 l 5
 0 268 l 5
 0 375 l 5
EndSplineSet
EndChar

StartChar: afii00208
Encoding: 8213 8213 204
Width: 821
VWidth: 1023
Flags: HW
HStem: 268 108<0 821>
LayerCount: 3
Fore
SplineSet
0 375 m 5
 821 375 l 5
 821 268 l 5
 0 268 l 5
 0 375 l 5
EndSplineSet
EndChar

StartChar: ellipsis
Encoding: 8230 8230 205
Width: 839
VWidth: 1023
Flags: HW
HStem: -20 143<68 210 344 486 620 762>
VStem: 68 143<-20 123> 344 143<-20 123> 620 143<-20 123>
CounterMasks: 1 70
LayerCount: 3
Fore
SplineSet
68 123 m 1
 210 123 l 1
 210 -20 l 1
 68 -20 l 1
 68 123 l 1
344 123 m 1
 486 123 l 1
 486 -20 l 1
 344 -20 l 1
 344 123 l 1
620 123 m 1
 762 123 l 1
 762 -20 l 1
 620 -20 l 1
 620 123 l 1
EndSplineSet
EndChar

StartChar: bullet
Encoding: 8226 8226 206
Width: 312
VWidth: 1023
Flags: HW
HStem: 274 167<73 240>
VStem: 73 167<274 441>
LayerCount: 3
Fore
SplineSet
73 441 m 1
 240 441 l 1
 240 274 l 1
 73 274 l 1
 73 441 l 1
EndSplineSet
EndChar

StartChar: uni203D
Encoding: 8253 8253 207
Width: 510
VWidth: 1023
Flags: HW
HStem: -20 138<132 270> 612 110<81 288>
VStem: 132 138<-20 118> 144 113<171 266 412 547> 327 121<461 575>
LayerCount: 3
Fore
SplineSet
132 118 m 1xe8
 270 118 l 1
 270 -20 l 1
 132 -20 l 1
 132 118 l 1xe8
448 534 m 0
 448 335 257 341 257 191 c 2
 257 171 l 1
 144 171 l 1
 144 547 l 1
 257 547 l 1
 257 412 l 1xd8
 292 441 327 476 327 523 c 0
 327 559 303 612 199 612 c 0
 170 612 125 608 82 590 c 2
 63 583 l 1
 23 678 l 1
 40 687 l 2
 86 709 142 722 207 722 c 0
 320 722 448 684 448 534 c 0
EndSplineSet
EndChar

StartChar: quoteleft
Encoding: 8216 8216 208
Width: 219
VWidth: 1023
Flags: HW
HStem: 506 251<90 154>
VStem: 17 210
LayerCount: 3
Fore
SplineSet
17 758 m 1
 154 758 l 1
 227 506 l 1
 90 506 l 1
 17 758 l 1
EndSplineSet
EndChar

StartChar: quoteright
Encoding: 8217 8217 209
Width: 219
VWidth: 1023
Flags: HW
HStem: 506 251<65 130>
VStem: -7 210
LayerCount: 3
Fore
SplineSet
65 758 m 1
 203 758 l 1
 130 506 l 1
 -7 506 l 1
 65 758 l 1
EndSplineSet
EndChar

StartChar: fraction
Encoding: 8260 8260 210
Width: 505
VWidth: 0
Flags: HW
LayerCount: 3
Fore
SplineSet
399 714 m 1
 531 714 l 1
 107 -20 l 1
 -25 -20 l 1
 399 714 l 1
EndSplineSet
EndChar

StartChar: florin
Encoding: 402 402 211
Width: 480
VWidth: 1023
Flags: HW
HStem: -264 107<-42 128> -244 98<-39 53> 379 103<56 150 289 462> 580 98<387 481> 591 107<310 483>
VStem: 150 139<-138 379 482 568>
LayerCount: 3
Fore
SplineSet
56 482 m 1xa4
 150 482 l 1
 150 515 l 2
 150 546 152 583 175 618 c 0
 209 671 276 698 357 698 c 0xac
 406 698 452 687 482 678 c 2
 500 672 l 1
 479 575 l 1
 459 580 l 1x34
 423 589 402 591 387 591 c 0
 292 591 289 537 289 508 c 2
 289 482 l 1
 462 482 l 1
 462 379 l 1
 289 379 l 1
 289 -86 l 2
 289 -143 275 -264 83 -264 c 0xac
 59 -264 18 -262 -41 -244 c 2
 -58 -239 l 1
 -38 -141 l 1
 -18 -146 l 2x64
 -4 -149 26 -157 55 -157 c 0
 147 -157 150 -109 150 -77 c 2
 150 379 l 1
 56 379 l 1
 56 482 l 1xa4
EndSplineSet
EndChar

StartChar: guilsinglleft
Encoding: 8249 8249 212
Width: 296
VWidth: 1023
Flags: HW
VStem: 12 279
LayerCount: 3
Fore
SplineSet
150 502 m 1
 292 502 l 1
 143 304 l 1
 292 106 l 1
 151 106 l 1
 12 304 l 1
 150 502 l 1
EndSplineSet
EndChar

StartChar: guilsinglright
Encoding: 8250 8250 213
Width: 296
VWidth: 1023
Flags: HW
VStem: 5 279
LayerCount: 3
Fore
SplineSet
5 502 m 5
 146 502 l 5
 284 304 l 5
 146 106 l 5
 5 106 l 5
 154 304 l 5
 5 502 l 5
EndSplineSet
EndChar

StartChar: dagger
Encoding: 8224 8224 214
Width: 459
VWidth: 1023
Flags: HW
HStem: 548 96<63 175 285 397>
VStem: 175 110<52 553 639 758>
LayerCount: 3
Fore
SplineSet
175 553 m 1
 63 548 l 1
 63 644 l 1
 175 639 l 1
 175 758 l 1
 285 758 l 1
 285 639 l 1
 397 644 l 1
 397 548 l 1
 285 553 l 1
 285 52 l 1
 175 52 l 1
 175 553 l 1
EndSplineSet
EndChar

StartChar: daggerdbl
Encoding: 8225 8225 215
Width: 459
VWidth: 1023
Flags: HW
HStem: -23 96<63 175 285 397> 548 96<63 175 285 397>
VStem: 175 110<-137 -19 67 553 639 758>
LayerCount: 3
Fore
SplineSet
175 553 m 1
 63 548 l 1
 63 644 l 1
 175 639 l 1
 175 758 l 1
 285 758 l 1
 285 639 l 1
 397 644 l 1
 397 548 l 1
 285 553 l 1
 285 67 l 1
 397 72 l 1
 397 -23 l 1
 285 -19 l 1
 285 -137 l 1
 175 -137 l 1
 175 -19 l 1
 63 -23 l 1
 63 72 l 1
 175 67 l 1
 175 553 l 1
EndSplineSet
EndChar

StartChar: quotesinglbase
Encoding: 8218 8218 216
Width: 219
VWidth: 1023
Flags: HW
HStem: -125 251<65 130>
VStem: -7 210
LayerCount: 3
Fore
SplineSet
65 126 m 1
 203 126 l 1
 130 -125 l 1
 -7 -125 l 1
 65 126 l 1
EndSplineSet
EndChar

StartChar: quotedblbase
Encoding: 8222 8222 217
Width: 405
VWidth: 1023
Flags: HW
HStem: -127 251<65 130 251 315>
LayerCount: 3
Fore
SplineSet
251 125 m 1
 388 125 l 1
 315 -127 l 1
 178 -127 l 1
 251 125 l 1
65 125 m 1
 203 125 l 1
 130 -127 l 1
 -7 -127 l 1
 65 125 l 1
EndSplineSet
EndChar

StartChar: perthousand
Encoding: 8240 8240 218
Width: 937
VWidth: 1023
Flags: HW
HStem: 12 85<442 510 739 806> 237 87<441 510 738 806> 374 86<126 193> 599 86<125 194>
VStem: 28 88<468 593> 203 87<467 593> 345 87<106 231> 520 88<105 231> 641 87<106 231> 816 88<105 231>
LayerCount: 3
Fore
SplineSet
504 714 m 1
 636 714 l 1
 135 -20 l 1
 3 -20 l 1
 504 714 l 1
904 171 m 0
 904 72 846 12 772 12 c 0
 708 12 641 51 641 172 c 0
 641 274 706 324 772 324 c 0
 828 324 904 293 904 171 c 0
772 237 m 0
 737 237 729 205 729 172 c 0
 729 135 737 98 772 98 c 0
 807 98 816 133 816 170 c 0
 816 231 790 237 772 237 c 0
607 171 m 0
 607 72 550 12 476 12 c 0
 412 12 345 51 345 172 c 0
 345 274 410 324 476 324 c 0
 532 324 607 293 607 171 c 0
476 237 m 0
 441 237 432 205 432 172 c 0
 432 135 441 98 476 98 c 0
 511 98 520 133 520 170 c 0
 520 231 494 237 476 237 c 0
291 533 m 0
 291 434 233 374 159 374 c 0
 95 374 28 413 28 534 c 0
 28 636 94 686 160 686 c 0
 214 686 291 657 291 533 c 0
159 599 m 0
 124 599 116 567 116 534 c 0
 116 497 125 459 160 459 c 0
 195 459 203 495 203 532 c 0
 203 593 177 599 159 599 c 0
EndSplineSet
EndChar

StartChar: circumflex
Encoding: 710 710 219
Width: 722
VWidth: 1023
Flags: HW
HStem: 541 241
VStem: 188 319
LayerCount: 3
Fore
SplineSet
354 782 m 1
 507 612 l 1
 433 541 l 1
 347 636 l 1
 261 542 l 1
 188 607 l 1
 354 782 l 1
EndSplineSet
EndChar

StartChar: tilde
Encoding: 732 732 220
Width: 683
VWidth: 1023
Flags: HW
HStem: 585 100<397 456> 674 100<249 306>
LayerCount: 3
Fore
SplineSet
430 685 m 0x80
 451 685 463 721 484 762 c 1
 493 779 l 1
 581 740 l 1
 572 722 l 2
 549 674 515 585 430 585 c 1x80
 339 589 304 674 273 674 c 0
 252 674 240 637 219 595 c 2
 210 578 l 1
 123 617 l 1
 131 636 l 2
 154 684 188 773 273 773 c 1x40
 364 769 398 685 430 685 c 0x80
EndSplineSet
EndChar

StartChar: ring
Encoding: 730 730 221
Width: 529
VWidth: 0
Flags: HW
HStem: 529 84<248 319> 704 84<247 318>
VStem: 156 84<619 697> 326 85<620 698>
LayerCount: 3
Fore
SplineSet
284 704 m 0
 259 704 240 683 240 659 c 0
 240 635 258 613 284 613 c 0
 307 613 326 635 326 659 c 0
 326 683 308 704 284 704 c 0
411 659 m 0
 411 587 354 529 284 529 c 0
 215 529 156 587 156 659 c 0
 156 730 213 788 283 788 c 0
 352 788 411 731 411 659 c 0
EndSplineSet
EndChar

StartChar: breve
Encoding: 728 728 222
Width: 526
VWidth: 0
Flags: HW
HStem: 528 107<197 318>
LayerCount: 3
Fore
SplineSet
47 684 m 5
 141 734 l 5
 150 716 l 6
 158 698 192 636 255 636 c 4
 306 636 355 682 383 719 c 5
 395 734 l 5
 483 674 l 5
 470 657 l 5
 418 589 336 528 247 528 c 4
 145 528 78 601 53 668 c 6
 47 684 l 5
EndSplineSet
EndChar

StartChar: caron
Encoding: 711 711 223
Width: 526
VWidth: 0
Flags: HW
HStem: 520 241
VStem: 101 319
LayerCount: 3
Fore
SplineSet
253 520 m 1
 101 689 l 1
 175 760 l 1
 260 666 l 1
 347 759 l 1
 420 695 l 1
 253 520 l 1
EndSplineSet
EndChar

StartChar: dotaccent
Encoding: 729 729 224
Width: 585
VWidth: 0
Flags: HW
HStem: 582 143<217 359>
VStem: 217 143<582 724>
LayerCount: 3
Fore
SplineSet
217 724 m 1
 359 724 l 1
 359 582 l 1
 217 582 l 1
 217 724 l 1
EndSplineSet
EndChar

StartChar: trademark
Encoding: 8482 8482 225
Width: 695
VWidth: 1023
Flags: HW
HStem: 448 302<127 199 325 397 557 629> 687 63<42 127 199 285>
VStem: 127 72<448 687> 325 72<448 629> 557 72<448 630>
LayerCount: 3
Fore
SplineSet
199 448 m 1xb8
 127 448 l 1xb8
 127 687 l 1
 42 687 l 1
 42 750 l 1
 285 750 l 1
 285 687 l 1
 199 687 l 1x78
 199 448 l 1xb8
325 750 m 1
 401 750 l 1
 478 609 l 1
 551 750 l 1x78
 629 750 l 1
 629 448 l 1
 557 448 l 1
 557 630 l 1
 499 522 l 1
 451 522 l 1
 397 629 l 1
 397 448 l 1
 325 448 l 1
 325 750 l 1
EndSplineSet
EndChar

StartChar: Amacron
Encoding: 256 256 226
Width: 755
VWidth: 0
Flags: HW
HStem: 0 10G<63 187 617 748> 182 113<303 500> 684 10G<335 477> 726 103<187 627>
LayerCount: 3
Fore
SplineSet
338 694 m 1
 473 694 l 1
 748 0 l 1
 621 0 l 1
 543 182 l 1
 260 182 l 1
 183 0 l 1
 63 0 l 1
 338 694 l 1
500 294 m 1
 402 552 l 1
 303 294 l 1
 500 294 l 1
187 829 m 1
 627 829 l 1
 627 726 l 1
 187 726 l 1
 187 829 l 1
EndSplineSet
EndChar

StartChar: amacron
Encoding: 257 257 227
Width: 602
VWidth: 0
Flags: HW
HStem: -10 103<200 372> 0 10G<420 514> 193 91<202 394> 385 106<134 368> 548 103<129 469>
VStem: 60 120<115 171> 394 121<112 193 284 361>
LayerCount: 3
Fore
SplineSet
129 651 m 1x3e
 469 651 l 1
 469 548 l 1
 129 548 l 1
 129 651 l 1x3e
394 125 m 1
 394 193 l 1
 381 193 l 2
 250 193 180 180 180 142 c 0
 180 120 222 93 284 93 c 0xbe
 295 93 348 94 394 125 c 1
288 492 m 0
 464 492 514 419 514 315 c 2
 514 0 l 1
 424 0 l 1x7e
 411 32 l 1
 372 8 318 -10 258 -10 c 0
 138 -10 60 59 60 133 c 0
 60 257 213 282 394 284 c 1
 394 301 l 2
 394 341 385 385 272 385 c 0
 242 385 193 381 131 364 c 1
 112 358 l 1
 87 455 l 1
 104 460 l 1
 162 481 227 492 288 492 c 0
EndSplineSet
EndChar

StartChar: Abreve
Encoding: 258 258 228
Width: 755
VWidth: 0
Flags: HW
HStem: 0 10G<63 187 617 748> 182 113<303 500> 684 10G<335 477> 720 107<343 476>
LayerCount: 3
Fore
SplineSet
178 876 m 1
 282 926 l 1
 292 908 l 2
 301 890 338 828 407 828 c 0
 463 828 517 874 548 911 c 2
 561 926 l 1
 655 866 l 1
 642 849 l 1
 587 781 496 720 398 720 c 0
 286 720 212 792 185 860 c 1
 178 876 l 1
500 294 m 1
 402 552 l 1
 303 294 l 1
 500 294 l 1
338 694 m 1
 473 694 l 1
 748 0 l 1
 621 0 l 1
 543 182 l 1
 260 182 l 1
 183 0 l 1
 63 0 l 1
 338 694 l 1
EndSplineSet
EndChar

StartChar: abreve
Encoding: 259 259 229
Width: 602
VWidth: 0
Flags: HW
HStem: -10 103<201 368> 0 10G<419 514> 193 90<206 386> 385 106<130 362> 508 107<239 383>
VStem: 60 120<115 171> 388 126<112 193 284 357>
LayerCount: 3
Fore
SplineSet
79 664 m 1x3e
 173 714 l 1
 183 696 l 1
 193 678 232 616 307 616 c 0
 368 616 426 662 455 699 c 2
 467 714 l 1
 555 654 l 1
 542 637 l 1
 490 569 404 508 298 508 c 0
 177 508 110 581 85 648 c 2
 79 664 l 1x3e
388 125 m 1
 388 193 l 1
 376 193 l 2
 248 193 180 180 180 142 c 0
 180 120 221 93 281 93 c 0xbe
 292 93 343 94 388 125 c 1
284 491 m 0
 473 491 514 408 514 314 c 2
 514 0 l 1
 424 0 l 1x7e
 408 32 l 1
 366 8 314 -10 255 -10 c 0
 137 -10 60 59 60 133 c 0
 60 257 211 282 386 284 c 1
 386 301 l 2
 386 341 378 385 269 385 c 0
 240 385 193 381 131 364 c 2
 112 358 l 1
 87 455 l 1
 104 460 l 1
 166 483 231 491 284 491 c 0
EndSplineSet
EndChar

StartChar: Cacute
Encoding: 262 262 230
Width: 788
VWidth: 0
Flags: HW
HStem: -10 116<422 678> 585 113<412 666>
VStem: 134 124<256 439>
LayerCount: 3
Fore
SplineSet
585 973 m 1
 646 877 l 1
 328 713 l 1
 273 800 l 1
 585 973 l 1
134 346 m 0
 134 546 280 699 530 699 c 0
 590 699 664 689 737 660 c 1
 755 653 l 1
 717 547 l 1
 698 554 l 1
 618 581 562 585 527 585 c 0
 360 585 258 472 258 347 c 0
 258 218 367 106 547 106 c 0
 596 106 653 116 707 135 c 2
 725 141 l 1
 765 43 l 1
 747 36 l 2
 674 5 594 -10 523 -10 c 0
 273 -10 134 149 134 346 c 0
EndSplineSet
EndChar

StartChar: cacute
Encoding: 263 263 231
Width: 568
VWidth: 0
Flags: HW
HStem: -10 106<256 477> 382 109<247 479>
VStem: 63 118<165 322>
LayerCount: 3
Fore
SplineSet
63 231 m 0
 63 427 202 491 348 491 c 0
 407 491 455 481 500 461 c 2
 518 454 l 1
 486 358 l 1
 467 365 l 2
 435 376 401 382 360 382 c 0
 270 382 181 355 181 246 c 0
 181 138 257 96 371 96 c 0
 405 96 434 101 461 111 c 1
 480 118 l 1
 513 25 l 1
 495 19 l 2
 441 -2 387 -10 337 -10 c 0
 200 -10 63 43 63 231 c 0
397 765 m 1
 468 681 l 1
 220 501 l 1
 150 581 l 1
 397 765 l 1
EndSplineSet
EndChar

StartChar: Ccircumflex
Encoding: 264 264 232
Width: 788
VWidth: 0
Flags: HW
HStem: -10 116<422 678> 585 113<412 666>
VStem: 134 124<256 439>
LayerCount: 3
Fore
SplineSet
134 346 m 0
 134 546 280 699 530 699 c 0
 590 699 664 689 737 660 c 1
 755 653 l 1
 717 547 l 1
 698 554 l 1
 618 581 562 585 527 585 c 0
 360 585 258 472 258 347 c 0
 258 218 367 106 547 106 c 0
 596 106 653 116 707 135 c 2
 725 141 l 1
 765 43 l 1
 747 36 l 2
 674 5 594 -10 523 -10 c 0
 273 -10 134 149 134 346 c 0
479 953 m 5
 648 783 l 5
 565 712 l 5
 471 807 l 5
 374 713 l 5
 292 778 l 5
 479 953 l 5
EndSplineSet
EndChar

StartChar: ccircumflex
Encoding: 265 265 233
Width: 568
VWidth: 0
Flags: HW
HStem: -10 106<256 477> 382 109<247 479>
VStem: 63 118<165 322>
LayerCount: 3
Fore
SplineSet
63 231 m 0
 63 427 202 491 348 491 c 0
 407 491 455 481 500 461 c 2
 518 454 l 1
 486 358 l 1
 467 365 l 2
 435 376 401 382 360 382 c 0
 270 382 181 355 181 246 c 0
 181 138 257 96 371 96 c 0
 405 96 434 101 461 111 c 1
 480 118 l 1
 513 25 l 1
 495 19 l 2
 441 -2 387 -10 337 -10 c 0
 200 -10 63 43 63 231 c 0
324 741 m 1
 490 571 l 1
 416 500 l 1
 315 595 l 1
 208 501 l 1
 130 566 l 1
 324 741 l 1
EndSplineSet
EndChar

StartChar: Cdotaccent
Encoding: 266 266 234
Width: 788
VWidth: 0
Flags: HW
HStem: -10 116<422 678> 585 113<412 666> 750 143<381 540>
VStem: 134 124<256 439> 381 159<750 893>
LayerCount: 3
Fore
SplineSet
381 893 m 1
 540 893 l 1
 540 750 l 1
 381 750 l 1
 381 893 l 1
134 346 m 0
 134 546 280 699 530 699 c 0
 590 699 664 689 737 660 c 1
 755 653 l 1
 717 547 l 1
 698 554 l 1
 618 581 562 585 527 585 c 0
 360 585 258 472 258 347 c 0
 258 218 367 106 547 106 c 0
 596 106 653 116 707 135 c 2
 725 141 l 1
 765 43 l 1
 747 36 l 2
 674 5 594 -10 523 -10 c 0
 273 -10 134 149 134 346 c 0
EndSplineSet
EndChar

StartChar: cdotaccent
Encoding: 267 267 235
Width: 568
VWidth: 0
Flags: HW
HStem: -10 106<256 477> 382 109<247 479> 552 142<247 415>
VStem: 63 118<165 322> 247 168<552 694>
LayerCount: 3
Fore
SplineSet
63 231 m 0
 63 427 202 491 348 491 c 0
 407 491 455 481 500 461 c 2
 518 454 l 1
 486 358 l 1
 467 365 l 2
 435 376 401 382 360 382 c 0
 270 382 181 355 181 246 c 0
 181 138 257 96 371 96 c 0
 405 96 434 101 461 111 c 1
 480 118 l 1
 513 25 l 1
 495 19 l 2
 441 -2 387 -10 337 -10 c 0
 200 -10 63 43 63 231 c 0
247 694 m 5
 415 694 l 5
 415 552 l 5
 247 552 l 5
 247 694 l 5
EndSplineSet
EndChar

StartChar: Ccaron
Encoding: 268 268 236
Width: 788
VWidth: 0
Flags: HW
HStem: -10 116<422 678> 585 113<412 666>
VStem: 134 124<256 439>
LayerCount: 3
Fore
SplineSet
134 346 m 0
 134 546 280 699 530 699 c 0
 590 699 664 689 737 660 c 1
 755 653 l 1
 717 547 l 1
 698 554 l 1
 618 581 562 585 527 585 c 0
 360 585 258 472 258 347 c 0
 258 218 367 106 547 106 c 0
 596 106 653 116 707 135 c 2
 725 141 l 1
 765 43 l 1
 747 36 l 2
 674 5 594 -10 523 -10 c 0
 273 -10 134 149 134 346 c 0
477 711 m 1
 307 881 l 1
 390 952 l 1
 485 857 l 1
 582 951 l 1
 661 886 l 1
 477 711 l 1
EndSplineSet
EndChar

StartChar: ccaron
Encoding: 269 269 237
Width: 568
VWidth: 0
Flags: HW
HStem: -10 106<256 477> 382 109<247 479>
VStem: 63 118<165 322>
LayerCount: 3
Fore
SplineSet
63 231 m 0
 63 427 202 491 348 491 c 0
 407 491 455 481 500 461 c 2
 518 454 l 1
 486 358 l 1
 467 365 l 2
 435 376 401 382 360 382 c 0
 270 382 181 355 181 246 c 0
 181 138 257 96 371 96 c 0
 405 96 434 101 461 111 c 1
 480 118 l 1
 513 25 l 1
 495 19 l 2
 441 -2 387 -10 337 -10 c 0
 200 -10 63 43 63 231 c 0
307 500 m 1
 131 669 l 1
 211 740 l 1
 315 646 l 1
 417 739 l 1
 491 675 l 1
 307 500 l 1
EndSplineSet
EndChar

StartChar: Dcaron
Encoding: 270 270 238
Width: 860
VWidth: 0
Flags: HW
HStem: 0 113<265 519> 581 113<265 519>
VStem: 142 123<113 581> 659 124<244 453>
LayerCount: 3
Back
SplineSet
376.953 693.848 m 5xb8
 706.543 693.848 786.133 520.02 786.133 367.188 c 4
 786.133 226.074 729.98 61.0352 514.648 15.1367 c 4
 444.824 0 375 0 315.918 0 c 4
 314.453 0 313.477 0 312.012 0 c 6
 141.602 0 l 5
 141.602 693.848 l 5xb8
 376.953 693.848 l 5xb8
379.883 580.566 m 6xd8
 264.648 580.566 l 5xb8
 264.648 113.281 l 5
 345.703 113.281 l 6
 431.152 113.281 560.059 115.723 626.953 220.703 c 4
 641.602 243.652 662.109 286.133 662.109 351.074 c 4
 662.109 499.023 548.34 563.965 451.172 577.148 c 4
 428.711 580.078 404.785 580.566 379.883 580.566 c 6xd8
440.43 711.426 m 5
 279.297 881.348 l 5
 353.516 952.148 l 5
 448.73 857.422 l 5
 549.316 950.684 l 5
 634.277 885.742 l 5
 440.43 711.426 l 5
EndSplineSet
Fore
SplineSet
435 712 m 1
 283 882 l 1
 357 953 l 1
 442 858 l 1
 529 951 l 1
 602 888 l 1
 435 712 l 1
391 581 m 2
 265 581 l 1
 265 113 l 1
 354 113 l 2
 439 113 562 116 625 221 c 0
 639 244 659 286 659 351 c 0
 659 499 550 564 458 577 c 0
 437 580 414 581 391 581 c 2
388 694 m 2
 702 694 782 520 782 367 c 0
 782 226 726 62 519 15 c 0
 453 0 386 0 321 0 c 2
 142 0 l 1
 142 694 l 1
 388 694 l 2
EndSplineSet
EndChar

StartChar: dcaron
Encoding: 271 271 239
Width: 841
VWidth: 1023
Flags: HW
HStem: -10 106<253 443> 0 10G<474 567> 389 103<249 446> 728 10G<447 567 674 825>
VStem: 63 118<163 326> 447 120<107 380 476 738>
LayerCount: 3
Fore
SplineSet
678 738 m 1x3c
 825 738 l 1
 720 507 l 1
 574 507 l 1
 678 738 l 1x3c
63 233 m 0
 63 402 173 492 333 492 c 0
 376 492 414 486 447 476 c 1
 447 738 l 1
 567 738 l 1
 567 0 l 1
 479 0 l 1x7c
 469 22 l 1
 419 -1 364 -10 317 -10 c 0xbc
 195 -10 63 50 63 233 c 0
348 96 m 0xbc
 386 96 421 104 447 113 c 1
 447 375 l 1
 421 382 385 389 347 389 c 0
 282 389 182 367 182 245 c 0
 182 122 281 96 348 96 c 0xbc
EndSplineSet
EndChar

StartChar: Dcroat
Encoding: 272 272 240
Width: 863
VWidth: 0
Flags: HW
HStem: 0 113<287 531> 301 113<57 164 287 414> 581 113<287 536>
VStem: 164 123<113 301 415 581> 684 124<240 449>
LayerCount: 3
Back
SplineSet
398.926 693.848 m 5xdc
 728.516 693.848 808.105 520.02 808.105 367.188 c 4
 808.105 226.074 751.953 61.0352 536.621 15.1367 c 4
 466.797 0 396.973 0 337.891 0 c 4
 336.426 0 335.449 0 333.984 0 c 6
 163.574 0 l 5
 163.574 301.27 l 5
 57.1289 301.27 l 5
 57.1289 414.551 l 5
 163.574 414.551 l 5
 163.574 693.848 l 5xdc
 163.574 693.848 236.328 702.637 306.152 702.637 c 4xec
 340.82 702.637 375 700.684 398.926 693.848 c 5xdc
413.574 301.27 m 5
 286.621 301.27 l 5
 286.621 113.281 l 5
 367.676 113.281 l 6
 453.125 113.281 582.031 115.723 648.926 220.703 c 4
 663.574 243.652 684.082 286.133 684.082 351.074 c 4
 684.082 499.023 570.312 563.965 473.145 577.148 c 4
 450.684 580.078 426.758 580.566 401.855 580.566 c 6xec
 286.621 580.566 l 5
 286.621 414.551 l 5
 413.574 414.551 l 5
 413.574 301.27 l 5
EndSplineSet
Fore
SplineSet
402 581 m 2
 287 581 l 1
 287 415 l 1
 414 415 l 1
 414 301 l 1
 287 301 l 1
 287 113 l 1
 368 113 l 2
 492 113 684 128 684 351 c 0
 684 448 632 581 402 581 c 2
164 694 m 1
 396 694 l 2
 503 694 808 678 808 367 c 0
 808 21 508 0 365 0 c 2
 164 0 l 1
 164 301 l 1
 57 301 l 1
 57 415 l 1
 164 415 l 1
 164 694 l 1
EndSplineSet
EndChar

StartChar: Emacron
Encoding: 274 274 241
Width: 706
VWidth: 0
Flags: HW
HStem: 0 113<265 628> 301 113<265 602> 581 113<265 628> 726 103<176 614>
VStem: 142 124<113 301 414 581>
LayerCount: 3
Fore
SplineSet
142 0 m 1
 142 694 l 1
 628 694 l 1
 628 581 l 1
 265 581 l 1
 265 414 l 1
 602 414 l 1
 602 301 l 1
 265 301 l 1
 265 113 l 1
 628 113 l 1
 628 0 l 1
 142 0 l 1
176 829 m 1
 614 829 l 1
 614 726 l 1
 176 726 l 1
 176 829 l 1
EndSplineSet
EndChar

StartChar: emacron
Encoding: 275 275 242
Width: 618
VWidth: 0
Flags: HW
HStem: -10 104<256 496> 184 101<187 437> 382 109<239 401> 538 113<130 499>
LayerCount: 3
Fore
SplineSet
63 227 m 0
 63 412 194 492 340 492 c 0
 545 492 555 340 555 238 c 2
 555 184 l 1
 186 184 l 1
 199 141 260 94 375 94 c 0
 421 94 461 103 488 111 c 2
 508 117 l 1
 532 24 l 1
 515 18 l 2
 472 3 413 -10 339 -10 c 0
 119 -10 63 115 63 227 c 0
320 382 m 0
 239 382 195 336 187 284 c 1
 437 284 l 1
 432 358 386 382 320 382 c 0
130 651 m 1
 499 651 l 1
 499 538 l 1
 130 538 l 1
 130 651 l 1
EndSplineSet
EndChar

StartChar: Ebreve
Encoding: 276 276 243
Width: 706
VWidth: 0
Flags: HW
HStem: 0 113<265 628> 301 113<265 602> 581 113<265 628> 721 106<315 462>
VStem: 142 124<113 301 414 581>
LayerCount: 3
Fore
SplineSet
545 926 m 1
 634 866 l 1
 621 849 l 1
 555 761 465 721 375 721 c 0
 272 721 194 774 163 860 c 2
 157 876 l 1
 252 926 l 1
 261 908 l 1
 289 858 335 828 386 828 c 0
 429 828 482 849 534 911 c 1
 545 926 l 1
142 0 m 1
 142 694 l 1
 628 694 l 1
 628 581 l 1
 265 581 l 1
 265 414 l 1
 602 414 l 1
 602 301 l 1
 265 301 l 1
 265 113 l 1
 628 113 l 1
 628 0 l 1
 142 0 l 1
EndSplineSet
EndChar

StartChar: ebreve
Encoding: 277 277 244
Width: 618
VWidth: 0
Flags: HW
HStem: -10 104<259 496> 184 101<187 432> 382 109<238 394> 508 107<271 413>
LayerCount: 3
Fore
SplineSet
63 227 m 0
 63 412 194 492 337 492 c 0
 545 492 555 340 555 238 c 2
 555 184 l 1
 186 184 l 1
 198 141 259 94 371 94 c 0
 416 94 461 103 488 111 c 2
 508 117 l 1
 532 24 l 1
 515 18 l 2
 472 3 407 -10 335 -10 c 0
 118 -10 63 115 63 227 c 0
317 382 m 0
 237 382 195 336 187 284 c 1
 432 284 l 1
 426 358 381 382 317 382 c 0
108 664 m 1
 206 714 l 1
 216 696 l 2
 226 678 265 616 338 616 c 0
 398 616 455 662 484 699 c 2
 496 714 l 1
 584 654 l 1
 572 637 l 1
 520 569 434 508 330 508 c 0
 211 508 139 581 114 648 c 2
 108 664 l 1
EndSplineSet
EndChar

StartChar: Edotaccent
Encoding: 278 278 245
Width: 706
VWidth: 0
Flags: HW
HStem: 0 113<265 628> 301 113<265 602> 581 113<265 628> 750 143<294 464>
VStem: 142 124<113 301 414 581> 294 170<750 893>
LayerCount: 3
Fore
SplineSet
142 0 m 1
 142 694 l 1
 628 694 l 1
 628 581 l 1
 265 581 l 1
 265 414 l 1
 602 414 l 1
 602 301 l 1
 265 301 l 1
 265 113 l 1
 628 113 l 1
 628 0 l 1
 142 0 l 1
294 893 m 1
 464 893 l 1
 464 750 l 1
 294 750 l 1
 294 893 l 1
EndSplineSet
EndChar

StartChar: edotaccent
Encoding: 279 279 246
Width: 618
VWidth: 0
Flags: HW
HStem: -10 104<256 496> 184 101<187 437> 382 109<239 401> 552 142<254 424>
VStem: 254 170<552 694>
LayerCount: 3
Fore
SplineSet
63 227 m 0
 63 412 194 492 340 492 c 0
 545 492 555 340 555 238 c 2
 555 184 l 1
 186 184 l 1
 199 141 260 94 375 94 c 0
 421 94 461 103 488 111 c 2
 508 117 l 1
 532 24 l 1
 515 18 l 2
 472 3 413 -10 339 -10 c 0
 119 -10 63 115 63 227 c 0
320 382 m 0
 239 382 195 336 187 284 c 1
 437 284 l 1
 432 358 386 382 320 382 c 0
254 694 m 1
 424 694 l 1
 424 552 l 1
 254 552 l 1
 254 694 l 1
EndSplineSet
EndChar

StartChar: Ecaron
Encoding: 282 282 247
Width: 706
VWidth: 0
Flags: HW
HStem: 0 113<265 628> 301 113<265 602> 581 113<265 628>
VStem: 142 124<113 301 414 581>
LayerCount: 3
Fore
SplineSet
142 0 m 1
 142 694 l 1
 628 694 l 1
 628 581 l 1
 265 581 l 1
 265 414 l 1
 602 414 l 1
 602 301 l 1
 265 301 l 1
 265 113 l 1
 628 113 l 1
 628 0 l 1
 142 0 l 1
377 711 m 1
 206 881 l 1
 283 952 l 1
 385 857 l 1
 489 951 l 1
 565 886 l 1
 377 711 l 1
EndSplineSet
EndChar

StartChar: ecaron
Encoding: 283 283 248
Width: 618
VWidth: 0
Flags: HW
HStem: -10 104<256 496> 184 101<187 437> 382 109<239 401>
LayerCount: 3
Fore
SplineSet
63 227 m 0
 63 412 194 492 340 492 c 0
 545 492 555 340 555 238 c 2
 555 184 l 1
 186 184 l 1
 199 141 260 94 375 94 c 0
 421 94 461 103 488 111 c 2
 508 117 l 1
 532 24 l 1
 515 18 l 2
 472 3 413 -10 339 -10 c 0
 119 -10 63 115 63 227 c 0
320 382 m 0
 239 382 195 336 187 284 c 1
 437 284 l 1
 432 358 386 382 320 382 c 0
339 500 m 1
 162 669 l 1
 246 740 l 1
 347 646 l 1
 448 739 l 1
 521 675 l 1
 339 500 l 1
EndSplineSet
EndChar

StartChar: Gcircumflex
Encoding: 284 284 249
Width: 856
VWidth: 0
Flags: HW
HStem: -10 114<397 628> 278 108<446 663> 586 113<384 630>
VStem: 105 124<255 445> 663 121<132 278>
LayerCount: 3
Fore
SplineSet
784 101 m 1
 758 73 679 -10 495 -10 c 0
 219 -10 105 175 105 346 c 0
 105 527 233 699 493 699 c 0
 596 699 683 671 742 638 c 1
 759 628 l 1
 708 531 l 1
 690 541 l 1
 651 561 576 586 498 586 c 0
 361 586 229 499 229 351 c 0
 229 207 350 104 516 104 c 0
 581 104 629 121 663 145 c 1
 663 278 l 1
 446 278 l 1
 446 386 l 1
 784 386 l 1
 784 101 l 1
470 953 m 1
 637 783 l 1
 555 712 l 1
 462 807 l 1
 366 713 l 1
 286 778 l 1
 470 953 l 1
EndSplineSet
EndChar

StartChar: gcircumflex
Encoding: 285 285 250
Width: 654
VWidth: 0
Flags: HW
HStem: -264 107<148 371> -10 106<252 440> 387 105<245 440> 473 10G<472 566>
VStem: 62 118<168 322> 441 125<-87 12 107 374>
LayerCount: 3
Fore
SplineSet
151 566 m 1xcc
 340 741 l 1
 511 571 l 1
 430 500 l 1
 332 595 l 1
 231 501 l 1
 151 566 l 1xcc
326 492 m 0xec
 348 492 392 491 467 461 c 1
 476 482 l 1
 566 482 l 1xdc
 566 -10 l 2
 566 -124 515 -264 283 -264 c 0
 233 -264 170 -255 112 -231 c 1
 94 -224 l 1
 130 -129 l 1
 149 -136 l 1
 189 -150 233 -157 271 -157 c 0
 449 -157 441 -22 441 12 c 1
 405 -1 363 -10 317 -10 c 0
 192 -10 62 56 62 240 c 0
 62 431 218 492 326 492 c 0xec
181 248 m 0
 181 164 233 96 343 96 c 0
 381 96 415 105 441 114 c 1
 441 369 l 1
 390 384 355 387 332 387 c 0xec
 241 387 181 333 181 248 c 0
EndSplineSet
EndChar

StartChar: Gbreve
Encoding: 286 286 251
Width: 856
VWidth: 0
Flags: HW
HStem: -10 114<398 628> 278 108<446 663> 586 113<388 630> 720 107<410 544>
VStem: 105 123<255 446> 663 121<132 278>
LayerCount: 3
Fore
SplineSet
245 876 m 1
 348 926 l 1
 358 908 l 2
 367 890 404 828 474 828 c 0
 530 828 584 874 615 911 c 2
 627 926 l 1
 719 866 l 1
 706 849 l 1
 656 784 567 720 465 720 c 0
 353 720 278 792 251 860 c 1
 245 876 l 1
784 101 m 1
 758 73 679 -10 495 -10 c 0
 227 -10 105 163 105 340 c 0
 105 519 231 699 493 699 c 0
 596 699 683 671 742 638 c 1
 759 628 l 1
 708 531 l 1
 690 541 l 1
 651 561 576 586 498 586 c 0
 361 586 229 499 229 351 c 0
 229 207 350 104 516 104 c 0
 581 104 629 121 663 145 c 1
 663 278 l 1
 446 278 l 1
 446 386 l 1
 784 386 l 1
 784 101 l 1
EndSplineSet
EndChar

StartChar: gbreve
Encoding: 287 287 252
Width: 654
VWidth: 0
Flags: HW
HStem: -264 107<148 370> -10 106<252 440> 387 105<245 440> 473 10G<472 566> 508 107<277 418>
VStem: 62 118<168 322> 441 125<-89 12 107 374>
LayerCount: 3
Fore
SplineSet
283 -264 m 0xde
 233 -264 170 -255 112 -231 c 1
 94 -224 l 1
 130 -129 l 1
 149 -136 l 1
 189 -150 233 -157 271 -157 c 0
 449 -157 441 -22 441 12 c 1
 405 -1 363 -10 317 -10 c 0
 192 -10 62 56 62 240 c 0
 62 431 218 492 326 492 c 0xee
 348 492 392 491 467 461 c 1
 476 482 l 1
 566 482 l 1
 566 -3 l 2
 566 -207 423 -264 283 -264 c 0xde
181 248 m 0
 181 164 233 96 343 96 c 0
 381 96 415 105 441 114 c 1
 441 369 l 1
 390 384 355 387 332 387 c 0
 241 387 181 333 181 248 c 0
120 648 m 2
 114 664 l 1
 212 714 l 1
 222 696 l 2
 232 678 271 616 344 616 c 0
 404 616 460 662 490 699 c 1
 502 714 l 1
 590 654 l 1
 577 637 l 1
 525 569 439 508 335 508 c 0
 217 508 145 581 120 648 c 2
EndSplineSet
EndChar

StartChar: Gdotaccent
Encoding: 288 288 253
Width: 856
VWidth: 0
Flags: HW
HStem: -10 114<397 628> 278 108<446 663> 586 113<384 630> 750 143<406 562>
VStem: 105 124<255 445> 406 157<750 893> 663 121<132 278>
LayerCount: 3
Fore
SplineSet
406 893 m 1
 562 893 l 1
 562 750 l 1
 406 750 l 1
 406 893 l 1
784 101 m 1
 758 73 679 -10 495 -10 c 0
 219 -10 105 175 105 346 c 0
 105 527 233 699 493 699 c 0
 596 699 683 671 742 638 c 1
 759 628 l 1
 708 531 l 1
 690 541 l 1
 651 561 576 586 498 586 c 0
 361 586 229 499 229 351 c 0
 229 207 350 104 516 104 c 0
 581 104 629 121 663 145 c 1
 663 278 l 1
 446 278 l 1
 446 386 l 1
 784 386 l 1
 784 101 l 1
EndSplineSet
EndChar

StartChar: gdotaccent
Encoding: 289 289 254
Width: 654
VWidth: 0
Flags: HW
HStem: -264 107<147 371> -10 106<252 440> 387 105<245 440> 473 10G<472 566> 552 142<244 409>
VStem: 62 118<168 322> 244 165<552 694> 441 125<-87 12 107 374>
LayerCount: 3
Fore
SplineSet
244 552 m 1xcf
 244 694 l 1
 409 694 l 1
 409 552 l 1
 244 552 l 1xcf
181 248 m 0
 181 164 233 96 343 96 c 0
 381 96 415 105 441 114 c 1
 441 369 l 1
 390 384 355 387 332 387 c 0xef
 241 387 181 333 181 248 c 0
326 492 m 0
 348 492 392 491 467 461 c 1
 476 482 l 1
 566 482 l 1xdf
 566 -10 l 2
 566 -124 515 -264 283 -264 c 0
 233 -264 170 -255 112 -231 c 1
 94 -224 l 1
 130 -129 l 1
 149 -136 l 2
 175 -146 220 -157 271 -157 c 0
 449 -157 441 -22 441 12 c 1
 405 -1 363 -10 317 -10 c 0
 192 -10 62 56 62 240 c 0
 62 431 218 492 326 492 c 0
EndSplineSet
EndChar

StartChar: Gcommaaccent
Encoding: 290 290 255
Width: 856
VWidth: 0
Flags: HW
HStem: -10 114<397 628> 278 108<446 663> 586 113<384 630>
VStem: 105 124<255 446> 663 121<132 278>
LayerCount: 3
Fore
SplineSet
784 101 m 1
 758 73 679 -10 495 -10 c 0
 219 -10 105 175 105 346 c 0
 105 528 234 699 493 699 c 0
 596 699 683 671 742 638 c 1
 759 628 l 1
 708 531 l 1
 690 541 l 1
 651 561 576 586 498 586 c 0
 361 586 229 499 229 351 c 0
 229 207 350 104 516 104 c 0
 581 104 629 121 663 145 c 1
 663 278 l 1
 446 278 l 1
 446 386 l 1
 784 386 l 1
 784 101 l 1
460 -29 m 1
 605 -29 l 1
 502 -259 l 1
 358 -259 l 1
 460 -29 l 1
EndSplineSet
EndChar

StartChar: Hcircumflex
Encoding: 292 292 256
Width: 861
VWidth: 0
Flags: HW
HStem: 0 10G<142 265 636 759> 301 113<265 636> 684 10G<142 265 636 759>
VStem: 142 123<0 301 415 694> 636 123<0 301 415 694>
LayerCount: 3
Fore
SplineSet
636 694 m 1
 759 694 l 1
 759 0 l 1
 636 0 l 1
 636 301 l 1
 265 301 l 1
 265 0 l 1
 142 0 l 1
 142 694 l 1
 265 694 l 1
 265 415 l 1
 636 415 l 1
 636 694 l 1
461 955 m 5
 632 785 l 5
 549 714 l 5
 454 809 l 5
 356 716 l 5
 275 781 l 5
 461 955 l 5
EndSplineSet
EndChar

StartChar: hcircumflex
Encoding: 293 293 257
Width: 661
VWidth: 0
Flags: HW
HStem: 0 10G<93 213 452 574> 380 111<248 421> 728 10G<93 213>
VStem: 93 120<0 361 458 738> 452 122<0 349>
LayerCount: 3
Fore
SplineSet
344 380 m 0
 319 380 274 375 213 353 c 1
 213 0 l 1
 93 0 l 1
 93 738 l 1
 213 738 l 1
 213 458 l 1
 256 474 318 491 381 491 c 0
 567 491 574 348 574 274 c 2
 574 0 l 1
 452 0 l 1
 452 282 l 2
 452 308 451 380 344 380 c 0
355 979 m 5
 528 810 l 5
 449 739 l 5
 347 833 l 5
 242 740 l 5
 168 805 l 5
 355 979 l 5
EndSplineSet
EndChar

StartChar: Itilde
Encoding: 296 296 258
Width: 396
VWidth: 0
Flags: HW
HStem: 0 10G<161 284> 684 10G<161 284>
VStem: 41 89<751 804> 161 123<0 694> 314 89<837 892>
LayerCount: 3
Back
SplineSet
148.926 795.898 m 6
 130.371 729.004 l 5
 41.0156 752.93 l 5
 59.082 820.312 l 6
 62.5 833.008 80.5664 911.133 165.527 911.133 c 4
 213.379 911.133 235.84 878.418 244.141 866.699 c 6
 267.578 835.938 l 6
 273.438 829.102 279.785 820.801 284.18 818.848 c 5
 288.086 822.754 292.969 835.449 295.41 846.68 c 5
 314.453 915.039 l 5
 403.32 890.137 l 5
 385.742 823.73 l 6
 379.395 800.781 356.445 716.797 277.344 716.797 c 4
 229.492 716.797 206.055 754.395 200.195 762.207 c 6
 176.758 793.457 l 6
 168.457 803.711 160.156 811.035 155.762 811.523 c 5
 153.32 809.57 150.879 802.734 148.926 795.898 c 6
160.645 0 m 5
 160.645 693.848 l 5
 283.691 693.848 l 5
 283.691 0 l 5
 160.645 0 l 5
284.668 818.848 m 5
 284.668 818.848 l 5
EndSplineSet
Fore
SplineSet
277 717 m 4
 203 717 180 811 159 811 c 4
 152 811 151 804 130 729 c 5
 41 753 l 5
 61 825 71 911 166 911 c 4
 243 911 263 821 284 821 c 4
 290 821 290 827 314 915 c 5
 403 890 l 5
 384 820 369 717 277 717 c 4
161 0 m 1
 161 694 l 1
 284 694 l 1
 284 0 l 1
 161 0 l 1
EndSplineSet
EndChar

StartChar: itilde
Encoding: 297 297 259
Width: 295
VWidth: 0
Flags: HW
HStem: 0 10G<88 208> 473 10G<88 208>
VStem: -28 89<582 635> 88 120<0 482> 245 89<668 723>
LayerCount: 3
Back
SplineSet
367.188 609.375 m 4
 401.855 609.375 416.504 650.879 440.43 698.242 c 5
 491.211 675.293 l 5
 465.82 623.047 437.5 549.805 367.188 549.805 c 4
 290.039 549.805 256.348 637.695 211.426 637.695 c 4
 176.758 637.695 162.598 596.68 138.672 548.828 c 5
 86.9141 571.777 l 5
 112.305 624.023 141.113 697.266 211.426 697.266 c 4
 288.574 697.266 322.266 609.375 367.188 609.375 c 4
EndSplineSet
Fore
SplineSet
88 482 m 1
 208 482 l 1
 208 0 l 1
 88 0 l 1
 88 482 l 1
208 547 m 0
 134 547 110 641 89 641 c 0
 82 641 82 635 61 560 c 1
 -28 583 l 1
 -8 655 1 742 96 742 c 0
 173 742 193 651 214 651 c 0
 220 651 221 658 245 746 c 1
 334 721 l 1
 315 651 300 547 208 547 c 0
EndSplineSet
EndChar

StartChar: Imacron
Encoding: 298 298 260
Width: 396
VWidth: 0
Flags: HW
HStem: 0 10G<156 279> 684 10G<156 279> 726 103<98 338>
VStem: 156 123<0 694>
LayerCount: 3
Fore
SplineSet
98 829 m 1
 338 829 l 1
 338 726 l 1
 98 726 l 1
 98 829 l 1
156 694 m 1
 279 694 l 1
 279 0 l 1
 156 0 l 1
 156 694 l 1
EndSplineSet
EndChar

StartChar: imacron
Encoding: 299 299 261
Width: 295
VWidth: 0
Flags: HW
HStem: 0 10G<88 208> 473 10G<88 208> 548 103<39 257>
VStem: 88 120<0 482>
LayerCount: 3
Fore
SplineSet
88 482 m 1
 208 482 l 1
 208 0 l 1
 88 0 l 1
 88 482 l 1
39 651 m 1
 257 651 l 1
 257 548 l 1
 39 548 l 1
 39 651 l 1
EndSplineSet
EndChar

StartChar: Ibreve
Encoding: 300 300 262
Width: 436
VWidth: 0
Flags: HW
HStem: 0 10G<160 283> 684 10G<160 283> 719 107<174 281>
VStem: 160 123<0 694>
LayerCount: 3
Back
SplineSet
40.5273 872.559 m 5
 135.254 923.34 l 5
 143.555 901.855 l 6
 159.668 859.375 188.965 832.52 219.727 832.52 c 4
 252.93 832.52 281.738 858.398 356.934 905.762 c 5
 369.629 922.852 l 5
 444.336 860.84 l 5
 436.035 846.191 l 6
 394.043 775.391 299.805 720.215 204.59 720.215 c 4
 109.863 720.215 63.9648 796.875 45.4102 856.934 c 6
 40.5273 872.559 l 5
EndSplineSet
Fore
SplineSet
42 875 m 5
 136 925 l 5
 145 906 l 6
 153 888 163 826 226 826 c 4
 277 826 306 873 334 910 c 5
 346 925 l 5
 434 865 l 5
 421 848 l 5
 369 780 307 719 218 719 c 4
 116 719 73 791 48 858 c 6
 42 875 l 5
160 694 m 1
 283 694 l 1
 283 0 l 1
 160 0 l 1
 160 694 l 1
EndSplineSet
EndChar

StartChar: ibreve
Encoding: 301 301 263
Width: 335
VWidth: 0
Flags: HW
HStem: 0 10G<92 212> 473 10G<92 212> 543 107<111 218>
VStem: 92 120<0 482>
LayerCount: 3
Fore
SplineSet
-21 699 m 5
 72 749 l 5
 82 730 l 6
 90 712 99 650 162 650 c 4
 213 650 243 697 271 734 c 5
 283 749 l 5
 371 689 l 5
 358 672 l 5
 306 604 243 543 154 543 c 4
 52 543 9 616 -16 683 c 6
 -21 699 l 5
92 482 m 1
 212 482 l 1
 212 0 l 1
 92 0 l 1
 92 482 l 1
EndSplineSet
EndChar

StartChar: Idotaccent
Encoding: 304 304 264
Width: 396
VWidth: 0
Flags: HW
HStem: 0 10G<156 279> 684 10G<156 279> 750 143<146 288>
VStem: 146 143<750 893> 156 123<0 694>
LayerCount: 3
Fore
SplineSet
146 893 m 1xf0
 288 893 l 1
 288 750 l 1
 146 750 l 1
 146 893 l 1xf0
156 694 m 1xe8
 279 694 l 1
 279 0 l 1
 156 0 l 1
 156 694 l 1xe8
EndSplineSet
EndChar

StartChar: IJ
Encoding: 306 306 265
Width: 941
VWidth: 0
Flags: HW
HStem: -8 113<468 654> 0 10G<156 279> 9 108<469 555> 684 10G<156 279 720 843>
VStem: 156 123<0 694> 720 123<164 694>
LayerCount: 3
Fore
SplineSet
156 694 m 1x5c
 279 694 l 1
 279 0 l 1
 156 0 l 1
 156 694 l 1x5c
720 694 m 1
 843 694 l 1
 843 250 l 2
 843 141 814 -8 569 -8 c 0x9c
 535 -8 502 -4 469 4 c 2
 450 9 l 1
 471 117 l 1x3c
 491 112 l 2
 512 107 535 105 556 105 c 0x9c
 713 105 720 207 720 250 c 2
 720 694 l 1
EndSplineSet
EndChar

StartChar: ij
Encoding: 307 307 266
Width: 591
VWidth: 0
Flags: HW
HStem: 0 10G<88 208> 473 10G<88 208 382 502> 562 132<81 217 375 511>
VStem: 81 137<562 694> 88 120<0 482> 375 136<562 694> 382 120<-122 482>
LayerCount: 3
Fore
SplineSet
382 482 m 1xe2
 502 482 l 1
 502 -47 l 2
 502 -103 500 -209 354 -260 c 1
 333 -266 l 1
 271 -171 l 1
 295 -162 l 2
 369 -135 382 -96 382 -57 c 2
 382 482 l 1xe2
375 694 m 1xe4
 511 694 l 1
 511 562 l 1
 375 562 l 1
 375 694 l 1xe4
88 482 m 1xe8
 208 482 l 1
 208 0 l 1
 88 0 l 1
 88 482 l 1xe8
81 694 m 1xf0
 217 694 l 1
 217 562 l 1
 81 562 l 1
 81 694 l 1xf0
EndSplineSet
EndChar

StartChar: Jcircumflex
Encoding: 308 308 267
Width: 545
VWidth: 1023
Flags: HW
HStem: -8 113<71 257> 9 108<73 158> 684 10G<323 446>
VStem: 323 123<164 694>
LayerCount: 3
Back
SplineSet
388.184 952.637 m 5x20
 540.527 782.715 l 5
 465.82 711.914 l 5
 380.859 806.641 l 5
 283.691 713.379 l 5
 183.594 778.32 l 5
 388.184 952.637 l 5x20
323.242 693.848 m 5xa8
 446.289 693.848 l 5xa8
 446.289 215.332 l 6
 446.289 150.879 437.988 99.1211 387.207 54.1992 c 5
 359.863 31.25 297.363 -8.30078 172.852 -8.30078 c 4xb0
 139.16 -8.30078 104.98 -4.39453 72.2656 3.90625 c 6
 53.7109 8.78906 l 5
 74.2188 117.188 l 5x70
 94.7266 112.305 l 6
 115.234 107.422 137.695 104.98 159.18 104.98 c 4
 298.34 104.98 304.199 172.852 304.199 216.309 c 5xb0
 323.242 693.848 l 5xa8
EndSplineSet
Fore
SplineSet
323 694 m 1xb0
 446 694 l 1
 446 250 l 2
 446 141 418 -8 173 -8 c 0xb0
 139 -8 105 -4 72 4 c 2
 54 9 l 1
 74 117 l 1x70
 95 112 l 2
 116 107 138 105 159 105 c 0
 316 105 323 207 323 250 c 2
 323 694 l 1xb0
387 953 m 1
 540 783 l 1
 465 712 l 1
 380 807 l 1
 293 713 l 1
 220 778 l 1
 387 953 l 1
EndSplineSet
EndChar

StartChar: jcircumflex
Encoding: 309 309 268
Width: 295
VWidth: 0
Flags: HW
HStem: 473 10G<96 216>
VStem: 96 120<-125 482>
LayerCount: 3
Fore
SplineSet
159 739 m 1
 296 566 l 1
 222 495 l 1
 152 583 l 1
 81 497 l 1
 8 562 l 1
 159 739 l 1
96 482 m 1
 216 482 l 1
 216 -47 l 2
 216 -109 211 -210 74 -260 c 1
 57 -266 l 1
 10 -171 l 1
 28 -162 l 2
 93 -131 96 -81 96 -55 c 2
 96 482 l 1
EndSplineSet
EndChar

StartChar: Kcommaaccent
Encoding: 310 310 269
Width: 771
VWidth: 0
Flags: HW
HStem: 0 10G<142 265 587 756> 684 10G<142 265 571 739>
VStem: 142 123<0 336 376 694>
LayerCount: 3
Fore
SplineSet
142 0 m 1
 142 694 l 1
 265 694 l 1
 265 376 l 1
 581 694 l 1
 739 694 l 1
 405 362 l 1
 756 0 l 1
 597 0 l 1
 265 336 l 1
 265 0 l 1
 142 0 l 1
229 -250 m 5
 331 -20 l 5
 480 -20 l 5
 374 -250 l 5
 229 -250 l 5
EndSplineSet
EndChar

StartChar: kcommaaccent
Encoding: 311 311 270
Width: 604
VWidth: 0
Flags: HW
HStem: 0 10G<88 208 435 592> 482 10G<428 584> 728 10G<88 208>
VStem: 88 120<0 240 289 738>
LayerCount: 3
Fore
SplineSet
151 -250 m 5
 253 -20 l 5
 402 -20 l 5
 296 -250 l 5
 151 -250 l 5
88 0 m 1
 88 738 l 1
 208 738 l 1
 208 289 l 1
 439 492 l 1
 584 492 l 1
 335 271 l 1
 592 0 l 1
 444 0 l 1
 208 240 l 1
 208 0 l 1
 88 0 l 1
EndSplineSet
EndChar

StartChar: Lacute
Encoding: 313 313 271
Width: 633
VWidth: 0
Flags: HW
HStem: 0 113<274 623> 684 10G<148 272>
VStem: 148 126<113 694>
LayerCount: 3
Fore
SplineSet
148 694 m 1
 271 694 l 1
 274 113 l 1
 623 113 l 1
 623 0 l 1
 148 0 l 1
 148 694 l 1
449 973 m 1
 513 877 l 1
 188 713 l 1
 138 800 l 1
 449 973 l 1
EndSplineSet
EndChar

StartChar: lacute
Encoding: 314 314 272
Width: 355
VWidth: 0
Flags: HW
HStem: 0 10G<104 225> 728 10G<104 236>
VStem: 104 131<278 738> 104 120<0 460>
LayerCount: 3
Fore
SplineSet
104 738 m 1xe0
 236 738 l 1xe0
 225 0 l 1
 104 0 l 1xd0
 104 738 l 1xe0
398 1009 m 1
 453 914 l 1
 128 750 l 1
 78 837 l 1
 398 1009 l 1
EndSplineSet
EndChar

StartChar: Lcommaaccent
Encoding: 315 315 273
Width: 633
VWidth: 0
Flags: HW
HStem: 0 113<277 626> 684 10G<151 274>
VStem: 151 125<113 694>
LayerCount: 3
Fore
SplineSet
151 694 m 1
 274 694 l 1
 277 113 l 1
 626 113 l 1
 626 0 l 1
 151 0 l 1
 151 694 l 1
234 -20 m 1
 385 -20 l 1
 274 -250 l 1
 141 -250 l 1
 234 -20 l 1
EndSplineSet
EndChar

StartChar: lcommaaccent
Encoding: 316 316 274
Width: 315
VWidth: 0
Flags: HW
HStem: 0 10G<107 228> 728 10G<107 228>
VStem: 107 120<0 738>
LayerCount: 3
Fore
SplineSet
107 738 m 1
 228 738 l 1
 228 0 l 1
 107 0 l 1
 107 738 l 1
127 -20 m 5
 259 -20 l 5
 165 -250 l 5
 34 -250 l 5
 127 -20 l 5
EndSplineSet
EndChar

StartChar: Lcaron
Encoding: 317 317 275
Width: 633
VWidth: 0
Flags: HW
HStem: 0 113<265 616> 684 10G<142 265 450 585>
VStem: 142 123<113 694>
LayerCount: 3
Fore
SplineSet
454 694 m 1
 585 694 l 1
 491 463 l 1
 360 463 l 1
 454 694 l 1
142 694 m 1
 265 694 l 1
 265 113 l 1
 616 113 l 1
 616 0 l 1
 142 0 l 1
 142 694 l 1
EndSplineSet
EndChar

StartChar: lcaron
Encoding: 318 318 276
Width: 433
VWidth: 0
Flags: HW
HStem: 0 10G<98 218> 728 10G<98 218 290 416>
VStem: 98 120<0 738>
LayerCount: 3
Fore
SplineSet
98 738 m 1
 218 738 l 1
 218 0 l 1
 98 0 l 1
 98 738 l 1
293 738 m 1
 416 738 l 1
 346 507 l 1
 224 507 l 1
 293 738 l 1
EndSplineSet
EndChar

StartChar: Ldot
Encoding: 319 319 277
Width: 633
VWidth: 0
Flags: HW
HStem: 0 113<265 616> 279 143<346 514> 684 10G<142 265>
VStem: 142 123<113 694> 346 168<279 422>
LayerCount: 3
Fore
SplineSet
142 694 m 1
 265 694 l 1
 265 113 l 1
 616 113 l 1
 616 0 l 1
 142 0 l 1
 142 694 l 1
346 422 m 1
 514 422 l 1
 514 279 l 1
 346 279 l 1
 346 422 l 1
EndSplineSet
EndChar

StartChar: ldot
Encoding: 320 320 278
Width: 442
VWidth: 0
Flags: HW
HStem: 0 10G<98 218> 287 143<261 403> 728 10G<98 218>
VStem: 98 120<0 738> 261 143<287 429>
LayerCount: 3
Fore
SplineSet
98 738 m 1
 218 738 l 1
 218 0 l 1
 98 0 l 1
 98 738 l 1
261 429 m 1
 403 429 l 1
 403 287 l 1
 261 287 l 1
 261 429 l 1
EndSplineSet
EndChar

StartChar: Nacute
Encoding: 323 323 279
Width: 890
VWidth: 0
Flags: HW
HStem: 0 10G<142 265 643 788> 684 10G<142 284 665 788>
VStem: 142 123<0 534> 665 123<161 694>
LayerCount: 3
Fore
SplineSet
142 694 m 1
 277 694 l 1
 665 161 l 1
 665 694 l 1
 788 694 l 1
 788 0 l 1
 650 0 l 1
 265 534 l 1
 265 0 l 1
 142 0 l 1
 142 694 l 1
593 973 m 1
 653 877 l 1
 336 713 l 1
 280 800 l 1
 593 973 l 1
EndSplineSet
EndChar

StartChar: nacute
Encoding: 324 324 280
Width: 654
VWidth: 0
Flags: HW
HStem: 0 10G<88 208 446 567> 380 112<248 417> 473 10G<88 181>
VStem: 88 120<0 360> 446 121<0 349>
LayerCount: 3
Fore
SplineSet
88 482 m 1xb8
 177 482 l 1xb8
 191 449 l 1
 270 483 336 492 380 492 c 0
 544 492 567 383 567 285 c 2
 567 0 l 1
 446 0 l 1
 446 283 l 2
 446 317 442 380 339 380 c 0xd8
 290 380 238 364 208 353 c 1
 208 0 l 1
 88 0 l 1
 88 482 l 1xb8
484 763 m 1
 538 667 l 1
 214 503 l 1
 164 590 l 1
 484 763 l 1
EndSplineSet
EndChar

StartChar: Ncommaaccent
Encoding: 325 325 281
Width: 890
VWidth: 0
Flags: HW
HStem: 0 10G<142 265 643 788> 684 10G<142 284 665 788>
VStem: 142 123<0 534> 665 123<161 694>
LayerCount: 3
Fore
SplineSet
390 -20 m 1
 536 -20 l 1
 432 -250 l 1
 286 -250 l 1
 390 -20 l 1
142 694 m 1
 277 694 l 1
 665 161 l 1
 665 694 l 1
 788 694 l 1
 788 0 l 1
 650 0 l 1
 265 534 l 1
 265 0 l 1
 142 0 l 1
 142 694 l 1
EndSplineSet
EndChar

StartChar: ncommaaccent
Encoding: 326 326 282
Width: 654
VWidth: 0
Flags: HW
HStem: 0 10G<88 208 446 567> 380 112<248 417> 473 10G<88 181>
VStem: 88 120<0 360> 446 121<0 349>
LayerCount: 3
Fore
SplineSet
88 482 m 1xb8
 177 482 l 1xb8
 191 449 l 1
 270 483 336 492 380 492 c 0
 544 492 567 383 567 285 c 2
 567 0 l 1
 446 0 l 1
 446 283 l 2
 446 317 442 380 339 380 c 0xd8
 290 380 238 364 208 353 c 1
 208 0 l 1
 88 0 l 1
 88 482 l 1xb8
259 -20 m 1
 417 -20 l 1
 305 -250 l 1
 157 -250 l 1
 259 -20 l 1
EndSplineSet
EndChar

StartChar: Ncaron
Encoding: 327 327 283
Width: 890
VWidth: 0
Flags: HW
HStem: 0 10G<142 265 643 788> 684 10G<142 284 665 788>
VStem: 142 123<0 534> 665 123<161 694>
LayerCount: 3
Fore
SplineSet
142 694 m 1
 277 694 l 1
 665 161 l 1
 665 694 l 1
 788 694 l 1
 788 0 l 1
 650 0 l 1
 265 534 l 1
 265 0 l 1
 142 0 l 1
 142 694 l 1
483 711 m 1
 313 882 l 1
 397 952 l 1
 491 857 l 1
 588 951 l 1
 669 886 l 1
 483 711 l 1
EndSplineSet
EndChar

StartChar: ncaron
Encoding: 328 328 284
Width: 654
VWidth: 0
Flags: HW
HStem: 0 10G<88 208 446 567> 380 112<248 417> 473 10G<88 181>
VStem: 88 120<0 360> 446 121<0 349>
LayerCount: 3
Fore
SplineSet
88 482 m 1xb8
 177 482 l 1xb8
 191 449 l 1
 270 483 336 492 380 492 c 0
 544 492 567 383 567 285 c 2
 567 0 l 1
 446 0 l 1
 446 283 l 2
 446 317 442 380 339 380 c 0xd8
 290 380 238 364 208 353 c 1
 208 0 l 1
 88 0 l 1
 88 482 l 1xb8
333 501 m 1
 159 671 l 1
 239 742 l 1
 340 648 l 1
 445 741 l 1
 519 675 l 1
 333 501 l 1
EndSplineSet
EndChar

StartChar: Omacron
Encoding: 332 332 285
Width: 903
VWidth: 0
Flags: HW
HStem: -7 113<371 577> 588 113<365 570> 726 103<263 700>
VStem: 105 126<249 460> 711 126<239 452>
LayerCount: 3
Fore
SplineSet
711 346 m 0
 711 517 582 588 465 588 c 0
 355 588 231 519 231 355 c 0
 231 201 339 105 475 105 c 0
 587 105 711 176 711 346 c 0
472 701 m 0
 684 701 837 568 837 354 c 0
 837 139 688 -7 468 -7 c 0
 280 -7 105 109 105 345 c 0
 105 562 257 701 472 701 c 0
263 829 m 1
 700 829 l 1
 700 726 l 1
 263 726 l 1
 263 829 l 1
EndSplineSet
EndChar

StartChar: omacron
Encoding: 333 333 286
Width: 671
VWidth: 0
Flags: HW
HStem: -10 108<257 424> 383 108<248 415> 519 103<123 564>
VStem: 63 118<173 319> 490 118<164 313>
LayerCount: 3
Fore
SplineSet
339 492 m 0
 496 492 608 406 608 250 c 0
 608 89 499 -10 330 -10 c 0
 170 -10 63 82 63 236 c 0
 63 393 169 492 339 492 c 0
331 383 m 0
 259 383 182 340 182 249 c 0
 182 166 245 99 340 99 c 0
 423 99 490 152 490 236 c 0
 490 335 406 383 331 383 c 0
123 622 m 5
 564 622 l 5
 564 519 l 5
 123 519 l 5
 123 622 l 5
EndSplineSet
EndChar

StartChar: Obreve
Encoding: 334 334 287
Width: 903
VWidth: 0
Flags: HW
HStem: -7 113<371 577> 588 113<365 570> 720 107<416 548>
VStem: 105 126<249 460> 711 126<239 452>
LayerCount: 3
Fore
SplineSet
253 876 m 1
 355 926 l 1
 365 908 l 2
 374 890 411 828 479 828 c 0
 535 828 589 874 619 911 c 2
 631 926 l 1
 727 866 l 1
 713 849 l 1
 657 781 568 720 471 720 c 0
 360 720 286 793 259 860 c 2
 253 876 l 1
711 346 m 0
 711 517 582 588 465 588 c 0
 355 588 231 519 231 355 c 0
 231 201 339 105 475 105 c 0
 587 105 711 176 711 346 c 0
472 701 m 0
 684 701 837 568 837 354 c 0
 837 139 688 -7 468 -7 c 0
 280 -7 105 109 105 345 c 0
 105 562 257 701 472 701 c 0
EndSplineSet
EndChar

StartChar: obreve
Encoding: 335 335 288
Width: 671
VWidth: 0
Flags: HW
HStem: -10 108<257 424> 383 108<248 415> 508 107<290 430>
VStem: 63 118<173 319> 490 118<164 313>
LayerCount: 3
Fore
SplineSet
125 664 m 5
 225 714 l 5
 235 696 l 6
 245 678 283 616 356 616 c 4
 415 616 472 662 502 699 c 5
 514 714 l 5
 602 654 l 5
 589 637 l 5
 537 569 450 508 347 508 c 0
 229 508 156 581 131 648 c 6
 125 664 l 5
331 383 m 0
 259 383 182 340 182 249 c 0
 182 166 245 99 340 99 c 0
 423 99 490 152 490 236 c 0
 490 335 406 383 331 383 c 0
339 492 m 0
 496 492 608 406 608 250 c 0
 608 89 499 -10 330 -10 c 0
 170 -10 63 82 63 236 c 0
 63 393 169 492 339 492 c 0
EndSplineSet
EndChar

StartChar: Racute
Encoding: 340 340 289
Width: 782
VWidth: 0
Flags: HW
HStem: 0 10G<142 265 570 737> 269 113<265 383> 581 113<265 506>
VStem: 142 124<0 269 382 581> 551 128<424 541>
LayerCount: 3
Fore
SplineSet
680 495 m 0
 680 410 641 324 528 290 c 1
 737 0 l 1
 577 0 l 5
 383 270 l 1
 375 270 367 269 359 269 c 2
 265 269 l 1
 265 0 l 1
 142 0 l 1
 142 694 l 1
 438 694 l 2
 498 694 572 691 626 640 c 1
 661 605 680 554 680 495 c 0
265 581 m 1
 265 382 l 1
 378 382 l 2
 453 382 512 389 540 438 c 0
 547 450 551 465 551 484 c 0
 551 523 527 565 459 577 c 0
 437 581 412 581 386 581 c 2
 265 581 l 1
513 973 m 1
 575 877 l 1
 253 713 l 1
 203 800 l 1
 513 973 l 1
EndSplineSet
EndChar

StartChar: racute
Encoding: 341 341 290
Width: 471
VWidth: 0
Flags: HW
HStem: 0 10G<88 217> 383 108<225 433> 473 10G<88 183>
VStem: 88 129<0 368>
LayerCount: 3
Fore
SplineSet
191 457 m 1xb0
 235 478 292 492 354 492 c 0
 388 492 423 485 455 470 c 2
 472 462 l 1
 433 363 l 1
 415 370 l 2
 393 379 368 383 341 383 c 2
 340 383 l 2xd0
 298 383 255 375 217 360 c 1
 217 0 l 1
 88 0 l 1
 88 482 l 1
 177 482 l 1
 191 457 l 1xb0
358 765 m 1
 429 681 l 1
 174 501 l 1
 111 581 l 1
 358 765 l 1
EndSplineSet
EndChar

StartChar: Rcommaaccent
Encoding: 342 342 291
Width: 782
VWidth: 0
Flags: HW
HStem: 0 10G<144 267 572 739> 269 113<267 385> 581 113<267 511>
VStem: 144 124<0 269 382 581> 553 128<424 541>
LayerCount: 3
Fore
SplineSet
235 -20 m 1
 380 -20 l 1
 273 -250 l 1
 142 -250 l 1
 235 -20 l 1
267 581 m 1
 267 382 l 1
 380 382 l 2
 455 382 514 389 542 438 c 0
 549 450 553 465 553 484 c 0
 553 523 529 565 461 577 c 0
 439 581 414 581 388 581 c 2
 267 581 l 1
682 495 m 0
 682 410 643 324 530 290 c 1
 739 0 l 1
 579 0 l 5
 385 270 l 1
 377 270 369 269 361 269 c 2
 267 269 l 1
 267 0 l 1
 144 0 l 1
 144 694 l 1
 439 694 l 2
 499 694 574 691 628 640 c 1
 663 605 682 554 682 495 c 0
EndSplineSet
EndChar

StartChar: rcommaaccent
Encoding: 343 343 292
Width: 471
VWidth: 0
Flags: HW
HStem: 0 10G<98 227> 383 108<234 443> 473 10G<98 192>
VStem: 98 129<0 368>
LayerCount: 3
Fore
SplineSet
201 457 m 1xb0
 245 478 302 492 364 492 c 0
 398 492 432 485 464 470 c 2
 481 462 l 1
 443 363 l 1
 424 370 l 2
 402 379 378 383 351 383 c 2
 350 383 l 2xd0
 308 383 265 375 227 360 c 1
 227 0 l 1
 98 0 l 1
 98 482 l 1
 187 482 l 1
 201 457 l 1xb0
106 -20 m 1
 252 -20 l 1
 144 -250 l 1
 13 -250 l 1
 106 -20 l 1
EndSplineSet
EndChar

StartChar: Rcaron
Encoding: 344 344 293
Width: 782
VWidth: 0
Flags: HW
HStem: 0 10G<142 265 570 737> 269 113<265 383> 581 113<265 506>
VStem: 142 124<0 269 382 581> 551 128<424 541>
LayerCount: 3
Fore
SplineSet
680 495 m 0
 680 410 641 324 528 290 c 1
 737 0 l 1
 577 0 l 5
 383 270 l 1
 375 270 367 269 359 269 c 2
 265 269 l 1
 265 0 l 1
 142 0 l 1
 142 694 l 1
 438 694 l 2
 498 694 572 691 626 640 c 1
 661 605 680 554 680 495 c 0
265 581 m 1
 265 382 l 1
 378 382 l 2
 453 382 512 389 540 438 c 0
 547 450 551 465 551 484 c 0
 551 523 527 565 459 577 c 0
 437 581 412 581 386 581 c 2
 265 581 l 1
374 711 m 1
 208 881 l 1
 285 952 l 1
 382 857 l 1
 481 951 l 1
 564 886 l 1
 374 711 l 1
EndSplineSet
EndChar

StartChar: rcaron
Encoding: 345 345 294
Width: 471
VWidth: 0
Flags: HW
HStem: 0 10G<88 217> 383 108<225 433> 473 10G<88 183>
VStem: 88 129<0 368>
LayerCount: 3
Fore
SplineSet
191 457 m 1xb0
 235 478 292 492 354 492 c 0
 388 492 423 485 455 470 c 2
 472 462 l 1
 433 363 l 1
 415 370 l 2
 393 379 368 383 341 383 c 2
 340 383 l 2xd0
 298 383 255 375 217 360 c 1
 217 0 l 1
 88 0 l 1
 88 482 l 1
 177 482 l 1
 191 457 l 1xb0
284 500 m 1
 107 670 l 1
 184 740 l 1
 293 646 l 1
 394 739 l 1
 467 675 l 1
 284 500 l 1
EndSplineSet
EndChar

StartChar: Sacute
Encoding: 346 346 295
Width: 744
VWidth: 0
Flags: HW
HStem: -10 122<249 500> 558 114<547 627> 582 118<327 596>
VStem: 137 134<462 540> 550 132<154 238>
LayerCount: 3
Fore
SplineSet
524 973 m 1x98
 583 877 l 1
 261 713 l 1
 208 800 l 1
 524 973 l 1x98
453 700 m 0xb8
 534 700 606 683 645 671 c 2
 665 666 l 1
 625 552 l 1
 606 558 l 1xd8
 535 578 479 582 445 582 c 0
 352 582 271 549 271 499 c 0
 271 380 682 423 682 200 c 0
 682 106 601 -10 370 -10 c 0
 272 -10 202 13 135 39 c 1
 117 45 l 1
 159 164 l 1
 178 156 l 1
 271 123 339 112 381 112 c 0
 481 112 550 146 550 196 c 0
 550 328 137 272 137 493 c 0
 137 606 256 700 453 700 c 0xb8
EndSplineSet
EndChar

StartChar: sacute
Encoding: 347 347 296
Width: 576
VWidth: 0
Flags: HW
HStem: -10 103<150 379> 372 100<346 471> 389 103<226 475>
VStem: 81 127<319 369> 394 129<111 164>
LayerCount: 3
Fore
SplineSet
150 581 m 1x98
 396 765 l 1
 469 681 l 1
 221 501 l 1
 150 581 l 1x98
394 144 m 1
 389 205 81 183 81 341 c 0
 81 400 135 492 343 492 c 0xb8
 418 492 448 481 482 471 c 2
 502 465 l 1
 469 367 l 1
 450 372 l 2xd8
 418 381 384 389 327 389 c 0xb8
 220 389 208 352 208 340 c 0
 208 285 523 292 523 143 c 0
 523 80 478 -10 269 -10 c 0
 221 -10 155 -2 82 28 c 2
 63 36 l 1
 100 133 l 1
 118 126 l 1
 182 102 226 93 273 93 c 0
 357 93 394 110 394 144 c 1
EndSplineSet
EndChar

StartChar: Scircumflex
Encoding: 348 348 297
Width: 744
VWidth: 0
Flags: HW
HStem: -10 122<249 500> 558 114<547 627> 582 118<327 596>
VStem: 137 134<462 540> 550 132<154 238>
LayerCount: 3
Fore
SplineSet
453 700 m 0xb8
 534 700 606 683 645 671 c 2
 665 666 l 1
 625 552 l 1
 606 558 l 1xd8
 535 578 479 582 445 582 c 0
 352 582 271 549 271 499 c 0
 271 380 682 423 682 200 c 0
 682 106 601 -10 370 -10 c 0
 272 -10 202 13 135 39 c 1
 117 45 l 1
 159 164 l 1
 178 156 l 1
 271 123 339 112 381 112 c 0
 481 112 550 146 550 196 c 0
 550 328 137 272 137 493 c 0
 137 606 256 700 453 700 c 0xb8
394 953 m 1
 567 783 l 1
 483 712 l 1
 386 807 l 1
 287 713 l 1
 208 778 l 1
 394 953 l 1
EndSplineSet
EndChar

StartChar: scircumflex
Encoding: 349 349 298
Width: 576
VWidth: 0
Flags: HW
HStem: -10 103<150 379> 372 100<346 471> 389 103<226 475>
VStem: 81 127<319 369> 394 129<111 164>
LayerCount: 3
Fore
SplineSet
130 566 m 1x98
 323 741 l 1
 490 571 l 1
 416 500 l 1
 314 595 l 1
 208 501 l 1
 130 566 l 1x98
394 144 m 1
 389 205 81 183 81 341 c 0
 81 400 135 492 343 492 c 0xb8
 418 492 448 481 482 471 c 2
 502 465 l 1
 469 367 l 1
 450 372 l 2xd8
 418 381 384 389 327 389 c 0xb8
 220 389 208 352 208 340 c 0
 208 285 523 292 523 143 c 0
 523 80 478 -10 269 -10 c 0
 221 -10 155 -2 82 28 c 2
 63 36 l 1
 100 133 l 1
 118 126 l 1
 182 102 226 93 273 93 c 0
 357 93 394 110 394 144 c 1
EndSplineSet
EndChar

StartChar: Scedilla
Encoding: 350 350 299
Width: 744
VWidth: 0
Flags: HW
HStem: -247 92<304 438> -215 89<272 332> -9 121<251 328 460 483> 558 114<547 627> 582 118<328 596>
VStem: 137 136<460 540> 551 130<153 238>
LayerCount: 3
Back
SplineSet
462.402 -154.785 m 4x2f
 462.402 -202.148 422.852 -247.559 358.887 -247.559 c 4xaf
 332.52 -247.559 315.918 -243.164 259.766 -226.562 c 6
 243.164 -221.68 l 5
 257.812 -170.898 l 5x4f
 272.461 -175.293 l 6
 325.684 -190.918 344.238 -195.312 362.305 -195.312 c 4
 391.602 -195.312 407.227 -178.711 407.227 -161.133 c 4
 407.227 -129.395 366.211 -121.094 359.375 -118.652 c 6
 292.969 -98.6328 l 5
 317.383 -9.76562 l 5xaf
 240.234 -9.76562 181.152 11.7188 117.188 37.1094 c 5
 145.508 117.676 l 5x1f
 234.863 84.4727 297.363 72.2656 338.379 72.2656 c 4
 436.035 72.2656 505.859 114.746 505.859 181.641 c 4
 505.859 346.191 131.348 278.32 131.348 499.023 c 4
 131.348 606.445 236.328 700.195 400.879 700.195 c 4
 463.379 700.195 526.367 686.523 573.242 672.363 c 5
 546.387 596.68 l 5
 524.414 603.027 455.078 622.07 394.043 622.07 c 4
 299.805 622.07 221.68 578.125 221.68 512.695 c 4
 221.68 361.816 596.191 417.969 596.191 193.848 c 4
 596.191 114.746 539.062 15.625 389.648 -5.37109 c 5
 374.512 -66.4062 l 5
 384.277 -69.3359 462.402 -83.9844 462.402 -154.785 c 4x2f
EndSplineSet
Fore
SplineSet
409 -155 m 0xa6
 434 -155 439 -145 439 -140 c 0
 439 -125 399 -116 324 -97 c 2
 302 -92 l 1
 328 -9 l 1
 249 -5 192 17 135 39 c 1
 117 45 l 1
 159 164 l 1
 178 156 l 1
 272 123 340 112 382 112 c 0
 483 112 551 146 551 196 c 0
 551 328 137 272 137 493 c 0
 137 606 258 700 454 700 c 0xae
 535 700 606 683 645 671 c 2
 665 666 l 1
 624 552 l 1
 606 558 l 1x36
 536 578 479 582 446 582 c 0
 354 582 273 549 273 499 c 0
 273 380 682 423 682 200 c 0
 682 119 622 22 460 -3 c 1
 452 -32 l 1
 486 -42 548 -68 548 -134 c 0
 548 -193 491 -247 406 -247 c 0xae
 378 -247 369 -246 267 -220 c 1
 245 -215 l 1
 274 -125 l 1x66
 296 -131 l 2
 347 -145 385 -155 409 -155 c 0xa6
EndSplineSet
EndChar

StartChar: scedilla
Encoding: 351 351 300
Width: 576
VWidth: 1023
Flags: HW
HStem: -243 86<189 341> 372 100<347 471> 389 103<232 475>
VStem: 81 131<319 368> 396 127<111 165>
LayerCount: 3
Back
SplineSet
344.727 -153.809 m 4
 344.727 -191.406 326.172 -237.305 244.629 -237.305 c 4
 216.309 -237.305 179.688 -231.934 133.789 -218.262 c 5
 146.484 -173.828 l 5
 205.078 -191.406 227.539 -196.777 247.559 -196.777 c 4
 278.809 -196.777 296.387 -178.711 296.387 -159.18 c 4
 296.387 -124.023 258.301 -118.164 184.57 -95.7031 c 5
 207.52 -9.76562 l 5
 171.875 -9.76562 122.07 2.92969 63.4766 26.8555 c 5
 85.9375 87.4023 l 5
 150.391 63.4766 188.965 53.2227 230.957 53.2227 c 4
 289.062 53.2227 350.098 65.918 350.098 128.906 c 4
 350.098 221.191 75.1953 184.57 75.1953 346.191 c 4
 75.1953 400.391 119.629 491.699 288.086 491.699 c 4
 350.586 491.699 375.977 482.422 410.645 472.168 c 5
 390.137 411.133 l 5
 358.398 419.922 323.73 429.199 274.902 429.199 c 4
 173.34 429.199 158.203 375.977 158.203 354.492 c 4
 158.203 268.066 437.5 288.574 437.5 138.184 c 4
 437.5 83.0078 405.273 -7.8125 270.02 -7.8125 c 5
 255.371 -66.4062 l 5
 277.832 -73.2422 344.727 -87.4023 344.727 -153.809 c 4
EndSplineSet
Fore
SplineSet
306 -157 m 0xb8
 333 -157 342 -146 342 -139 c 0
 342 -121 304 -116 221 -95 c 1
 198 -89 l 1
 225 -8 l 1
 181 -4 135 6 82 28 c 2
 63 36 l 1
 100 133 l 1
 118 126 l 1
 182 102 226 93 274 93 c 0
 359 93 396 110 396 144 c 1
 392 205 81 183 81 341 c 0
 81 400 134 492 344 492 c 0xb8
 418 492 448 481 482 471 c 2
 502 465 l 1
 469 367 l 1
 450 372 l 2xd8
 418 381 383 389 328 389 c 0
 246 389 212 361 212 341 c 0
 212 284 523 292 523 143 c 0
 523 89 490 15 355 -5 c 1
 346 -33 l 1
 385 -43 440 -68 440 -134 c 0
 440 -187 397 -243 304 -243 c 0
 258 -243 212 -230 164 -217 c 1
 145 -212 l 1
 168 -129 l 1
 188 -135 l 1
 247 -149 283 -157 306 -157 c 0xb8
EndSplineSet
EndChar

StartChar: Tcommaaccent
Encoding: 354 354 301
Width: 710
VWidth: 0
Flags: HW
HStem: -247 93<250 381> 581 113<42 293 417 668>
VStem: 293 123<-33 581>
LayerCount: 3
Back
SplineSet
41.5039 693.848 m 5
 668.457 693.848 l 5
 668.457 580.566 l 5
 416.504 580.566 l 5
 416.504 0 l 5
 293.457 0 l 5
 293.457 580.566 l 5
 41.5039 580.566 l 5
 41.5039 693.848 l 5
EndSplineSet
Fore
SplineSet
356 -154 m 1
 373 -154 382 -148 382 -141 c 0
 382 -123 328 -112 275 -97 c 1
 250 -91 l 1
 257 -73 l 2
 290 10 293 5 293 83 c 2
 293 581 l 1
 42 581 l 1
 42 694 l 1
 668 694 l 1
 668 581 l 1
 417 581 l 1
 417 90 l 2
 417 40 414 9 398 -35 c 1
 440 -49 501 -75 501 -134 c 0
 501 -189 443 -247 351 -247 c 0
 314 -247 289 -238 208 -220 c 1
 181 -215 l 1
 217 -125 l 1
 244 -131 l 1
 307 -146 334 -154 356 -154 c 1
EndSplineSet
EndChar

StartChar: tcommaaccent
Encoding: 355 355 302
Width: 448
VWidth: 0
Flags: HW
HStem: -243 86<159 322> -212 83<137 204> 379 103<34 99 234 406>
VStem: 99 135<104 379 482 621> 322 88<-155 -121>
LayerCount: 3
Back
SplineSet
257.812 515.137 m 5xd0
 359.375 745.605 l 5
 508.301 745.605 l 5xc8
 402.344 515.137 l 5
 257.812 515.137 l 5xd0
99.1211 620.605 m 5
 234.375 620.605 l 5
 234.375 482.422 l 5
 406.25 482.422 l 5
 406.25 379.395 l 5
 234.375 379.395 l 5
 234.375 163.086 l 6
 234.375 133.789 237.793 92.7734 306.641 92.7734 c 4
 322.754 92.7734 330.078 93.75 389.648 102.539 c 5
 408.691 105.957 l 5
 427.734 13.6719 l 5
 409.18 8.78906 l 5
 349.121 -5.85938 305.176 -9.76562 276.855 -9.76562 c 4
 130.371 -9.76562 99.1211 69.3359 99.1211 154.785 c 6
 99.1211 379.395 l 5
 34.1797 379.395 l 5
 34.1797 482.422 l 5
 99.1211 482.422 l 5
 99.1211 620.605 l 5
EndSplineSet
Fore
SplineSet
99 621 m 1xb8
 234 621 l 1
 234 482 l 1
 406 482 l 1
 406 379 l 1
 234 379 l 1
 234 157 l 2
 234 127 246 85 318 85 c 0
 331 85 338 86 390 94 c 2
 409 97 l 1
 428 14 l 1
 409 9 l 2
 393 5 363 -4 332 -8 c 1
 326 -33 l 1
 357 -43 411 -68 411 -134 c 0
 411 -187 367 -243 285 -243 c 0xb8
 229 -243 149 -222 134 -218 c 2
 115 -212 l 1
 139 -129 l 1x78
 160 -135 l 1
 187 -141 249 -157 288 -157 c 0
 309 -157 322 -152 322 -140 c 0
 322 -121 305 -120 195 -95 c 1
 169 -90 l 1
 203 0 l 1
 102 29 99 116 99 148 c 2
 99 379 l 1
 34 379 l 1
 34 482 l 1
 99 482 l 1
 99 621 l 1xb8
EndSplineSet
EndChar

StartChar: Tcaron
Encoding: 356 356 303
Width: 670
VWidth: 0
Flags: HW
HStem: 0 10G<293 417> 581 113<42 293 417 668>
VStem: 293 123<0 581>
LayerCount: 3
Fore
SplineSet
42 694 m 5
 668 694 l 5
 668 581 l 5
 417 581 l 5
 417 0 l 5
 293 0 l 5
 293 581 l 5
 42 581 l 5
 42 694 l 5
361 711 m 1
 191 881 l 1
 274 952 l 1
 370 857 l 1
 466 951 l 1
 548 886 l 1
 361 711 l 1
EndSplineSet
EndChar

StartChar: tcaron
Encoding: 357 357 304
Width: 448
VWidth: 0
Flags: HW
HStem: -10 103<249 412> 9 94<307 409> 379 103<34 99 234 406>
VStem: 99 135<108 379 482 621>
LayerCount: 3
Fore
SplineSet
258 515 m 5x30
 359 746 l 5
 508 746 l 5
 402 515 l 5
 258 515 l 5x30
99 621 m 5
 234 621 l 5
 234 482 l 5
 406 482 l 5
 406 379 l 5
 234 379 l 5
 234 163 l 6
 234 134 238 93 307 93 c 4xb0
 323 93 330 94 390 103 c 5
 409 106 l 5
 428 14 l 5
 409 9 l 5x70
 349 -6 305 -10 277 -10 c 4xb0
 131 -10 99 70 99 155 c 6
 99 379 l 5
 34 379 l 5
 34 482 l 5
 99 482 l 5
 99 621 l 5
EndSplineSet
EndChar

StartChar: Utilde
Encoding: 360 360 305
Width: 851
VWidth: 0
Flags: HW
HStem: -10 112<340 555> 684 10G<142 265 626 749> 722 99<485 551> 810 99<318 383>
VStem: 142 123<163 694> 626 123<166 694>
LayerCount: 3
Fore
SplineSet
445 -10 m 0xcc
 141 -10 141 171 141 243 c 0
 141 266 142 289 142 305 c 2
 142 694 l 1
 265 694 l 1
 265 254 l 2
 265 212 268 177 300 147 c 0
 314 134 355 102 445 102 c 0
 538 102 602 135 620 195 c 0
 625 213 626 233 626 254 c 2
 626 694 l 1
 749 694 l 1
 749 305 l 2
 749 285 750 264 750 243 c 0
 750 168 742 -10 445 -10 c 0xcc
347 909 m 1xdc
 450 905 487 821 522 821 c 0
 545 821 562 860 584 899 c 2
 594 916 l 1
 685 877 l 1
 676 858 l 2
 653 810 618 722 522 722 c 1xec
 418 726 383 810 347 810 c 0
 324 810 306 770 285 732 c 2
 275 715 l 1
 187 754 l 1
 195 772 l 2
 218 820 253 909 347 909 c 1xdc
EndSplineSet
EndChar

StartChar: utilde
Encoding: 361 361 306
Width: 656
VWidth: 0
Flags: HW
HStem: -10 112<245 414> 0 10G<480 574> 473 10G<95 215 454 574> 510 99<391 459> 598 99<214 283>
VStem: 95 120<133 482> 454 120<122 482>
LayerCount: 3
Fore
SplineSet
243 697 m 1x2e
 354 693 392 609 430 609 c 0
 454 609 467 642 490 687 c 2
 499 705 l 1
 585 665 l 1
 576 646 l 1
 553 598 519 510 430 510 c 1x36
 320 514 282 598 244 598 c 0
 219 598 207 566 184 520 c 1
 175 503 l 1
 87 542 l 1
 96 561 l 1
 119 608 153 697 243 697 c 1x2e
454 482 m 1
 574 482 l 1
 574 0 l 1
 484 0 l 1x66
 471 33 l 1
 392 -1 325 -10 281 -10 c 0
 117 -10 95 99 95 197 c 2
 95 482 l 1
 215 482 l 1
 215 198 l 2
 215 166 219 102 323 102 c 0xa6
 372 102 424 118 454 129 c 1
 454 482 l 1
EndSplineSet
EndChar

StartChar: Umacron
Encoding: 362 362 307
Width: 851
VWidth: 0
Flags: HW
HStem: -10 112<340 555> 684 10G<142 265 626 749> 726 103<193 678>
VStem: 142 123<163 694> 626 123<166 694>
LayerCount: 3
Fore
SplineSet
445 -10 m 0
 141 -10 141 171 141 243 c 0
 141 266 142 289 142 305 c 2
 142 694 l 1
 265 694 l 1
 265 254 l 2
 265 212 268 177 300 147 c 0
 314 134 355 102 445 102 c 0
 538 102 602 135 620 195 c 0
 625 213 626 233 626 254 c 2
 626 694 l 1
 749 694 l 1
 749 305 l 2
 749 285 750 264 750 243 c 0
 750 168 742 -10 445 -10 c 0
193 829 m 1
 678 829 l 1
 678 726 l 1
 193 726 l 1
 193 829 l 1
EndSplineSet
EndChar

StartChar: umacron
Encoding: 363 363 308
Width: 654
VWidth: 0
Flags: HW
HStem: -10 112<238 407> 0 10G<473 567> 473 10G<88 208 447 567> 548 103<143 515>
VStem: 88 120<133 482> 447 120<122 482>
LayerCount: 3
Fore
SplineSet
447 482 m 1xbc
 567 482 l 1
 567 0 l 1
 478 0 l 1x7c
 463 33 l 1
 384 -1 318 -10 274 -10 c 0
 110 -10 88 99 88 197 c 2
 88 482 l 1
 208 482 l 1
 208 198 l 2
 208 166 212 102 316 102 c 0
 365 102 417 118 447 129 c 1
 447 482 l 1xbc
143 651 m 1
 515 651 l 1
 515 548 l 1
 143 548 l 1
 143 651 l 1
EndSplineSet
EndChar

StartChar: Ubreve
Encoding: 364 364 309
Width: 851
VWidth: 0
Flags: HW
HStem: -10 112<340 555> 684 10G<142 265 626 749> 720 107<337 473>
VStem: 142 123<163 694> 626 123<166 694>
LayerCount: 3
Fore
SplineSet
179 876 m 1
 273 926 l 1
 284 908 l 2
 294 890 331 828 402 828 c 0
 460 828 515 874 546 911 c 1
 559 926 l 1
 655 866 l 1
 642 849 l 1
 586 781 493 720 393 720 c 0
 278 720 210 793 185 860 c 2
 179 876 l 1
445 -10 m 0
 142 -10 141 172 141 243 c 0
 141 264 142 285 142 305 c 2
 142 694 l 1
 265 694 l 1
 265 254 l 2
 265 212 268 177 300 147 c 0
 314 134 355 102 445 102 c 0
 538 102 602 135 620 195 c 0
 625 213 626 233 626 254 c 2
 626 694 l 1
 749 694 l 1
 749 305 l 2
 749 285 750 264 750 243 c 0
 750 168 742 -10 445 -10 c 0
EndSplineSet
EndChar

StartChar: ubreve
Encoding: 365 365 310
Width: 654
VWidth: 0
Flags: HW
HStem: -10 112<238 407> 0 10G<473 567> 473 10G<88 208 447 567> 508 107<254 401>
VStem: 88 120<133 482> 447 120<122 482>
LayerCount: 3
Fore
SplineSet
447 482 m 1xbc
 567 482 l 1
 567 0 l 1
 478 0 l 1x7c
 463 33 l 1
 384 -1 318 -10 274 -10 c 0
 110 -10 88 99 88 197 c 2
 88 482 l 1
 208 482 l 1
 208 198 l 2
 208 166 212 102 316 102 c 0
 365 102 417 118 447 129 c 1
 447 482 l 1xbc
97 664 m 1
 191 714 l 1
 200 696 l 2
 209 678 249 616 325 616 c 0
 387 616 445 662 473 699 c 2
 485 714 l 1
 573 654 l 1
 561 637 l 1
 509 569 422 508 315 508 c 0
 195 508 128 580 103 648 c 2
 97 664 l 1
EndSplineSet
EndChar

StartChar: Uring
Encoding: 366 366 311
Width: 851
VWidth: 0
Flags: HW
HStem: -10 112<340 555> 684 10G<142 265 626 749> 721 84<392 474> 896 84<392 474>
VStem: 142 123<163 694> 291 94<814 887> 482 96<814 887> 626 123<166 694>
LayerCount: 3
Fore
SplineSet
435 980 m 0
 513 980 578 923 578 851 c 0
 578 779 514 721 435 721 c 0
 357 721 291 779 291 851 c 0
 291 922 356 980 435 980 c 0
435 896 m 0
 407 896 385 875 385 851 c 0
 385 827 406 805 435 805 c 0
 466 805 482 831 482 851 c 0
 482 874 462 896 435 896 c 0
445 -10 m 0
 142 -10 141 172 141 243 c 0
 141 264 142 285 142 305 c 2
 142 694 l 1
 265 694 l 1
 265 254 l 2
 265 212 268 177 300 147 c 0
 314 134 355 102 445 102 c 0
 538 102 602 135 620 195 c 0
 625 213 626 233 626 254 c 2
 626 694 l 1
 749 694 l 1
 749 305 l 2
 749 285 750 264 750 243 c 0
 750 168 742 -10 445 -10 c 0
EndSplineSet
EndChar

StartChar: uring
Encoding: 367 367 312
Width: 654
VWidth: 0
Flags: HW
HStem: -10 112<238 407> 0 10G<473 567> 473 10G<88 208 447 567> 509 84<285 372> 684 84<287 372>
VStem: 88 120<133 482> 182 96<602 675> 380 96<602 675> 447 120<122 482>
LayerCount: 3
Fore
SplineSet
447 482 m 1xbc80
 567 482 l 1
 567 0 l 1
 478 0 l 1x7c80
 463 33 l 1
 384 -1 318 -10 274 -10 c 0
 110 -10 88 99 88 197 c 2
 88 482 l 1
 208 482 l 1
 208 198 l 2
 208 166 212 102 316 102 c 0
 365 102 417 118 447 129 c 1
 447 482 l 1xbc80
330 768 m 0
 413 768 477 711 477 639 c 0
 477 567 414 509 330 509 c 0
 247 509 182 567 182 639 c 0x3b
 182 710 246 768 330 768 c 0
330 684 m 0
 300 684 278 663 278 639 c 0
 278 615 299 593 330 593 c 0
 358 593 380 615 380 639 c 0
 380 663 358 684 330 684 c 0
EndSplineSet
EndChar

StartChar: Wcircumflex
Encoding: 372 372 313
Width: 1172
VWidth: 0
Flags: HW
HStem: 0 10G<295 420 776 901> 684 10G<68 202 556 676 1030 1157>
LayerCount: 3
Fore
SplineSet
68 694 m 1
 199 694 l 1
 359 161 l 1
 560 694 l 1
 673 694 l 1
 838 161 l 1
 1033 694 l 1
 1157 694 l 1
 897 0 l 1
 779 0 l 1
 612 531 l 1
 416 0 l 1
 298 0 l 1
 68 694 l 1
620 955 m 1
 784 785 l 1
 701 714 l 1
 613 809 l 1
 521 715 l 1
 439 780 l 1
 620 955 l 1
EndSplineSet
EndChar

StartChar: wcircumflex
Encoding: 373 373 314
Width: 942
VWidth: 0
Flags: HW
HStem: 0 10G<211 329 587 704> 473 10G<29 161 419 534 798 931>
LayerCount: 3
Fore
SplineSet
29 482 m 1
 158 482 l 1
 273 125 l 1
 423 482 l 1
 531 482 l 1
 646 124 l 1
 802 482 l 1
 931 482 l 1
 700 0 l 1
 590 0 l 1
 477 347 l 1
 324 0 l 1
 215 0 l 1
 29 482 l 1
480 743 m 1
 650 573 l 1
 564 502 l 1
 474 597 l 1
 380 504 l 1
 294 569 l 1
 480 743 l 1
EndSplineSet
EndChar

StartChar: Ycircumflex
Encoding: 374 374 315
Width: 696
VWidth: 0
Flags: HW
HStem: 0 10G<306 444> 684 10G<49 201 562 710>
VStem: 306 138<0 324>
LayerCount: 3
Fore
SplineSet
49 694 m 1
 194 694 l 1
 380 425 l 1
 569 694 l 1
 710 694 l 1
 444 324 l 1
 444 0 l 1
 306 0 l 1
 306 324 l 1
 49 694 l 1
389 953 m 1
 559 783 l 1
 476 712 l 1
 381 807 l 1
 283 713 l 1
 202 778 l 1
 389 953 l 1
EndSplineSet
EndChar

StartChar: ycircumflex
Encoding: 375 375 316
Width: 592
VWidth: 0
Flags: HW
HStem: 473 10G<24 155 457 587>
LayerCount: 3
Fore
SplineSet
24 482 m 1
 151 482 l 1
 312 112 l 1
 460 482 l 1
 587 482 l 1
 269 -259 l 1
 124 -259 l 1
 244 1 l 1
 24 482 l 1
316 741 m 1
 487 571 l 1
 405 500 l 1
 308 595 l 1
 208 501 l 1
 127 566 l 1
 316 741 l 1
EndSplineSet
EndChar

StartChar: Zacute
Encoding: 377 377 317
Width: 743
VWidth: 0
Flags: HW
HStem: 0 113<252 714> 581 113<90 514>
LayerCount: 3
Fore
SplineSet
90 694 m 1
 701 694 l 1
 701 619 l 1
 252 113 l 1
 714 113 l 1
 714 0 l 1
 76 0 l 1
 76 76 l 1
 514 581 l 1
 90 581 l 1
 90 694 l 1
530 973 m 1
 590 877 l 1
 274 713 l 1
 218 800 l 1
 530 973 l 1
EndSplineSet
EndChar

StartChar: zacute
Encoding: 378 378 318
Width: 606
VWidth: 0
Flags: HW
HStem: 0 103<245 533> 379 103<73 345>
LayerCount: 3
Fore
SplineSet
73 482 m 1
 521 482 l 1
 521 420 l 1
 245 103 l 1
 533 103 l 1
 533 0 l 1
 73 0 l 1
 73 62 l 1
 345 379 l 1
 73 379 l 1
 73 482 l 1
394 765 m 1
 468 681 l 1
 218 501 l 1
 150 581 l 1
 394 765 l 1
EndSplineSet
EndChar

StartChar: Zdotaccent
Encoding: 379 379 319
Width: 743
VWidth: 0
Flags: HW
HStem: 0 113<252 714> 581 113<90 514> 750 143<307 466>
VStem: 307 159<750 893>
LayerCount: 3
Fore
SplineSet
90 694 m 1
 701 694 l 1
 701 619 l 1
 252 113 l 1
 714 113 l 1
 714 0 l 1
 76 0 l 1
 76 76 l 1
 514 581 l 1
 90 581 l 1
 90 694 l 1
307 893 m 1
 466 893 l 1
 466 750 l 1
 307 750 l 1
 307 893 l 1
EndSplineSet
EndChar

StartChar: zdotaccent
Encoding: 380 380 320
Width: 606
VWidth: 0
Flags: HW
HStem: 0 103<245 533> 379 103<73 345> 562 132<215 380>
VStem: 215 165<562 694>
LayerCount: 3
Fore
SplineSet
73 482 m 1
 521 482 l 1
 521 420 l 1
 245 103 l 1
 533 103 l 1
 533 0 l 1
 73 0 l 1
 73 62 l 1
 345 379 l 1
 73 379 l 1
 73 482 l 1
215 694 m 1
 380 694 l 1
 380 562 l 1
 215 562 l 1
 215 694 l 1
EndSplineSet
EndChar

StartChar: gcommaaccent
Encoding: 291 291 321
Width: 654
VWidth: 1023
Flags: HW
HStem: -265 107<147 371> -10 105<252 440> 386 105<245 440> 473 10G<472 566>
VStem: 62 118<167 321> 441 125<-88 11 106 373>
LayerCount: 3
Fore
SplineSet
213 525 m 1xcc
 321 755 l 1
 473 755 l 1
 364 525 l 1
 213 525 l 1xcc
181 247 m 0
 181 163 233 95 343 95 c 0
 381 95 415 104 441 113 c 1
 441 368 l 1
 390 383 355 386 332 386 c 0xec
 241 386 181 332 181 247 c 0
326 491 m 0
 348 491 392 490 467 460 c 1
 476 482 l 1
 566 482 l 1xdc
 566 -11 l 2
 566 -125 515 -265 283 -265 c 0
 233 -265 170 -256 112 -232 c 1
 94 -225 l 1
 130 -130 l 1
 149 -137 l 2
 175 -147 220 -158 271 -158 c 0
 448 -158 441 -26 441 11 c 1
 405 -1 363 -10 317 -10 c 0
 192 -10 62 55 62 239 c 0
 62 430 218 491 326 491 c 0
EndSplineSet
EndChar

StartChar: eng
Encoding: 331 331 322
Width: 654
VWidth: 1023
Flags: HW
HStem: -169 107<268 431> -151 99<272 378> 0 10G<88 213> 380 112<249 419> 473 10G<88 182>
VStem: 88 125<0 361> 446 120<-48 349>
LayerCount: 3
Fore
SplineSet
341 380 m 0xb6
 317 380 273 375 213 353 c 1
 213 0 l 1
 88 0 l 1
 88 482 l 1
 177 482 l 1x2e
 193 450 l 1
 274 484 339 492 379 492 c 0
 561 492 566 346 566 292 c 2
 566 12 l 2
 566 -84 535 -169 406 -169 c 0xb6
 379 -169 337 -166 271 -151 c 2
 249 -146 l 1
 272 -49 l 1
 295 -52 l 1x66
 357 -61 363 -62 378 -62 c 0
 435 -62 446 -30 446 12 c 2
 446 284 l 2
 446 318 442 380 341 380 c 0xb6
EndSplineSet
EndChar

StartChar: uni0237
Encoding: 567 567 323
Width: 295
VWidth: 1023
Flags: HW
HStem: 473 10G<95 215>
VStem: 95 120<-125 482>
LayerCount: 3
Fore
SplineSet
95 482 m 1
 215 482 l 1
 215 -47 l 2
 215 -109 210 -210 73 -260 c 1
 56 -266 l 1
 9 -171 l 1
 27 -162 l 2
 92 -131 95 -81 95 -55 c 2
 95 482 l 1
EndSplineSet
EndChar

StartChar: Eng
Encoding: 330 330 324
Width: 884
VWidth: 1023
Flags: HW
HStem: -178 107<470 639> -161 99<473 575> 0 10G<142 269> 602 123<388 588> 684 10G<142 234>
VStem: 142 127<0 554> 659 124<-50 529>
LayerCount: 3
Fore
SplineSet
659 14 m 2xa6
 659 413 l 2
 659 473 659 602 492 602 c 0xb6
 449 602 383 591 269 546 c 1
 269 0 l 1
 142 0 l 1
 142 694 l 1
 229 694 l 1x2e
 250 655 l 1
 389 711 468 724 528 724 c 0
 679 724 763 638 779 523 c 0
 782 497 782 472 782 447 c 2
 782 3 l 2
 782 -137 691 -178 600 -178 c 0xb6
 574 -178 534 -176 473 -161 c 2
 452 -156 l 1
 474 -58 l 1
 496 -62 l 2x66
 536 -69 561 -71 575 -71 c 0
 658 -71 659 -14 659 14 c 2xa6
EndSplineSet
EndChar

StartChar: Lslash
Encoding: 321 321 325
Width: 633
VWidth: 1023
Flags: HW
HStem: 0 113<276 616> 684 10G<142 265>
VStem: 142 134<113 242> 142 123<438 694>
LayerCount: 3
Fore
SplineSet
142 694 m 1xd0
 265 694 l 1
 265 438 l 1xd0
 418 511 l 1
 418 381 l 1
 276 313 l 1
 276 113 l 1xe0
 616 113 l 1
 616 0 l 1
 142 0 l 1xd0
 142 242 l 1xe0
 71 204 l 1
 71 327 l 1
 142 365 l 1
 142 694 l 1xd0
EndSplineSet
EndChar

StartChar: lslash
Encoding: 322 322 326
Width: 375
VWidth: 1023
Flags: HW
HStem: 0 10G<112 232> 479 10G<320 336> 728 10G<112 232>
VStem: 112 120<0 260 429 738>
LayerCount: 3
Fore
SplineSet
112 738 m 1
 232 738 l 1
 232 429 l 1
 336 489 l 1
 336 369 l 1
 232 315 l 1
 232 0 l 1
 112 0 l 1
 112 260 l 1
 44 221 l 1
 44 340 l 1
 112 377 l 1
 112 738 l 1
EndSplineSet
EndChar

StartChar: kgreenlandic
Encoding: 312 312 327
Width: 603
VWidth: 0
Flags: HW
HStem: 0 10G<88 208 432 593> 473 10G<88 208 421 567>
VStem: 88 120<0 223 271 482>
LayerCount: 3
Fore
SplineSet
208 271 m 1
 431 482 l 1
 567 482 l 1
 336 256 l 1
 593 0 l 1
 442 0 l 1
 208 223 l 1
 208 0 l 1
 88 0 l 1
 88 482 l 1
 208 482 l 1
 208 271 l 1
EndSplineSet
EndChar

StartChar: napostrophe
Encoding: 329 329 328
Width: 737
VWidth: 1023
Flags: HW
HStem: 0 10G<170 291 529 649> 380 112<330 500> 473 10G<170 264> 684 10G<34 147>
VStem: 34 113<442 694> 170 120<0 360> 529 121<0 349>
LayerCount: 3
Fore
SplineSet
170 482 m 1xbe
 260 482 l 1xbe
 274 449 l 1
 353 483 419 492 463 492 c 0
 627 492 649 383 649 285 c 2
 649 0 l 1
 529 0 l 1
 529 283 l 2
 529 317 524 380 421 380 c 0xde
 372 380 321 364 291 353 c 1
 291 0 l 1
 170 0 l 1
 170 482 l 1xbe
34 694 m 1
 147 694 l 1
 147 442 l 1
 34 442 l 1
 34 694 l 1
EndSplineSet
EndChar

StartChar: ogonek
Encoding: 731 731 329
Width: 529
VWidth: 0
Flags: HW
HStem: -286 104<317 407>
VStem: 205 110<-180 -95>
LayerCount: 3
Fore
SplineSet
205 -164 m 0
 205 -63 301 54 433 90 c 1
 453 95 l 1
 477 3 l 1
 459 -3 l 2
 364 -38 315 -108 315 -147 c 0
 315 -167 326 -181 347 -181 c 0
 358 -181 379 -177 417 -155 c 2
 435 -144 l 1
 476 -222 l 1
 462 -232 l 2
 441 -247 382 -286 323 -286 c 0
 252 -286 205 -233 205 -164 c 0
EndSplineSet
EndChar

StartChar: hungarumlaut
Encoding: 733 733 330
Width: 806
VWidth: 1023
Flags: HW
HStem: 533 278
LayerCount: 3
Fore
SplineSet
168 533 m 5
 106 623 l 5
 375 811 l 5
 433 729 l 5
 168 533 l 5
629 811 m 5
 691 721 l 5
 422 533 l 5
 365 615 l 5
 629 811 l 5
EndSplineSet
EndChar

StartChar: uni02EE
Encoding: 750 750 331
Width: 407
VWidth: 1023
Flags: HW
HStem: 509 249<34 164 224 354>
VStem: 34 130<509 758> 224 130<509 758>
LayerCount: 3
Fore
SplineSet
224 758 m 1
 354 758 l 1
 354 509 l 1
 224 509 l 1
 224 758 l 1
34 758 m 1
 164 758 l 1
 164 509 l 1
 34 509 l 1
 34 758 l 1
EndSplineSet
EndChar

StartChar: uni0302
Encoding: 770 770 332
Width: 722
VWidth: 1023
Flags: HW
HStem: 541 241
VStem: 188 319
LayerCount: 3
Fore
SplineSet
354 782 m 1
 507 612 l 1
 433 541 l 1
 347 636 l 1
 261 542 l 1
 188 607 l 1
 354 782 l 1
EndSplineSet
EndChar

StartChar: Tbar
Encoding: 358 358 333
Width: 670
VWidth: 1023
Flags: HW
HStem: 0 10G<293 417> 274 113<111 293 417 599> 581 113<42 293 417 668>
VStem: 293 123<0 274 388 581>
LayerCount: 3
Fore
SplineSet
42 694 m 1
 668 694 l 1
 668 581 l 1
 417 581 l 1
 417 388 l 1
 599 388 l 1
 599 274 l 1
 417 274 l 1
 417 0 l 1
 293 0 l 1
 293 274 l 1
 111 274 l 1
 111 388 l 1
 293 388 l 1
 293 581 l 1
 42 581 l 1
 42 694 l 1
EndSplineSet
EndChar

StartChar: tbar
Encoding: 359 359 334
Width: 448
VWidth: 1023
Flags: HW
HStem: -10 103<254 412> 9 94<319 409> 214 93<34 99 234 406> 379 103<34 99 234 406>
VStem: 99 135<110 214 307 379 482 621>
LayerCount: 3
Back
SplineSet
257.812 515.137 m 5xd0
 359.375 745.605 l 5
 508.301 745.605 l 5xc8
 402.344 515.137 l 5
 257.812 515.137 l 5xd0
99.1211 620.605 m 5
 234.375 620.605 l 5
 234.375 482.422 l 5
 406.25 482.422 l 5
 406.25 379.395 l 5
 234.375 379.395 l 5
 234.375 163.086 l 6
 234.375 133.789 237.793 92.7734 306.641 92.7734 c 4
 322.754 92.7734 330.078 93.75 389.648 102.539 c 5
 408.691 105.957 l 5
 427.734 13.6719 l 5
 409.18 8.78906 l 5
 349.121 -5.85938 305.176 -9.76562 276.855 -9.76562 c 4
 130.371 -9.76562 99.1211 69.3359 99.1211 154.785 c 6
 99.1211 379.395 l 5
 34.1797 379.395 l 5
 34.1797 482.422 l 5
 99.1211 482.422 l 5
 99.1211 620.605 l 5
EndSplineSet
Fore
SplineSet
409 9 m 2x78
 352 -6 317 -10 289 -10 c 0
 164 -10 99 36 99 157 c 2
 99 214 l 1
 34 214 l 1
 34 307 l 1
 99 307 l 1
 99 379 l 1
 34 379 l 1
 34 482 l 1
 99 482 l 1
 99 621 l 1
 234 621 l 1
 234 482 l 1
 406 482 l 1
 406 379 l 1
 234 379 l 1
 234 307 l 1
 406 307 l 1
 406 214 l 1
 234 214 l 1
 234 162 l 2
 234 134 246 93 318 93 c 0xb8
 331 93 338 94 390 103 c 1
 409 106 l 1
 428 14 l 1
 409 9 l 2x78
EndSplineSet
EndChar

StartChar: Hbar
Encoding: 294 294 335
Width: 861
VWidth: 1023
Flags: HW
HStem: 0 10G<142 265 636 759> 301 113<265 636> 523 102<68 142 759 832> 533 87<265 636> 684 10G<142 265 636 759>
VStem: 142 123<0 301 415 523 625 694> 636 123<0 301 415 523 625 694>
LayerCount: 3
Fore
SplineSet
636 694 m 1xde
 759 694 l 1
 759 625 l 1
 832 625 l 1
 832 523 l 1
 759 523 l 1
 759 0 l 1
 636 0 l 1
 636 301 l 1
 265 301 l 1
 265 0 l 1
 142 0 l 1
 142 523 l 1
 68 523 l 1
 68 625 l 1
 142 625 l 1xee
 142 694 l 1
 265 694 l 1
 265 621 l 1
 636 621 l 1
 636 694 l 1xde
636 415 m 1
 636 533 l 1
 265 533 l 1xde
 265 415 l 1
 636 415 l 1
EndSplineSet
EndChar

StartChar: hbar
Encoding: 295 295 336
Width: 661
VWidth: 1023
Flags: HW
HStem: 0 10G<93 213 447 574> 380 111<247 415> 535 103<27 93 213 398> 728 10G<93 213>
VStem: 93 120<0 361 458 535 638 738> 447 127<0 349>
LayerCount: 3
Back
SplineSet
276.855 56.1523 m 4xbe
 235.352 56.1523 198.242 69.8242 172.852 83.4961 c 5
 172.852 405.762 l 5
 196.777 416.504 235.84 429.199 277.832 429.199 c 4
 347.168 429.199 438.477 392.578 438.477 245.605 c 4
 438.477 91.7969 341.309 56.1523 276.855 56.1523 c 4xbe
516.602 232.91 m 4
 516.602 403.32 416.504 492.188 289.551 492.188 c 4
 242.676 492.188 205.078 480.469 172.852 466.309 c 5
 172.852 574.707 l 5
 303.711 574.707 l 5
 303.711 637.695 l 5
 172.852 637.695 l 5
 172.852 737.793 l 5
 92.7734 737.793 l 5
 92.7734 637.695 l 5
 26.8555 637.695 l 5
 26.8555 574.707 l 5
 92.7734 574.707 l 5
 92.7734 0 l 5
 148.438 0 l 5x7e
 161.621 30.2734 l 5
 210.449 1.46484 260.742 -9.76562 303.223 -9.76562 c 4
 398.926 -9.76562 516.602 49.8047 516.602 232.91 c 4
EndSplineSet
Fore
SplineSet
93 738 m 1
 213 738 l 1
 213 638 l 1
 398 638 l 1
 398 535 l 1
 213 535 l 1
 213 458 l 1
 255 474 316 491 378 491 c 0
 538 491 574 392 574 286 c 2
 574 0 l 1
 447 0 l 1
 447 284 l 2
 447 316 443 380 341 380 c 0
 316 380 273 375 213 353 c 1
 213 0 l 1
 93 0 l 1
 93 535 l 1
 27 535 l 1
 27 638 l 1
 93 638 l 1
 93 738 l 1
EndSplineSet
EndChar

StartChar: dcroat
Encoding: 273 273 337
Width: 684
VWidth: 1023
Flags: HW
HStem: -10 106<258 443> 0 10G<474 567> 389 103<253 446> 535 103<297 447 567 633> 728 10G<447 567>
VStem: 63 124<163 326> 447 120<106 380 476 535 638 738>
LayerCount: 3
Back
SplineSet
303.223 56.1523 m 0xbe
 344.727 56.1523 381.836 69.8242 407.227 83.4961 c 1
 407.227 405.762 l 1
 383.301 416.504 344.238 429.199 302.246 429.199 c 0
 232.91 429.199 141.602 392.578 141.602 245.605 c 0
 141.602 91.7969 238.77 56.1523 303.223 56.1523 c 0xbe
63.4766 232.91 m 0
 63.4766 403.32 163.574 492.188 290.527 492.188 c 0
 337.402 492.188 375 480.469 407.227 466.309 c 1
 407.227 574.707 l 1
 276.367 574.707 l 1
 276.367 637.695 l 1
 407.227 637.695 l 1
 407.227 737.793 l 1
 487.305 737.793 l 1
 487.305 637.695 l 1
 560.547 637.695 l 1
 560.547 574.707 l 1
 487.305 574.707 l 1
 487.305 0 l 1
 431.641 0 l 1x7e
 418.457 30.2734 l 1
 369.629 1.46484 319.336 -9.76562 276.855 -9.76562 c 0
 181.152 -9.76562 63.4766 49.8047 63.4766 232.91 c 0
EndSplineSet
Fore
SplineSet
350 389 m 0xbe
 287 389 188 367 188 245 c 0
 188 122 286 96 351 96 c 0
 388 96 422 104 447 113 c 1
 447 375 l 1
 422 382 387 389 350 389 c 0xbe
336 492 m 0
 378 492 415 486 447 476 c 1
 447 535 l 1
 297 535 l 1
 297 638 l 1
 447 638 l 1
 447 738 l 1
 567 738 l 1
 567 638 l 1
 633 638 l 1
 633 535 l 1
 567 535 l 1
 567 0 l 1
 479 0 l 1x7e
 469 22 l 1
 420 -1 366 -10 320 -10 c 0
 201 -10 63 50 63 233 c 0
 63 402 178 492 336 492 c 0
EndSplineSet
EndChar

StartChar: Ohungarumlaut
Encoding: 336 336 338
Width: 903
VWidth: 0
Flags: HW
HStem: -7 113<371 577> 588 113<365 570>
VStem: 105 126<249 460> 711 126<239 452>
LayerCount: 3
Fore
SplineSet
770 982 m 1
 833 892 l 1
 550 704 l 1
 487 786 l 1
 770 982 l 1
498 982 m 1
 566 892 l 1
 273 704 l 1
 211 786 l 1
 498 982 l 1
711 346 m 0
 711 517 582 588 465 588 c 0
 355 588 231 519 231 355 c 0
 231 201 339 105 475 105 c 0
 587 105 711 176 711 346 c 0
472 701 m 0
 684 701 837 568 837 354 c 0
 837 139 688 -7 468 -7 c 0
 280 -7 105 109 105 345 c 0
 105 562 257 701 472 701 c 0
EndSplineSet
EndChar

StartChar: ohungarumlaut
Encoding: 337 337 339
Width: 671
VWidth: 0
Flags: HW
HStem: -10 108<255 417> 383 108<247 411>
VStem: 63 118<170 320> 484 124<160 313>
LayerCount: 3
Fore
SplineSet
335 492 m 0
 490 492 608 406 608 250 c 0
 608 89 494 -10 327 -10 c 0
 170 -10 63 82 63 236 c 0
 63 393 168 492 335 492 c 0
328 383 m 0
 257 383 182 340 182 249 c 0
 182 166 244 99 337 99 c 0
 418 99 484 152 484 236 c 0
 484 335 402 383 328 383 c 0
584 765 m 1
 655 681 l 1
 428 501 l 1
 356 581 l 1
 584 765 l 1
349 765 m 1
 429 681 l 1
 187 501 l 1
 123 581 l 1
 349 765 l 1
EndSplineSet
EndChar

StartChar: Aogonek
Encoding: 260 260 340
Width: 795
VWidth: 0
Flags: HW
HStem: -266 105<566 672> 0 10G<63 187> 182 113<313 528> 684 10G<360 491>
VStem: 432 133<-157 -78>
LayerCount: 3
Fore
SplineSet
63 0 m 1
 364 694 l 1
 487 694 l 1
 788 0 l 1
 759 0 l 1
 581 -4 564 -125 564 -129 c 1
 564 -142 572 -160 602 -160 c 0
 636 -160 676 -139 683 -135 c 2
 701 -124 l 1
 743 -202 l 1
 729 -212 l 2
 703 -232 643 -266 575 -266 c 0
 493 -266 432 -216 432 -146 c 0
 432 -64 530 24 631 58 c 1
 576 182 l 1
 267 182 l 1
 183 0 l 1
 63 0 l 1
528 294 m 1
 422 552 l 1
 313 294 l 1
 528 294 l 1
EndSplineSet
EndChar

StartChar: aogonek
Encoding: 261 261 341
Width: 602
VWidth: 0
Flags: HW
HStem: -265 99<347 450> -8 105<200 351> 213 70<209 393> 379 106<130 366>
VStem: 60 120<118 187> 210 136<-162 -97> 393 122<118 213 284 355>
LayerCount: 3
Fore
SplineSet
180 151 m 0
 180 125 215 97 277 97 c 0
 322 97 363 111 393 128 c 1
 393 213 l 1
 280 213 226 209 196 183 c 0
 186 175 180 162 180 151 c 0
272 379 m 0
 242 379 193 375 131 358 c 1
 112 353 l 1
 87 449 l 1
 104 455 l 1
 166 478 233 485 288 485 c 0
 475 485 514 403 514 309 c 2
 514 -14 l 1
 503 -20 l 1
 427 -59 346 -90 346 -136 c 0
 346 -155 362 -166 385 -166 c 0
 399 -166 418 -162 457 -141 c 2
 474 -132 l 1
 517 -206 l 1
 501 -216 l 2
 474 -234 418 -265 355 -265 c 0
 270 -265 210 -216 210 -152 c 0
 210 -78 288 -24 353 8 c 1
 321 -2 287 -8 250 -8 c 0
 138 -8 60 59 60 133 c 0
 60 181 93 248 209 271 c 1
 246 277 295 283 393 284 c 1
 393 295 l 2
 393 335 385 379 272 379 c 0
EndSplineSet
EndChar

StartChar: Eogonek
Encoding: 280 280 342
Width: 706
VWidth: 0
Flags: HW
HStem: -265 105<466 565> 0 113<265 422> 301 113<265 602> 581 113<265 628>
VStem: 142 124<113 301 414 581> 333 131<-157 -83>
LayerCount: 3
Fore
SplineSet
142 694 m 1
 628 694 l 1
 628 581 l 1
 265 581 l 1
 265 414 l 1
 602 414 l 1
 602 301 l 1
 265 301 l 1
 265 113 l 1
 628 113 l 1
 628 23 l 1
 620 18 l 2
 536 -42 464 -79 464 -128 c 0
 464 -149 482 -160 503 -160 c 0
 528 -160 558 -144 573 -134 c 2
 591 -123 l 1
 633 -201 l 1
 619 -211 l 2
 594 -230 540 -265 475 -265 c 0
 392 -265 333 -217 333 -146 c 0
 333 -81 377 -34 422 0 c 1
 142 0 l 1
 142 694 l 1
EndSplineSet
EndChar

StartChar: eogonek
Encoding: 281 281 343
Width: 618
VWidth: 0
Flags: HW
HStem: -266 99<361 465> 179 101<187 437> 377 109<239 401>
VStem: 227 131<-163 -81>
LayerCount: 3
Fore
SplineSet
63 219 m 0
 63 418 209 487 341 487 c 0
 546 487 555 337 555 234 c 2
 555 179 l 1
 186 179 l 1
 200 132 271 93 375 93 c 0
 406 93 448 97 488 109 c 2
 508 116 l 1
 532 22 l 1
 515 17 l 2
 420 -14 357 -92 357 -133 c 0
 357 -156 374 -167 396 -167 c 0
 410 -167 433 -163 472 -142 c 2
 490 -132 l 1
 532 -206 l 1
 517 -216 l 2
 487 -236 432 -266 367 -266 c 0
 282 -266 227 -215 227 -149 c 0
 227 -96 260 -48 300 -9 c 1
 147 4 63 79 63 219 c 0
320 377 m 0
 239 377 195 331 187 279 c 1
 437 279 l 1
 432 353 386 377 320 377 c 0
EndSplineSet
EndChar

StartChar: Iogonek
Encoding: 302 302 344
Width: 396
VWidth: 0
Flags: HW
HStem: -266 104<127 218> 684 10G<156 279>
VStem: 15 111<-159 -77> 156 123<34 694>
LayerCount: 3
Fore
SplineSet
15 -146 m 0
 15 -70 76 5 156 47 c 1
 156 694 l 1
 279 694 l 1
 279 22 l 1
 269 17 l 1
 142 -52 125 -106 125 -128 c 0
 125 -141 132 -161 158 -161 c 0
 168 -161 189 -157 227 -135 c 2
 245 -124 l 1
 287 -202 l 1
 272 -212 l 2
 243 -233 190 -266 134 -266 c 0
 67 -266 15 -218 15 -146 c 0
EndSplineSet
EndChar

StartChar: iogonek
Encoding: 303 303 345
Width: 295
VWidth: 0
Flags: HW
HStem: -271 105<52 143> 473 10G<88 208> 562 132<81 215>
VStem: -60 110<-163 -77> 81 135<562 694> 88 120<47 482>
LayerCount: 3
Fore
SplineSet
-60 -148 m 0xf4
 -60 -66 8 14 88 58 c 1
 88 482 l 1
 208 482 l 1
 208 17 l 1
 195 12 l 1
 108 -19 50 -88 50 -132 c 0
 50 -152 62 -166 83 -166 c 0
 97 -166 117 -160 152 -140 c 2
 170 -130 l 1
 211 -206 l 1
 197 -216 l 1
 168 -237 115 -271 59 -271 c 0
 -10 -271 -60 -220 -60 -148 c 0xf4
81 694 m 1xf8
 215 694 l 1
 215 562 l 1
 81 562 l 1
 81 694 l 1xf8
EndSplineSet
EndChar

StartChar: Uogonek
Encoding: 370 370 346
Width: 851
VWidth: 0
Flags: HW
HStem: -266 105<456 556> 684 10G<142 265 626 749>
VStem: 142 123<164 694> 328 125<-159 -76> 626 123<166 694>
LayerCount: 3
Fore
SplineSet
141 243 m 0
 141 264 142 285 142 305 c 2
 142 694 l 1
 265 694 l 1
 265 254 l 2
 265 212 268 177 300 147 c 0
 314 134 355 102 445 102 c 0
 538 102 602 135 620 195 c 0
 625 213 626 233 626 254 c 2
 626 694 l 1
 749 694 l 1
 749 305 l 2
 749 286 750 267 750 247 c 0
 750 93 699 54 593 8 c 1
 473 -43 453 -106 453 -127 c 0
 453 -147 465 -161 489 -161 c 0
 514 -161 549 -145 565 -135 c 2
 586 -123 l 1
 633 -202 l 1
 618 -212 l 1
 588 -233 526 -266 460 -266 c 0
 380 -266 328 -217 328 -146 c 0
 328 -95 353 -46 388 -8 c 1
 154 11 141 165 141 243 c 0
EndSplineSet
EndChar

StartChar: uogonek
Encoding: 371 371 347
Width: 656
VWidth: 0
Flags: HW
HStem: -265 101<405 509> -10 112<239 413> 473 10G<90 210 449 569>
VStem: 90 120<131 482> 271 132<-162 -97> 449 120<122 482>
LayerCount: 3
Fore
SplineSet
210 482 m 1
 210 387 210 293 210 198 c 0
 210 171 212 102 318 102 c 0
 367 102 419 118 449 129 c 1
 449 482 l 1
 569 482 l 1
 569 -14 l 1
 558 -20 l 1
 489 -56 403 -89 403 -135 c 0
 403 -153 412 -165 440 -165 c 0
 470 -165 503 -147 513 -142 c 2
 530 -132 l 1
 573 -206 l 1
 558 -216 l 2
 507 -250 460 -265 414 -265 c 0
 325 -265 271 -214 271 -153 c 0
 271 -78 342 -23 437 20 c 1
 393 4 337 -10 280 -10 c 0
 251 -10 223 -6 198 3 c 0
 95 40 88 127 88 206 c 0
 88 214 90 222 90 226 c 2
 90 482 l 1
 210 482 l 1
EndSplineSet
EndChar

StartChar: Uhungarumlaut
Encoding: 368 368 348
Width: 851
VWidth: 0
Flags: HW
HStem: -10 112<340 555> 684 10G<142 265 626 749>
VStem: 142 123<163 694> 626 123<166 694>
LayerCount: 3
Fore
SplineSet
271 708 m 5
 208 798 l 5
 478 987 l 5
 535 905 l 5
 271 708 l 5
731 987 m 5
 793 897 l 5
 524 708 l 5
 467 791 l 5
 731 987 l 5
445 -10 m 0
 142 -10 141 172 141 243 c 0
 141 264 142 285 142 305 c 2
 142 694 l 1
 265 694 l 1
 265 254 l 2
 265 212 268 177 300 147 c 0
 314 134 355 102 445 102 c 0
 538 102 602 135 620 195 c 0
 625 213 626 233 626 254 c 2
 626 694 l 1
 749 694 l 1
 749 305 l 2
 749 285 750 264 750 243 c 0
 750 168 742 -10 445 -10 c 0
EndSplineSet
EndChar

